<?xml version="1.0" encoding="UTF-8" standalone="no"?>
<!-- Created with Inkscape (http://www.inkscape.org/) -->

<svg
   xmlns:dc="http://purl.org/dc/elements/1.1/"
   xmlns:cc="http://creativecommons.org/ns#"
   xmlns:rdf="http://www.w3.org/1999/02/22-rdf-syntax-ns#"
   xmlns:svg="http://www.w3.org/2000/svg"
   xmlns="http://www.w3.org/2000/svg"
   xmlns:xlink="http://www.w3.org/1999/xlink"
   xmlns:sodipodi="http://sodipodi.sourceforge.net/DTD/sodipodi-0.dtd"
   xmlns:inkscape="http://www.inkscape.org/namespaces/inkscape"
   width="128"
   height="128"
   viewBox="0 0 128 128"
   version="1.1"
   id="svg8"
   inkscape:version="0.92.4 5da689c313, 2019-01-14"
   sodipodi:docname="ablobfoxdundundunowo2.svg"
   inkscape:export-filename="/home/kevin/Encfs/Media-Enc/Projekte/Grafiken/2019.07.30 - blobfox/blobfoxowo.png"
   inkscape:export-xdpi="96"
   inkscape:export-ydpi="96">
  <defs
     id="defs2">
    <linearGradient
       inkscape:collect="always"
       id="linearGradient879">
      <stop
         style="stop-color:#ff7505;stop-opacity:1"
         offset="0"
         id="stop875" />
      <stop
         style="stop-color:#ff8702;stop-opacity:1"
         offset="1"
         id="stop877" />
    </linearGradient>
    <mask
       maskUnits="userSpaceOnUse"
       id="mask914">
      <path
         sodipodi:nodetypes="sssssssss"
         inkscape:connector-curvature="0"
         id="path916"
         d="m 154.91191,68.610466 c 0,13.30933 -2.85091,14.61151 -2.85091,22.03668 0,7.52238 3.27922,9.891904 1.87863,15.118954 -1.74673,6.51888 -11.67541,15.3198 -32.30034,19.24611 -19.5495,3.72157 -44.712872,3.71493 -57.603772,1.17936 -12.97147,-2.55141 -33.636043,-9.97066 -35.993433,-20.68009 -3.35292,-15.232034 0.95023,-36.744664 10.314153,-53.450134 13.12204,-23.41004 38.49929,-39.74165 76.385222,-32.80327 18.75365,3.43453 40.17044,20.22728 40.17045,49.35239 z"
         style="opacity:1;fill:#ffffff;fill-opacity:1;fill-rule:evenodd;stroke:none;stroke-width:2.79999995;stroke-linecap:round;stroke-linejoin:round;stroke-miterlimit:4;stroke-dasharray:none;stroke-dashoffset:0;stroke-opacity:1;paint-order:markers stroke fill" />
    </mask>
    <clipPath
       clipPathUnits="userSpaceOnUse"
       id="clipPath939">
      <path
         style="opacity:1;fill:#ffffff;fill-opacity:1;fill-rule:evenodd;stroke:none;stroke-width:2.79999995;stroke-linecap:round;stroke-linejoin:round;stroke-miterlimit:4;stroke-dasharray:none;stroke-dashoffset:0;stroke-opacity:1;paint-order:markers stroke fill"
         d="m 150.70195,0.51324812 c -3.5881,-1.83838902 -33.06651,6.51462968 -45.38553,27.09708688 5.48775,7.742314 19.19939,1.052482 24.75224,0.675897 -1.51761,2.342881 -3.95771,7.251483 -4.00944,10.319043 2.25571,0.870741 6.46398,0.348129 8.50111,-1.397205 1.40822,2.738472 0.2768,11.991364 8.03107,13.355 11.96243,-15.595326 13.61577,-47.2291846 8.11055,-50.04982188 z"
         id="path941"
         inkscape:connector-curvature="0"
         sodipodi:nodetypes="scccccs" />
    </clipPath>
    <clipPath
       clipPathUnits="userSpaceOnUse"
       id="clipPath846">
      <path
         sodipodi:nodetypes="ssssssscccccccccs"
         inkscape:connector-curvature="0"
         id="path848"
         d="m 391.79445,425.41973 c 1.65688,13.01782 -0.96948,14.64639 -0.0451,21.90893 0.93646,7.35762 4.43884,9.26701 3.71966,14.55393 -0.89694,6.59355 -9.51252,16.43773 -29.19693,22.84564 -18.65801,6.07378 -43.27107,9.19988 -56.19527,8.32464 -13.005,-0.88071 -34.14057,-5.56492 -37.77955,-15.74632 -5.17572,-14.481 -3.54688,-36.67033 3.43423,-53.56343 3.058,-7.39987 11.25258,-21.29807 21.35685,-27.6922 l 8.11698,-0.59557 -12.76711,-1.32585 c 5.83499,-2.87893 11.39007,-4.67336 15.7895,-5.33112 1.44139,0.88585 3.34146,1.6891 5.00507,2.25111 -3.5138,-1.72411 -8.61797,-10.20742 -11.06095,-13.14333 13.21468,-0.66879 24.87025,3.07218 30.03025,5.55927 l -4.32337,-6.20877 c 6.88088,0.77679 11.29124,4.58866 18.48127,4.89245 18.77046,1.02466 41.8087,14.78343 45.43449,43.27062 z"
         style="opacity:1;fill:url(#linearGradient850);fill-opacity:1;fill-rule:evenodd;stroke:none;stroke-width:2.79999995;stroke-linecap:round;stroke-linejoin:round;stroke-miterlimit:4;stroke-dasharray:none;stroke-dashoffset:0;stroke-opacity:1;paint-order:markers stroke fill" />
    </clipPath>
    <linearGradient
       inkscape:collect="always"
       xlink:href="#linearGradient879"
       id="linearGradient850"
       gradientUnits="userSpaceOnUse"
       gradientTransform="matrix(0.97809727,-0.12449018,0.12449018,0.97809727,231.7888,378.02587)"
       x1="114.28658"
       y1="112.44355"
       x2="95.348198"
       y2="85.856133" />
    <clipPath
       clipPathUnits="userSpaceOnUse"
       id="clipPath848">
      <path
         sodipodi:nodetypes="scccccs"
         inkscape:connector-curvature="0"
         id="path850"
         d="M 151.14447,0.33917988 C 146.26964,-2.2314866 116.36421,8.7225203 104.2178,29.016572 c 5.41086,7.633828 19.06431,-0.122979 24.53933,-0.494288 -1.49634,2.310053 -4.03617,8.310589 -4.08717,11.335166 2.22409,0.85854 9.31981,0.611108 12.13198,-2.270484 1.5001,5.35635 -1.15567,17.091196 6.48995,18.435725 10.36626,-17.966089 13.24747,-52.8385826 7.85258,-55.68351112 z"
         style="opacity:1;fill:#333333;fill-opacity:1;fill-rule:evenodd;stroke:none;stroke-width:2.79999995;stroke-linecap:round;stroke-linejoin:round;stroke-miterlimit:4;stroke-dasharray:none;stroke-dashoffset:0;stroke-opacity:1;paint-order:markers stroke fill" />
    </clipPath>
  </defs>
  <sodipodi:namedview
     id="base"
     pagecolor="#ffffff"
     bordercolor="#666666"
     borderopacity="1.0"
     inkscape:pageopacity="0.0"
     inkscape:pageshadow="2"
     inkscape:zoom="5.6"
     inkscape:cx="-121.94454"
     inkscape:cy="87.587621"
     inkscape:document-units="px"
     inkscape:current-layer="layer1"
     showgrid="false"
     units="px"
     fit-margin-top="0"
     fit-margin-left="0"
     fit-margin-right="0"
     fit-margin-bottom="0"
     inkscape:window-width="3840"
     inkscape:window-height="1982"
     inkscape:window-x="2880"
     inkscape:window-y="0"
     inkscape:window-maximized="1"
     showguides="false" />
  <metadata
     id="metadata5">
    <rdf:RDF>
      <cc:Work
         rdf:about="">
        <dc:format>image/svg+xml</dc:format>
        <dc:type
           rdf:resource="http://purl.org/dc/dcmitype/StillImage" />
        <dc:title />
      </cc:Work>
    </rdf:RDF>
  </metadata>
  <g
     inkscape:groupmode="layer"
     id="layer3"
     inkscape:label="Ear  back">
    <path
       style="opacity:1;fill:#313131;fill-opacity:1;fill-rule:evenodd;stroke:none;stroke-width:2.79999948;stroke-linecap:round;stroke-linejoin:round;stroke-miterlimit:4;stroke-dasharray:none;stroke-dashoffset:0;stroke-opacity:1;paint-order:markers stroke fill"
       d="m 13.142625,-23.358545 c 7.376154,-3.737189 20.508264,27.1829761 39.679733,38.345713 L 19.13691,29.180141 C 21.208094,16.15134 2.4480716,-17.940058 13.142625,-23.358545 Z"
       id="rect870-2"
       inkscape:connector-curvature="0"
       sodipodi:nodetypes="sccs" />
    <path
       clip-path="none"
       sodipodi:nodetypes="sccccccss"
       inkscape:connector-curvature="0"
       id="path872"
       d="M 12.2862,-18.13938 C 9.7391395,-18.189908 7.0104825,-8.2255288 11.06268,3.001147 9.7817534,1.6310585 8.9775346,1.0032815 5.5094489,-0.42313451 5.8379785,6.9028141 6.2702409,12.703253 12.893031,17.218251 L 5.0690328,15.118306 C 7.6383526,21.128171 11.907111,27.578844 19.67011,30.16926 l 6.227515,-5.629061 C 15.680706,22.010197 22.108411,4.1091091 19.703976,-7.8911205 18.290503,-14.945584 14.467389,-18.096109 12.2862,-18.13938 Z"
       style="opacity:1;fill:#ebdccc;fill-opacity:1;fill-rule:evenodd;stroke:none;stroke-width:2.79999971;stroke-linecap:round;stroke-linejoin:round;stroke-miterlimit:4;stroke-dasharray:none;stroke-dashoffset:0;stroke-opacity:1;paint-order:markers stroke fill" />
  </g>
  <g
     inkscape:groupmode="layer"
     id="layer4"
     inkscape:label="Body">
    <path
       style="opacity:1;fill:#ff8702;fill-opacity:1;fill-rule:evenodd;stroke:none;stroke-width:2.79999948;stroke-linecap:round;stroke-linejoin:round;stroke-miterlimit:4;stroke-dasharray:none;stroke-dashoffset:0;stroke-opacity:1;paint-order:markers stroke fill"
       d="m 139.16158,76.264609 c -1.80502,16.023372 -5.41388,17.204446 -6.42088,26.143751 -1.02018,9.05635 2.60639,12.35382 0.21131,18.45681 -2.98702,7.61131 -16.13394,16.86037 -41.497175,18.79018 C 67.414078,141.48455 37.1203,138.0639 21.944563,133.26301 6.6739617,128.43214 -17.19832,116.69745 -18.584025,103.48445 -20.554911,84.691564 -12.244989,58.612216 1.0822767,40.533562 13.688178,23.433448 27.688193,12.859414 44.491605,15.326519 L 28.136094,9.3677156 C 40.697503,7.7075663 46.235418,7.120968 56.47493,13.491372 50.759393,7.9804261 48.354251,-2.0214067 45.969954,-6.506877 61.941206,-3.4649858 74.68354,5.1517262 80.12124,9.6206074 L 78.953033,0.23018597 C 86.252316,3.3918036 88.996905,8.9481738 97.492736,11.400383 119.60485,18.07864 143.11151,41.200316 139.16158,76.264609 Z"
       id="path837"
       inkscape:connector-curvature="0"
       sodipodi:nodetypes="ssssssscccccccs" />
  </g>
  <g
     inkscape:groupmode="layer"
     id="layer5"
     inkscape:label="Ear front">
    <path
       sodipodi:nodetypes="sccccs"
       inkscape:connector-curvature="0"
       id="path873-7"
       d="m 147.54356,-8.219102 c -5.71952,-3.891565 -44.56224,5.5700093 -62.565069,29.177574 5.676745,10.28255 30.600909,2.950717 36.070309,-2.307511 l 4.67553,12.210829 c -0.14782,6.936393 -5.14836,26.522519 4.19975,29.273969 15.45515,-20.953835 23.94926,-64.0480917 17.61948,-68.354861 z"
       style="opacity:1;fill:#313131;fill-opacity:1;fill-rule:evenodd;stroke:none;stroke-width:2.79999948;stroke-linecap:round;stroke-linejoin:round;stroke-miterlimit:4;stroke-dasharray:none;stroke-dashoffset:0;stroke-opacity:1;paint-order:markers stroke fill" />
    <path
       style="opacity:1;fill:#ebdccc;fill-opacity:1;fill-rule:evenodd;stroke:none;stroke-width:2.79999971;stroke-linecap:round;stroke-linejoin:round;stroke-miterlimit:4;stroke-dasharray:none;stroke-dashoffset:0;stroke-opacity:1;paint-order:markers stroke fill"
       clip-path="none"
       d="m 142.13359,-3.8175329 c -3.88663,-0.2871472 -14.19757,2.3313578 -20.70827,6.4950269 -8.29309,5.3035271 -14.01666,21.191941 -24.37241,23.729147 6.88576,-0.18352 14.56769,-2.673009 18.52649,-2.497452 -2.18711,2.671692 -6.19337,9.798622 -6.68184,13.564253 2.6477,1.382774 11.51598,2.06986 15.42122,-1.13026 0.49763,3.076941 -0.21001,7.621351 -0.32076,11.956809 1.82671,-16.163948 16.00972,-20.142004 19.12897,-35.353088 1.90133,-9.2719753 1.92658,-15.4174363 0.24989,-16.4596195 -0.26325,-0.1636209 -0.68805,-0.2637932 -1.24329,-0.3048164 z"
       id="path958-0"
       inkscape:connector-curvature="0" />
  </g>
  <g
     inkscape:label="Face"
     inkscape:groupmode="layer"
     id="layer1"
     transform="translate(-26.911905,0.03095311)">
    <ellipse
       style="opacity:1;fill:#ffffff;fill-opacity:1;fill-rule:evenodd;stroke:#ffffff;stroke-width:10.0449647;stroke-linecap:round;stroke-linejoin:round;stroke-miterlimit:4;stroke-dasharray:none;stroke-dashoffset:0;stroke-opacity:1;paint-order:fill markers stroke"
       id="path885"
       cx="116.2087"
       cy="63.08427"
       rx="10.816621"
       ry="12.265194"
       transform="matrix(0.99904833,-0.04361684,-0.0900081,0.99594103,0,0)" />
    <ellipse
       transform="matrix(0.98868855,0.14998314,-0.28718674,0.95787461,0,0)"
       ry="11.807391"
       rx="10.022244"
       cy="36.633087"
       cx="69.21347"
       id="ellipse887"
       style="opacity:1;fill:#fefefe;fill-opacity:1;fill-rule:evenodd;stroke:#ffffff;stroke-width:10.04980549;stroke-linecap:round;stroke-linejoin:round;stroke-miterlimit:4;stroke-dasharray:none;stroke-dashoffset:0;stroke-opacity:1;paint-order:fill markers stroke" />
    <path
       style="fill:none;fill-opacity:1;stroke:#313131;stroke-width:5.5;stroke-linecap:round;stroke-linejoin:round;stroke-miterlimit:4;stroke-dasharray:none;stroke-opacity:1"
       d="m 47.222017,83.116898 c 0.476168,5.159397 2.621762,11.914927 4.91735,16.484447 5.691288,-2.255023 9.726294,-7.33753 14.302411,-10.722513 1.656337,2.77775 4.975184,12.242288 8.77488,17.063578 5.981524,-2.5923 13.758927,-9.03761 15.747884,-10.520004"
       id="path889"
       inkscape:connector-curvature="0"
       sodipodi:nodetypes="ccccc" />
    <path
       style="opacity:1;fill:#313131;fill-opacity:1;fill-rule:evenodd;stroke:none;stroke-width:3.79999995;stroke-linecap:round;stroke-linejoin:round;stroke-miterlimit:4;stroke-dasharray:none;stroke-dashoffset:0;stroke-opacity:1;paint-order:markers stroke fill"
       d="M 81.148536,74.10781 C 80.916362,76.168865 70.836844,82.079688 67.392714,81.248767 63.682191,80.353579 59.914803,70.499291 60.87717,68.66604 c 2.443221,-4.654199 20.911039,-0.236734 20.271366,5.44177 z"
       id="rect902"
       inkscape:connector-curvature="0"
       sodipodi:nodetypes="ssss" />
    <path
       style="display:inline;fill:none;stroke:#313131;stroke-width:5;stroke-linecap:round;stroke-linejoin:round;stroke-miterlimit:4;stroke-dasharray:none;stroke-opacity:1"
       d="M 72.659115,47.391386 C 68.7206,58.026224 61.19808,59.206098 55.243381,63.208241 c -4.784536,3.215677 -5.559069,9.406047 -3.695032,12.834053"
       id="path890"
       inkscape:connector-curvature="0"
       sodipodi:nodetypes="csc" />
    <ellipse
       transform="matrix(0.96153304,-0.27468931,-0.02480487,0.99969231,0,0)"
       ry="6.6570001"
       rx="4.8424759"
       cy="91.533043"
       cx="112.07065"
       id="ellipse841"
       style="opacity:1;fill:#313131;fill-opacity:1;fill-rule:evenodd;stroke:none;stroke-width:4.09439135;stroke-linecap:round;stroke-linejoin:round;stroke-miterlimit:4;stroke-dasharray:none;stroke-dashoffset:0;stroke-opacity:1;paint-order:fill markers stroke" />
    <ellipse
       style="opacity:1;fill:#313131;fill-opacity:1;fill-rule:evenodd;stroke:none;stroke-width:4.09439135;stroke-linecap:round;stroke-linejoin:round;stroke-miterlimit:4;stroke-dasharray:none;stroke-dashoffset:0;stroke-opacity:1;paint-order:fill markers stroke"
       id="ellipse846"
       cx="63.501122"
       cy="62.295971"
       rx="4.8424759"
       ry="6.6570001"
       transform="matrix(0.97913055,-0.20323231,-0.09825717,0.99516106,0,0)" />
  </g>
  <g
     inkscape:groupmode="layer"
     id="layer6"
     inkscape:label="Whiskers"
     style="display:none">
    <path
       style="fill:none;fill-opacity:1;stroke:#313131;stroke-width:2.5;stroke-linecap:round;stroke-linejoin:round;stroke-miterlimit:4;stroke-dasharray:none;stroke-opacity:1"
       d="m 68.645975,77.025193 c 9.338035,-1.395359 20.51424,-0.625306 30.695296,1.011356"
       id="path943"
       inkscape:connector-curvature="0"
       sodipodi:nodetypes="cc" />
    <path
       sodipodi:nodetypes="cc"
       inkscape:connector-curvature="0"
       id="path945"
       d="m 67.228811,83.13089 c 11.440451,0.448873 21.054841,4.550435 30.034524,11.48183"
       style="fill:none;fill-opacity:1;stroke:#313131;stroke-width:2.5;stroke-linecap:round;stroke-linejoin:round;stroke-miterlimit:4;stroke-dasharray:none;stroke-opacity:1" />
    <path
       sodipodi:nodetypes="cc"
       inkscape:connector-curvature="0"
       id="path947"
       d="M 32.895393,71.456936 C 26.718997,67.627467 21.192825,65.440905 14.567884,63.58624"
       style="fill:none;fill-opacity:1;stroke:#313131;stroke-width:2.5;stroke-linecap:round;stroke-linejoin:round;stroke-miterlimit:4;stroke-dasharray:none;stroke-opacity:1" />
    <path
       style="fill:none;fill-opacity:1;stroke:#313131;stroke-width:2.5;stroke-linecap:round;stroke-linejoin:round;stroke-miterlimit:4;stroke-dasharray:none;stroke-opacity:1"
       d="M 32.16221,76.367993 C 24.397529,74.197356 17.839504,73.28738 10.803794,73.046759"
       id="path949"
       inkscape:connector-curvature="0"
       sodipodi:nodetypes="cc" />
  </g>
</svg>
