<?xml version="1.0" encoding="UTF-8" standalone="no"?>
<!-- Created with Inkscape (http://www.inkscape.org/) -->

<svg
   xmlns:dc="http://purl.org/dc/elements/1.1/"
   xmlns:cc="http://creativecommons.org/ns#"
   xmlns:rdf="http://www.w3.org/1999/02/22-rdf-syntax-ns#"
   xmlns:svg="http://www.w3.org/2000/svg"
   xmlns="http://www.w3.org/2000/svg"
   xmlns:xlink="http://www.w3.org/1999/xlink"
   xmlns:sodipodi="http://sodipodi.sourceforge.net/DTD/sodipodi-0.dtd"
   xmlns:inkscape="http://www.inkscape.org/namespaces/inkscape"
   width="128"
   height="128"
   viewBox="0 0 128 128"
   version="1.1"
   id="svg8"
   inkscape:version="0.92.4 5da689c313, 2019-01-14"
   sodipodi:docname="blobfoxfingerguns.svg"
   inkscape:export-filename="/home/kevin/Encfs/Media-Enc/Projekte/Grafiken/2019.07.30 - blobfox/blobfoxfingerguns.png"
   inkscape:export-xdpi="96"
   inkscape:export-ydpi="96">
  <defs
     id="defs2">
    <linearGradient
       inkscape:collect="always"
       id="linearGradient879">
      <stop
         style="stop-color:#ff7505;stop-opacity:1"
         offset="0"
         id="stop875" />
      <stop
         style="stop-color:#ff8702;stop-opacity:1"
         offset="1"
         id="stop877" />
    </linearGradient>
    <mask
       maskUnits="userSpaceOnUse"
       id="mask914">
      <path
         sodipodi:nodetypes="sssssssss"
         inkscape:connector-curvature="0"
         id="path916"
         d="m 154.91191,68.610466 c 0,13.30933 -2.85091,14.61151 -2.85091,22.03668 0,7.52238 3.27922,9.891904 1.87863,15.118954 -1.74673,6.51888 -11.67541,15.3198 -32.30034,19.24611 -19.5495,3.72157 -44.712872,3.71493 -57.603772,1.17936 -12.97147,-2.55141 -33.636043,-9.97066 -35.993433,-20.68009 -3.35292,-15.232034 0.95023,-36.744664 10.314153,-53.450134 13.12204,-23.41004 38.49929,-39.74165 76.385222,-32.80327 18.75365,3.43453 40.17044,20.22728 40.17045,49.35239 z"
         style="opacity:1;fill:#ffffff;fill-opacity:1;fill-rule:evenodd;stroke:none;stroke-width:2.79999995;stroke-linecap:round;stroke-linejoin:round;stroke-miterlimit:4;stroke-dasharray:none;stroke-dashoffset:0;stroke-opacity:1;paint-order:markers stroke fill" />
    </mask>
    <clipPath
       clipPathUnits="userSpaceOnUse"
       id="clipPath939">
      <path
         style="opacity:1;fill:#ffffff;fill-opacity:1;fill-rule:evenodd;stroke:none;stroke-width:2.79999995;stroke-linecap:round;stroke-linejoin:round;stroke-miterlimit:4;stroke-dasharray:none;stroke-dashoffset:0;stroke-opacity:1;paint-order:markers stroke fill"
         d="m 150.70195,0.51324812 c -3.5881,-1.83838902 -33.06651,6.51462968 -45.38553,27.09708688 5.48775,7.742314 19.19939,1.052482 24.75224,0.675897 -1.51761,2.342881 -3.95771,7.251483 -4.00944,10.319043 2.25571,0.870741 6.46398,0.348129 8.50111,-1.397205 1.40822,2.738472 0.2768,11.991364 8.03107,13.355 11.96243,-15.595326 13.61577,-47.2291846 8.11055,-50.04982188 z"
         id="path941"
         inkscape:connector-curvature="0"
         sodipodi:nodetypes="scccccs" />
    </clipPath>
    <clipPath
       clipPathUnits="userSpaceOnUse"
       id="clipPath846">
      <path
         sodipodi:nodetypes="ssssssscccccccccs"
         inkscape:connector-curvature="0"
         id="path848"
         d="m 391.79445,425.41973 c 1.65688,13.01782 -0.96948,14.64639 -0.0451,21.90893 0.93646,7.35762 4.43884,9.26701 3.71966,14.55393 -0.89694,6.59355 -9.51252,16.43773 -29.19693,22.84564 -18.65801,6.07378 -43.27107,9.19988 -56.19527,8.32464 -13.005,-0.88071 -34.14057,-5.56492 -37.77955,-15.74632 -5.17572,-14.481 -3.54688,-36.67033 3.43423,-53.56343 3.058,-7.39987 11.25258,-21.29807 21.35685,-27.6922 l 8.11698,-0.59557 -12.76711,-1.32585 c 5.83499,-2.87893 11.39007,-4.67336 15.7895,-5.33112 1.44139,0.88585 3.34146,1.6891 5.00507,2.25111 -3.5138,-1.72411 -8.61797,-10.20742 -11.06095,-13.14333 13.21468,-0.66879 24.87025,3.07218 30.03025,5.55927 l -4.32337,-6.20877 c 6.88088,0.77679 11.29124,4.58866 18.48127,4.89245 18.77046,1.02466 41.8087,14.78343 45.43449,43.27062 z"
         style="opacity:1;fill:url(#linearGradient850);fill-opacity:1;fill-rule:evenodd;stroke:none;stroke-width:2.79999995;stroke-linecap:round;stroke-linejoin:round;stroke-miterlimit:4;stroke-dasharray:none;stroke-dashoffset:0;stroke-opacity:1;paint-order:markers stroke fill" />
    </clipPath>
    <linearGradient
       inkscape:collect="always"
       xlink:href="#linearGradient879"
       id="linearGradient850"
       gradientUnits="userSpaceOnUse"
       gradientTransform="matrix(0.97809727,-0.12449018,0.12449018,0.97809727,231.7888,378.02587)"
       x1="114.28658"
       y1="112.44355"
       x2="95.348198"
       y2="85.856133" />
    <clipPath
       clipPathUnits="userSpaceOnUse"
       id="clipPath848">
      <path
         sodipodi:nodetypes="scccccs"
         inkscape:connector-curvature="0"
         id="path850"
         d="M 151.14447,0.33917988 C 146.26964,-2.2314866 116.36421,8.7225203 104.2178,29.016572 c 5.41086,7.633828 19.06431,-0.122979 24.53933,-0.494288 -1.49634,2.310053 -4.03617,8.310589 -4.08717,11.335166 2.22409,0.85854 9.31981,0.611108 12.13198,-2.270484 1.5001,5.35635 -1.15567,17.091196 6.48995,18.435725 10.36626,-17.966089 13.24747,-52.8385826 7.85258,-55.68351112 z"
         style="opacity:1;fill:#333333;fill-opacity:1;fill-rule:evenodd;stroke:none;stroke-width:2.79999995;stroke-linecap:round;stroke-linejoin:round;stroke-miterlimit:4;stroke-dasharray:none;stroke-dashoffset:0;stroke-opacity:1;paint-order:markers stroke fill" />
    </clipPath>
  </defs>
  <sodipodi:namedview
     id="base"
     pagecolor="#ffffff"
     bordercolor="#666666"
     borderopacity="1.0"
     inkscape:pageopacity="0.0"
     inkscape:pageshadow="2"
     inkscape:zoom="2.8"
     inkscape:cx="-119.77406"
     inkscape:cy="19.28859"
     inkscape:document-units="px"
     inkscape:current-layer="layer1"
     showgrid="false"
     units="px"
     fit-margin-top="0"
     fit-margin-left="0"
     fit-margin-right="0"
     fit-margin-bottom="0"
     inkscape:window-width="3840"
     inkscape:window-height="1981"
     inkscape:window-x="2880"
     inkscape:window-y="0"
     inkscape:window-maximized="1"
     showguides="false" />
  <metadata
     id="metadata5">
    <rdf:RDF>
      <cc:Work
         rdf:about="">
        <dc:format>image/svg+xml</dc:format>
        <dc:type
           rdf:resource="http://purl.org/dc/dcmitype/StillImage" />
        <dc:title></dc:title>
      </cc:Work>
    </rdf:RDF>
  </metadata>
  <g
     inkscape:groupmode="layer"
     id="layer3"
     inkscape:label="Ear  back">
    <path
       style="opacity:1;fill:#313131;fill-opacity:1;fill-rule:evenodd;stroke:none;stroke-width:2.79999995;stroke-linecap:round;stroke-linejoin:round;stroke-miterlimit:4;stroke-dasharray:none;stroke-dashoffset:0;stroke-opacity:1;paint-order:markers stroke fill"
       d="M 25.2718,0.23261452 C 30.73822,-2.0053919 44.85534,17.82227 60.219124,22.820295 L 30.735657,40.653983 C 25.113982,31.990234 20.317812,2.2608362 25.2718,0.23261452 Z"
       id="rect870"
       inkscape:connector-curvature="0"
       sodipodi:nodetypes="sccs" />
  </g>
  <g
     inkscape:groupmode="layer"
     id="layer4"
     inkscape:label="Body">
    <path
       style="opacity:1;fill:#ff8702;fill-opacity:1;fill-rule:evenodd;stroke:none;stroke-width:2.79999995;stroke-linecap:round;stroke-linejoin:round;stroke-miterlimit:4;stroke-dasharray:none;stroke-dashoffset:0;stroke-opacity:1;paint-order:markers stroke fill"
       d="m 126.40766,60.975721 c 0,11.517752 -2.46715,12.644641 -2.46715,19.070305 0,6.50979 2.83781,8.560353 1.62576,13.083779 -1.51161,5.641372 -10.10382,13.257595 -27.952495,16.655375 -16.918,3.22061 -38.694204,3.21487 -49.849897,1.02062 C 36.538452,108.59783 18.655483,102.17729 16.615412,92.909462 13.713817,79.727821 17.52698,60.55219 25.541208,46.654293 33.121649,33.508648 42.213453,24.883755 54.337873,25.291346 L 42.252186,22.369528 C 51.0356,20.186764 54.91954,19.327594 62.69697,23.030589 58.199404,19.575911 55.692489,12.668897 53.641452,9.6757407 65.221158,10.557852 74.954719,15.655163 79.171754,18.392397 l -1.580045,-6.571935 c 5.433871,1.660487 7.826274,5.38496 14.05273,6.446233 16.229291,2.972201 34.763221,17.504476 34.763221,42.709026 z"
       id="path837"
       inkscape:connector-curvature="0"
       sodipodi:nodetypes="ssssssscccccccs" />
  </g>
  <g
     inkscape:groupmode="layer"
     id="layer5"
     inkscape:label="Ear front">
    <path
       sodipodi:nodetypes="scccccs"
       inkscape:connector-curvature="0"
       id="path873"
       d="M 125.60976,0.33189022 C 121.23853,-1.9731757 94.422512,7.8490847 83.530898,26.046414 c 4.851887,6.845112 17.094852,-0.110275 22.004302,-0.443222 -1.34178,2.071383 -3.61924,7.451961 -3.66497,10.164041 1.99433,0.769837 8.35704,0.547972 10.87869,-2.0359 1.34512,4.802945 -1.03629,15.32538 5.8195,16.530987 9.29536,-16.109869 11.87892,-47.3794308 7.04134,-49.93042978 z"
       style="opacity:1;fill:#313131;fill-opacity:1;fill-rule:evenodd;stroke:none;stroke-width:2.79999995;stroke-linecap:round;stroke-linejoin:round;stroke-miterlimit:4;stroke-dasharray:none;stroke-dashoffset:0;stroke-opacity:1;paint-order:markers stroke fill" />
    <path
       style="opacity:1;fill:#ebdccc;fill-opacity:1;fill-rule:evenodd;stroke:none;stroke-width:3.12594438;stroke-linecap:round;stroke-linejoin:round;stroke-miterlimit:4;stroke-dasharray:none;stroke-dashoffset:0;stroke-opacity:1;paint-order:markers stroke fill"
       d="m 148.35911,4.3356447 c -1.78771,-0.8484478 -11.00575,2.906299 -16.19325,7.6720183 -10.53309,9.676667 -1.07136,22.664674 -28.29413,20.811212 6.00859,14.75387 19.11803,20.290527 34.81182,24.002583 -2.67038,-18.583744 9.24321,-19.504661 10.95019,-39.43404 0.64348,-7.5127806 0.14869,-12.3762659 -1.27463,-13.0517733 z"
       id="path958"
       inkscape:connector-curvature="0"
       sodipodi:nodetypes="ssccss"
       clip-path="url(#clipPath848)"
       transform="matrix(0.89477712,0,0,0.89668252,-9.7207984,0.11774482)" />
  </g>
  <g
     inkscape:label="Face"
     inkscape:groupmode="layer"
     id="layer1"
     transform="translate(-26.911905,0.03095311)">
    <ellipse
       transform="matrix(0.99926375,0.03836616,-0.17815767,0.98400195,0,0)"
       ry="8.4339237"
       rx="7.1588373"
       cy="44.797108"
       cx="82.126213"
       id="ellipse887"
       style="opacity:1;fill:#313131;fill-opacity:1;fill-rule:evenodd;stroke:none;stroke-width:2.81394601;stroke-linecap:round;stroke-linejoin:round;stroke-miterlimit:4;stroke-dasharray:none;stroke-dashoffset:0;stroke-opacity:1;paint-order:markers stroke fill" />
    <path
       style="fill:none;fill-opacity:1;stroke:#313131;stroke-width:4.4000001;stroke-linecap:round;stroke-linejoin:round;stroke-miterlimit:4;stroke-dasharray:none;stroke-opacity:1"
       d="m 69.50851,75.333646 c 0.750526,3.62408 2.813642,8.247616 4.808435,11.307518 3.859399,-2.055693 6.31708,-5.98589 9.294577,-8.754458 1.397782,1.839217 4.510285,8.291801 7.592835,11.410145 4.038439,-2.318283 9.043523,-7.515055 10.336773,-8.726294"
       id="path889"
       inkscape:connector-curvature="0"
       sodipodi:nodetypes="ccccc" />
    <path
       style="opacity:1;fill:#313131;fill-opacity:1;fill-rule:evenodd;stroke:none;stroke-width:3.80000019;stroke-linecap:round;stroke-linejoin:round;stroke-miterlimit:4;stroke-dasharray:none;stroke-dashoffset:0;stroke-opacity:1;paint-order:markers stroke fill"
       d="m 92.869391,66.226274 c 0,1.481505 -6.681878,6.482961 -9.192978,6.168558 -2.705329,-0.338721 -6.167376,-7.032085 -5.630867,-8.410282 1.362071,-3.498916 14.823845,-1.840039 14.823845,2.241724 z"
       id="rect902"
       inkscape:connector-curvature="0"
       sodipodi:nodetypes="ssss" />
    <path
       style="display:inline;fill:none;stroke:#313131;stroke-width:4;stroke-linecap:round;stroke-linejoin:round;stroke-miterlimit:4;stroke-dasharray:none;stroke-opacity:1"
       d="m 79.58168,46.500965 c -0.449093,7.752726 -2.064751,10.743238 -5.971425,14.060096 -3.13897,2.665056 -3.193765,7.120925 -1.596564,9.405089"
       id="path890"
       inkscape:connector-curvature="0"
       sodipodi:nodetypes="csc" />
    <path
       style="color:#000000;font-style:normal;font-variant:normal;font-weight:normal;font-stretch:normal;font-size:medium;line-height:normal;font-family:sans-serif;font-variant-ligatures:normal;font-variant-position:normal;font-variant-caps:normal;font-variant-numeric:normal;font-variant-alternates:normal;font-feature-settings:normal;text-indent:0;text-align:start;text-decoration:none;text-decoration-line:none;text-decoration-style:solid;text-decoration-color:#000000;letter-spacing:normal;word-spacing:normal;text-transform:none;writing-mode:lr-tb;direction:ltr;text-orientation:mixed;dominant-baseline:auto;baseline-shift:baseline;text-anchor:start;white-space:normal;shape-padding:0;clip-rule:nonzero;display:inline;overflow:visible;visibility:visible;opacity:1;isolation:auto;mix-blend-mode:normal;color-interpolation:sRGB;color-interpolation-filters:linearRGB;solid-color:#000000;solid-opacity:1;vector-effect:none;fill:#313131;fill-opacity:1;fill-rule:nonzero;stroke:none;stroke-width:3.99999976;stroke-linecap:round;stroke-linejoin:round;stroke-miterlimit:4;stroke-dasharray:none;stroke-dashoffset:0;stroke-opacity:1;color-rendering:auto;image-rendering:auto;shape-rendering:auto;text-rendering:auto;enable-background:accumulate"
       d="m 105.28734,53.387021 c -1.87944,1.255553 -0.43851,4.131243 1.69001,3.134322 7.21732,-3.380319 11.56981,-2.556148 13.72117,-1.176482 1.77488,1.138222 4.9159,-0.336472 3.0077,-3.368297 -1.10924,-1.762376 -3.25788,-3.245563 -6.2454,-3.312195 -4.36228,0.170757 -6.93737,1.224667 -12.17348,4.722652 z"
       id="path852"
       inkscape:connector-curvature="0"
       sodipodi:nodetypes="sssscs" />
    <path
       style="opacity:1;fill:#ff8702;fill-opacity:1;fill-rule:evenodd;stroke:#313131;stroke-width:7;stroke-linecap:round;stroke-linejoin:round;stroke-miterlimit:4;stroke-dasharray:none;stroke-dashoffset:0;stroke-opacity:1;paint-order:markers stroke fill"
       d="m 66.224289,90.969585 c -0.910277,-0.816395 -6.252268,-0.709178 -6.163996,6.457285 0.09137,7.41801 -3.471567,6.41714 -8.620823,5.88872 -5.598096,-0.57448 -15.846691,-1.7509 -19.569314,-2.12851 -0.890288,-0.0903 -1.285864,0.10502 -1.367552,0.58582 -0.762853,4.48996 2.860522,5.1186 14.664743,7.03386 -2.164947,1.15772 -1.982815,4.45543 0.529777,5.06283 -2.095406,0.7617 -1.87787,4.26487 0.516972,4.90968 -2.597184,1.77975 -0.673441,5.31132 1.38698,5.4735 2.254066,0.17743 5.594788,0.21643 9.001917,0.21643 6.987932,0 12.067702,-2.73011 12.067702,-12.76671 0,-4.33094 -2.754952,-9.46911 -2.727572,-13.052635 0.01915,-2.518964 1.6588,-6.444771 0.281198,-7.68027 z"
       id="rect849"
       inkscape:connector-curvature="0"
       sodipodi:nodetypes="csssscccsssssc" />
    <path
       sodipodi:nodetypes="csssscccsssssc"
       inkscape:connector-curvature="0"
       id="path849"
       d="m 118.01,90.969585 c -0.91027,-0.816395 -6.25226,-0.709178 -6.16399,6.457285 0.0914,7.41801 -3.47157,6.41714 -8.62083,5.88872 -5.598092,-0.57448 -15.846687,-1.7509 -19.56931,-2.12851 -0.890288,-0.0903 -1.285864,0.10502 -1.367552,0.58582 -0.762853,4.48996 2.860522,5.1186 14.664743,7.03386 -2.164947,1.15772 -1.982815,4.45543 0.529777,5.06283 -2.095406,0.7617 -1.87787,4.26487 0.516972,4.90968 -2.597184,1.77975 -0.673441,5.31132 1.38698,5.4735 2.25407,0.17743 5.59479,0.21643 9.00192,0.21643 6.98793,0 12.0677,-2.73011 12.0677,-12.76671 0,-4.33094 -2.75495,-9.46911 -2.72757,-13.052635 0.0191,-2.518964 1.6588,-6.444771 0.2812,-7.68027 z"
       style="opacity:1;fill:#ff8702;fill-opacity:1;fill-rule:evenodd;stroke:#313131;stroke-width:7;stroke-linecap:round;stroke-linejoin:round;stroke-miterlimit:4;stroke-dasharray:none;stroke-dashoffset:0;stroke-opacity:1;paint-order:markers stroke fill" />
  </g>
  <g
     inkscape:groupmode="layer"
     id="layer6"
     inkscape:label="Whiskers"
     style="display:none">
    <path
       style="fill:none;fill-opacity:1;stroke:#313131;stroke-width:2.5;stroke-linecap:round;stroke-linejoin:round;stroke-miterlimit:4;stroke-dasharray:none;stroke-opacity:1"
       d="m 68.645975,77.025193 c 9.338035,-1.395359 20.51424,-0.625306 30.695296,1.011356"
       id="path943"
       inkscape:connector-curvature="0"
       sodipodi:nodetypes="cc" />
    <path
       sodipodi:nodetypes="cc"
       inkscape:connector-curvature="0"
       id="path945"
       d="m 67.228811,83.13089 c 11.440451,0.448873 21.054841,4.550435 30.034524,11.48183"
       style="fill:none;fill-opacity:1;stroke:#313131;stroke-width:2.5;stroke-linecap:round;stroke-linejoin:round;stroke-miterlimit:4;stroke-dasharray:none;stroke-opacity:1" />
    <path
       sodipodi:nodetypes="cc"
       inkscape:connector-curvature="0"
       id="path947"
       d="M 32.895393,71.456936 C 26.718997,67.627467 21.192825,65.440905 14.567884,63.58624"
       style="fill:none;fill-opacity:1;stroke:#313131;stroke-width:2.5;stroke-linecap:round;stroke-linejoin:round;stroke-miterlimit:4;stroke-dasharray:none;stroke-opacity:1" />
    <path
       style="fill:none;fill-opacity:1;stroke:#313131;stroke-width:2.5;stroke-linecap:round;stroke-linejoin:round;stroke-miterlimit:4;stroke-dasharray:none;stroke-opacity:1"
       d="M 32.16221,76.367993 C 24.397529,74.197356 17.839504,73.28738 10.803794,73.046759"
       id="path949"
       inkscape:connector-curvature="0"
       sodipodi:nodetypes="cc" />
  </g>
</svg>
