<?xml version="1.0" encoding="UTF-8" standalone="no"?>
<!-- Created with Inkscape (http://www.inkscape.org/) -->

<svg
   xmlns:dc="http://purl.org/dc/elements/1.1/"
   xmlns:cc="http://creativecommons.org/ns#"
   xmlns:rdf="http://www.w3.org/1999/02/22-rdf-syntax-ns#"
   xmlns:svg="http://www.w3.org/2000/svg"
   xmlns="http://www.w3.org/2000/svg"
   xmlns:xlink="http://www.w3.org/1999/xlink"
   xmlns:sodipodi="http://sodipodi.sourceforge.net/DTD/sodipodi-0.dtd"
   xmlns:inkscape="http://www.inkscape.org/namespaces/inkscape"
   width="128"
   height="128"
   viewBox="0 0 128 128"
   version="1.1"
   id="svg8"
   inkscape:version="0.92.4 5da689c313, 2019-01-14"
   sodipodi:docname="blobfoxpeekpolice.svg"
   inkscape:export-filename="/home/kevin/Encfs/Media-Enc/Projekte/Grafiken/2019.07.30 - blobfox/blobfoxpeekpolice.png"
   inkscape:export-xdpi="96"
   inkscape:export-ydpi="96">
  <defs
     id="defs2">
    <linearGradient
       inkscape:collect="always"
       id="linearGradient879">
      <stop
         style="stop-color:#ff7505;stop-opacity:1"
         offset="0"
         id="stop875" />
      <stop
         style="stop-color:#ff8702;stop-opacity:1"
         offset="1"
         id="stop877" />
    </linearGradient>
    <mask
       maskUnits="userSpaceOnUse"
       id="mask914">
      <path
         sodipodi:nodetypes="sssssssss"
         inkscape:connector-curvature="0"
         id="path916"
         d="m 154.91191,68.610466 c 0,13.30933 -2.85091,14.61151 -2.85091,22.03668 0,7.52238 3.27922,9.891904 1.87863,15.118954 -1.74673,6.51888 -11.67541,15.3198 -32.30034,19.24611 -19.5495,3.72157 -44.712872,3.71493 -57.603772,1.17936 -12.97147,-2.55141 -33.636043,-9.97066 -35.993433,-20.68009 -3.35292,-15.232034 0.95023,-36.744664 10.314153,-53.450134 13.12204,-23.41004 38.49929,-39.74165 76.385222,-32.80327 18.75365,3.43453 40.17044,20.22728 40.17045,49.35239 z"
         style="opacity:1;fill:#ffffff;fill-opacity:1;fill-rule:evenodd;stroke:none;stroke-width:2.79999995;stroke-linecap:round;stroke-linejoin:round;stroke-miterlimit:4;stroke-dasharray:none;stroke-dashoffset:0;stroke-opacity:1;paint-order:markers stroke fill" />
    </mask>
    <clipPath
       clipPathUnits="userSpaceOnUse"
       id="clipPath939">
      <path
         style="opacity:1;fill:#ffffff;fill-opacity:1;fill-rule:evenodd;stroke:none;stroke-width:2.79999995;stroke-linecap:round;stroke-linejoin:round;stroke-miterlimit:4;stroke-dasharray:none;stroke-dashoffset:0;stroke-opacity:1;paint-order:markers stroke fill"
         d="m 150.70195,0.51324812 c -3.5881,-1.83838902 -33.06651,6.51462968 -45.38553,27.09708688 5.48775,7.742314 19.19939,1.052482 24.75224,0.675897 -1.51761,2.342881 -3.95771,7.251483 -4.00944,10.319043 2.25571,0.870741 6.46398,0.348129 8.50111,-1.397205 1.40822,2.738472 0.2768,11.991364 8.03107,13.355 11.96243,-15.595326 13.61577,-47.2291846 8.11055,-50.04982188 z"
         id="path941"
         inkscape:connector-curvature="0"
         sodipodi:nodetypes="scccccs" />
    </clipPath>
    <clipPath
       clipPathUnits="userSpaceOnUse"
       id="clipPath846">
      <path
         sodipodi:nodetypes="ssssssscccccccccs"
         inkscape:connector-curvature="0"
         id="path848"
         d="m 391.79445,425.41973 c 1.65688,13.01782 -0.96948,14.64639 -0.0451,21.90893 0.93646,7.35762 4.43884,9.26701 3.71966,14.55393 -0.89694,6.59355 -9.51252,16.43773 -29.19693,22.84564 -18.65801,6.07378 -43.27107,9.19988 -56.19527,8.32464 -13.005,-0.88071 -34.14057,-5.56492 -37.77955,-15.74632 -5.17572,-14.481 -3.54688,-36.67033 3.43423,-53.56343 3.058,-7.39987 11.25258,-21.29807 21.35685,-27.6922 l 8.11698,-0.59557 -12.76711,-1.32585 c 5.83499,-2.87893 11.39007,-4.67336 15.7895,-5.33112 1.44139,0.88585 3.34146,1.6891 5.00507,2.25111 -3.5138,-1.72411 -8.61797,-10.20742 -11.06095,-13.14333 13.21468,-0.66879 24.87025,3.07218 30.03025,5.55927 l -4.32337,-6.20877 c 6.88088,0.77679 11.29124,4.58866 18.48127,4.89245 18.77046,1.02466 41.8087,14.78343 45.43449,43.27062 z"
         style="opacity:1;fill:url(#linearGradient850);fill-opacity:1;fill-rule:evenodd;stroke:none;stroke-width:2.79999995;stroke-linecap:round;stroke-linejoin:round;stroke-miterlimit:4;stroke-dasharray:none;stroke-dashoffset:0;stroke-opacity:1;paint-order:markers stroke fill" />
    </clipPath>
    <linearGradient
       inkscape:collect="always"
       xlink:href="#linearGradient879"
       id="linearGradient850"
       gradientUnits="userSpaceOnUse"
       gradientTransform="matrix(0.97809727,-0.12449018,0.12449018,0.97809727,231.7888,378.02587)"
       x1="114.28658"
       y1="112.44355"
       x2="95.348198"
       y2="85.856133" />
    <clipPath
       clipPathUnits="userSpaceOnUse"
       id="clipPath848">
      <path
         sodipodi:nodetypes="scccccs"
         inkscape:connector-curvature="0"
         id="path850"
         d="M 151.14447,0.33917988 C 146.26964,-2.2314866 116.36421,8.7225203 104.2178,29.016572 c 5.41086,7.633828 19.06431,-0.122979 24.53933,-0.494288 -1.49634,2.310053 -4.03617,8.310589 -4.08717,11.335166 2.22409,0.85854 9.31981,0.611108 12.13198,-2.270484 1.5001,5.35635 -1.15567,17.091196 6.48995,18.435725 10.36626,-17.966089 13.24747,-52.8385826 7.85258,-55.68351112 z"
         style="opacity:1;fill:#333333;fill-opacity:1;fill-rule:evenodd;stroke:none;stroke-width:2.79999995;stroke-linecap:round;stroke-linejoin:round;stroke-miterlimit:4;stroke-dasharray:none;stroke-dashoffset:0;stroke-opacity:1;paint-order:markers stroke fill" />
    </clipPath>
    <clipPath
       clipPathUnits="userSpaceOnUse"
       id="clipPath893">
      <path
         style="fill:#cbd4db"
         d="m -723.92106,460.4009 c -70.62091,-9.08671 -132.74309,-42.54567 -207.33092,-111.66829 -14.59354,-13.52424 -45.29674,-45.02534 -52.90233,-54.27712 -4.18519,-5.09107 -5.76883,-9.71098 -4.73743,-13.82041 0.3192,-1.27179 4.18535,-7.10056 8.59144,-12.95283 26.12679,-34.7022 38.88289,-61.56296 35.40413,-74.55115 -0.42305,-1.57951 -2.74197,-3.37335 -7.38033,-5.70919 -30.90234,-15.56217 -79.3892,-59.27128 -121.8298,-109.825031 -5.004,-5.96056 -10.2046,-11.7077 -11.5568,-12.77141 -4.2349,-3.33115 -10.6037,-4.92909 -25.1751,-6.31645 -20.0794,-1.91179 -24.7617,-4.43432 -30.9692,-16.68407 -2.2219,-4.38475 -2.4446,-6.01439 -2.4446,-17.88971 0,-12.12391 0.2164,-13.62653 3.0022,-20.8503405 7.5796,-19.6545395 26.4494,-39.1633195 44.6942,-46.2075595 4.9581,-1.91433 7.7704,-2.24617 19.3036,-2.27779 15.4909,-0.0425 17.5144,0.57211 30.3083,9.20536 25.5886,17.26698 56.59537,48.844 105.68573,107.62935 17.1946,20.59041 62.2951,77.093371 79.00599,98.980561 3.025,3.96201 55,67.16555 115.5,140.45231 60.5,73.28676 110.60014,134.37722 111.33364,135.75657 1.79925,3.38351 0.72303,6.97519 -2.59813,8.67076 -11.01826,5.62521 -59.48281,8.5061 -85.90459,5.10644 z M -972.08873,117.72235 c 13.32512,-7.48914 10.36308,-27.900101 -4.59547,-31.666711 -8.5402,-2.15044 -18.03515,2.70468 -20.62275,10.54519 -1.57168,4.762231 -0.69198,12.850961 1.75728,16.157921 5.44627,7.35349 15.44488,9.46888 23.46094,4.9636 z m -84.62757,-82.114171 c 7.6736,-2.96743 11.4551,-8.50272 11.4606,-16.77604 0.01,-9.9330305 -6.8741,-16.8978805 -16.6938,-16.8978805 -6.2295,0 -9.9943,1.65664 -13.6571,6.00955 -11.3,13.4293805 2.6963,33.9267005 18.8903,27.6643705 z"
         id="path895"
         inkscape:connector-curvature="0" />
    </clipPath>
    <clipPath
       clipPathUnits="userSpaceOnUse"
       id="clipPath899">
      <path
         style="fill:#cbd4db"
         d="m -847.03762,-136.22762 c -46.7846,-53.67571 -71.03422,-119.93749 -80.93235,-221.14672 -1.93663,-19.80217 -3.98802,-63.74301 -3.5346,-75.71109 0.24952,-6.58578 2.13194,-11.09222 5.63126,-13.48094 1.08297,-0.73927 7.84369,-2.5321 15.02384,-3.98408 42.57609,-8.60979 69.94705,-20.23084 75.9672,-32.25384 0.73212,-1.46213 0.18862,-4.34308 -1.72977,-9.16908 -12.78097,-32.15249 -20.02858,-97.02879 -18.21063,-163.01047 0.21433,-7.77961 0.13995,-15.53011 -0.16523,-17.22327 -0.95593,-5.30256 -4.65834,-10.7254 -14.63516,-21.43584 -13.74806,-14.759 -15.57539,-19.75379 -12.08623,-33.03593 1.24897,-4.75426 2.16421,-6.12088 10.04733,-15.0023 8.04815,-9.06733 9.20747,-10.04748 16.08627,-13.6008 18.71586,-9.66789 45.77877,-11.73206 64.09999,-4.88903 4.97888,1.85961 7.30245,3.4783 15.94899,11.11067 11.61368,10.25144 12.71904,12.05435 16.5565,27.00396 7.67519,29.90011 9.90321,74.09925 7.59421,150.65152 -0.80877,26.81352 -4.58664,99.01025 -6.618,126.47252 -0.36771,4.97121 -3.45223,86.74269 -6.85448,181.71439 -3.40225,94.9717 -6.48624,173.918244 -6.85331,175.43676 -0.90042,3.724874 -4.08956,5.69663 -7.69898,4.760062 -11.97458,-3.107156 -50.13307,-33.124512 -67.63685,-53.206492 z m 41.87649,-421.02511 c 14.93718,3.2445 26.27119,-13.9869 17.58422,-26.73376 -4.9596,-7.27748 -15.28371,-9.94936 -22.42367,-5.80325 -4.33673,2.5183 -9.0483,9.15174 -9.41177,13.25086 -0.80822,9.11495 5.26538,17.33435 14.25122,19.28615 z m -8.78264,-117.59008 c 7.70885,2.87461 14.21145,1.24508 19.70759,-4.93879 6.60127,-7.42216 6.07616,-17.20093 -1.26788,-23.71948 -4.65898,-4.13529 -8.57434,-5.39547 -14.20328,-4.57144 -17.36589,2.54247 -20.50483,27.16327 -4.23643,33.22971 z"
         id="path901"
         inkscape:connector-curvature="0" />
    </clipPath>
  </defs>
  <sodipodi:namedview
     id="base"
     pagecolor="#ffffff"
     bordercolor="#666666"
     borderopacity="1.0"
     inkscape:pageopacity="0.0"
     inkscape:pageshadow="2"
     inkscape:zoom="5.6568542"
     inkscape:cx="-31.932041"
     inkscape:cy="52.874602"
     inkscape:document-units="px"
     inkscape:current-layer="layer7"
     showgrid="false"
     units="px"
     fit-margin-top="0"
     fit-margin-left="0"
     fit-margin-right="0"
     fit-margin-bottom="0"
     inkscape:window-width="3840"
     inkscape:window-height="1981"
     inkscape:window-x="2880"
     inkscape:window-y="0"
     inkscape:window-maximized="1"
     showguides="false" />
  <metadata
     id="metadata5">
    <rdf:RDF>
      <cc:Work
         rdf:about="">
        <dc:format>image/svg+xml</dc:format>
        <dc:type
           rdf:resource="http://purl.org/dc/dcmitype/StillImage" />
        <dc:title />
      </cc:Work>
    </rdf:RDF>
  </metadata>
  <g
     inkscape:groupmode="layer"
     id="layer3"
     inkscape:label="Ear  back">
    <path
       style="opacity:1;fill:#313131;fill-opacity:1;fill-rule:evenodd;stroke:none;stroke-width:2.79999995;stroke-linecap:round;stroke-linejoin:round;stroke-miterlimit:4;stroke-dasharray:none;stroke-dashoffset:0;stroke-opacity:1;paint-order:markers stroke fill"
       d="M 0.74566353,21.659971 C 5.4699627,17.504476 26.582481,32.552496 43.788999,32.237233 L 20.313804,60.451782 C 11.639148,53.686196 -3.535768,25.425931 0.74566353,21.659971 Z"
       id="rect870"
       inkscape:connector-curvature="0"
       sodipodi:nodetypes="sccs" />
  </g>
  <g
     inkscape:groupmode="layer"
     id="layer4"
     inkscape:label="Body">
    <path
       style="opacity:1;fill:#ff8702;fill-opacity:1;fill-rule:evenodd;stroke:none;stroke-width:2.79999995;stroke-linecap:round;stroke-linejoin:round;stroke-miterlimit:4;stroke-dasharray:none;stroke-dashoffset:0;stroke-opacity:1;paint-order:markers stroke fill"
       d="m 123.70156,47.614396 c 4.00843,11.595249 1.91686,13.588343 4.15314,20.057242 2.26556,6.553592 5.83609,7.630335 6.19014,12.606015 0.44154,6.205402 -5.55783,16.863144 -22.344,26.495477 -15.910921,9.13012 -37.835553,16.7029 -49.829909,18.37629 C 49.801602,126.83329 29.563893,126.5932 24.284693,117.973 16.776081,105.71249 13.941332,85.080772 17.172669,68.300243 20.229102,52.427992 26.380385,40.580927 38.728184,36.771709 L 25.544372,38.036302 C 33.627196,32.78204 37.238241,30.565397 46.356694,31.586601 40.626579,29.673924 35.69901,23.592893 32.592497,21.293402 44.557061,18.151467 56.130052,19.895592 61.328062,21.183633 l -3.877851,-6.066269 c 6.048297,-0.219441 9.752987,2.697488 16.390657,1.598965 17.372807,-2.655932 41.088932,5.523926 49.860692,30.89807 z"
       id="path837"
       inkscape:connector-curvature="0"
       sodipodi:nodetypes="ssssssscccccccs" />
  </g>
  <g
     inkscape:groupmode="layer"
     id="layer5"
     inkscape:label="Ear front" />
  <g
     inkscape:label="Face"
     inkscape:groupmode="layer"
     id="layer1"
     transform="translate(-26.911905,0.03095311)">
    <ellipse
       style="opacity:1;fill:#313131;fill-opacity:1;fill-rule:evenodd;stroke:none;stroke-width:2.81259036;stroke-linecap:round;stroke-linejoin:round;stroke-miterlimit:4;stroke-dasharray:none;stroke-dashoffset:0;stroke-opacity:1;paint-order:markers stroke fill"
       id="path885"
       cx="84.355011"
       cy="98.775642"
       rx="8.2298679"
       ry="9.3320217"
       transform="matrix(0.8829712,-0.46942716,0.34747894,0.93768779,0,0)" />
    <ellipse
       transform="matrix(0.956959,-0.29022315,0.15311796,0.98820792,0,0)"
       ry="8.9836988"
       rx="7.6254625"
       cy="78.666153"
       cx="56.458115"
       id="ellipse887"
       style="opacity:1;fill:#313131;fill-opacity:1;fill-rule:evenodd;stroke:none;stroke-width:2.81394506;stroke-linecap:round;stroke-linejoin:round;stroke-miterlimit:4;stroke-dasharray:none;stroke-dashoffset:0;stroke-opacity:1;paint-order:markers stroke fill" />
    <path
       style="fill:none;fill-opacity:1;stroke:#313131;stroke-width:4.39999962;stroke-linecap:round;stroke-linejoin:round;stroke-miterlimit:4;stroke-dasharray:none;stroke-opacity:1"
       d="m 71.246487,91.237139 c 2.016834,3.387266 5.702916,7.323893 8.776039,9.710161 3.169924,-3.412671 4.276332,-8.224638 6.310326,-12.048064 2.047272,1.365133 7.426348,6.777919 11.614879,8.844439 3.258779,-3.739331 6.488939,-10.712945 7.369349,-12.382411"
       id="path889"
       inkscape:connector-curvature="0"
       sodipodi:nodetypes="ccccc" />
    <path
       style="opacity:1;fill:#313131;fill-opacity:1;fill-rule:evenodd;stroke:none;stroke-width:3.80000067;stroke-linecap:round;stroke-linejoin:round;stroke-miterlimit:4;stroke-dasharray:none;stroke-dashoffset:0;stroke-opacity:1;paint-order:markers stroke fill"
       d="m 91.594881,73.938412 c 0.515598,1.491473 -4.470591,8.852014 -7.107995,9.409412 -2.841404,0.60051 -8.656171,-4.933027 -8.595698,-6.50721 0.153528,-3.996491 14.283148,-7.01143 15.703693,-2.902202 z"
       id="rect902"
       inkscape:connector-curvature="0"
       sodipodi:nodetypes="ssss" />
    <path
       style="display:inline;fill:none;stroke:#313131;stroke-width:3.99999976;stroke-linecap:round;stroke-linejoin:round;stroke-miterlimit:4;stroke-dasharray:none;stroke-opacity:1"
       d="m 71.352971,58.70478 c 2.24601,7.961185 1.660251,11.534103 -1.118349,16.232882 -2.232578,3.775415 -0.736998,8.280336 1.665882,10.02401"
       id="path890"
       inkscape:connector-curvature="0"
       sodipodi:nodetypes="csc" />
    <path
       inkscape:connector-curvature="0"
       id="path871"
       d="m 37.983338,101.46237 59.999993,10.71429"
       style="fill:none;fill-opacity:1;stroke:#76726f;stroke-width:4;stroke-linecap:round;stroke-linejoin:round;stroke-miterlimit:4;stroke-dasharray:none;stroke-opacity:1" />
    <path
       style="fill:none;fill-opacity:0.97254902;stroke:#060505;stroke-width:4;stroke-linecap:round;stroke-linejoin:round;stroke-miterlimit:4;stroke-dasharray:none;stroke-opacity:0.97254902"
       d="m 37.269047,103.28956 59.999994,10.71429"
       id="path869"
       inkscape:connector-curvature="0" />
    <path
       style="fill:#ff8702;fill-opacity:1;stroke:#313131;stroke-width:4;stroke-linecap:round;stroke-linejoin:round;stroke-miterlimit:4;stroke-dasharray:none;stroke-opacity:1"
       d="M 78.950509,117.91827 C 81.28744,104.26746 69.807228,100.73984 62.969096,112.30135"
       id="path915"
       inkscape:connector-curvature="0"
       sodipodi:nodetypes="cc" />
    <rect
       style="opacity:1;fill:#ff8702;fill-opacity:1;fill-rule:evenodd;stroke:none;stroke-width:14.09573078;stroke-linecap:round;stroke-linejoin:round;stroke-miterlimit:4;stroke-dasharray:none;stroke-dashoffset:0;stroke-opacity:1;paint-order:stroke fill markers"
       id="rect844"
       width="19.444876"
       height="12.557711"
       x="53.497047"
       y="29.584145"
       transform="matrix(0.9426196,0.33386866,-0.48392288,0.87511065,26.911905,-0.03095311)" />
  </g>
  <g
     inkscape:groupmode="layer"
     id="layer6"
     inkscape:label="Whiskers"
     style="display:none">
    <path
       style="fill:none;fill-opacity:1;stroke:#313131;stroke-width:2.5;stroke-linecap:round;stroke-linejoin:round;stroke-miterlimit:4;stroke-dasharray:none;stroke-opacity:1"
       d="m 68.645975,77.025193 c 9.338035,-1.395359 20.51424,-0.625306 30.695296,1.011356"
       id="path943"
       inkscape:connector-curvature="0"
       sodipodi:nodetypes="cc" />
    <path
       sodipodi:nodetypes="cc"
       inkscape:connector-curvature="0"
       id="path945"
       d="m 67.228811,83.13089 c 11.440451,0.448873 21.054841,4.550435 30.034524,11.48183"
       style="fill:none;fill-opacity:1;stroke:#313131;stroke-width:2.5;stroke-linecap:round;stroke-linejoin:round;stroke-miterlimit:4;stroke-dasharray:none;stroke-opacity:1" />
    <path
       sodipodi:nodetypes="cc"
       inkscape:connector-curvature="0"
       id="path947"
       d="M 32.895393,71.456936 C 26.718997,67.627467 21.192825,65.440905 14.567884,63.58624"
       style="fill:none;fill-opacity:1;stroke:#313131;stroke-width:2.5;stroke-linecap:round;stroke-linejoin:round;stroke-miterlimit:4;stroke-dasharray:none;stroke-opacity:1" />
    <path
       style="fill:none;fill-opacity:1;stroke:#313131;stroke-width:2.5;stroke-linecap:round;stroke-linejoin:round;stroke-miterlimit:4;stroke-dasharray:none;stroke-opacity:1"
       d="M 32.16221,76.367993 C 24.397529,74.197356 17.839504,73.28738 10.803794,73.046759"
       id="path949"
       inkscape:connector-curvature="0"
       sodipodi:nodetypes="cc" />
  </g>
  <g
     inkscape:groupmode="layer"
     id="layer7"
     inkscape:label="Hat">
    <g
       id="g888"
       transform="matrix(0.25517853,-0.04714109,0.04714109,0.25517853,-154.93807,-21.565817)"
       style="stroke-width:3.85361838">
      <path
         style="opacity:0.2;fill:#000000;fill-opacity:1;fill-rule:evenodd;stroke:none;stroke-width:19.26809311;stroke-linecap:round;stroke-linejoin:round;stroke-miterlimit:4;stroke-dasharray:none;stroke-dashoffset:0;stroke-opacity:1;paint-order:fill markers stroke"
         d="m -50.273513,-92.170083 v -8.392857 l 238.901073,0.40483 v 7.988027 0.40483 C 161.00749,-70.60738 110.37569,-67.95771 70.060873,-67.9004 29.168247,-67.8423 -21.503453,-70.85868 -50.273513,-91.765253 Z"
         id="path880"
         inkscape:connector-curvature="0"
         sodipodi:nodetypes="cccccscc" />
      <path
         sodipodi:nodetypes="ccsssssssssc"
         inkscape:connector-curvature="0"
         id="path946"
         d="m 160.61635,-89.692737 -182.980073,-0.30122 c -10.86687,-20.429723 -52.45235,-31.994433 -52.45235,-47.009273 0,-7.98296 13.89746,-12.17208 25.24578,-31.50568 7.06629,-12.03852 11.77313,-30.00653 21.24751,-35.99078 8.8222,-5.57232 19.54959,-3.76279 49.82078,-12.54237 15.99571,-4.63926 35.16326,-14.93244 48.071316,-14.93243 12.30535,-1e-5 31.129057,11.26346 47.097447,16.10141 29.21422,8.85106 40.01581,5.42501 48.78298,11.20189 9.96578,6.56669 13.43117,23.98573 21.3882,36.68286 11.43034,18.23957 25.5134,24.04729 25.5134,31.66195 0,14.21782 -40.78538,26.13817 -51.73499,46.633643 z"
         style="opacity:1;fill:#014d87;fill-opacity:1;fill-rule:evenodd;stroke:none;stroke-width:19.2680912;stroke-linecap:round;stroke-linejoin:round;stroke-miterlimit:4;stroke-dasharray:none;stroke-dashoffset:0;stroke-opacity:1;paint-order:fill markers stroke" />
      <path
         sodipodi:nodetypes="cscccc"
         inkscape:connector-curvature="0"
         id="path942"
         d="m -50.273513,-127.31967 c 29.85133,-15.25834 79.44176,-22.35174 120.334386,-22.2936 40.314817,0.0573 88.934467,6.96314 118.566687,22.2936 v 18.73551 H -50.273513 Z"
         style="opacity:1;fill:#006dae;fill-opacity:1;fill-rule:evenodd;stroke:none;stroke-width:19.26809311;stroke-linecap:round;stroke-linejoin:round;stroke-miterlimit:4;stroke-dasharray:none;stroke-dashoffset:0;stroke-opacity:1;paint-order:fill markers stroke" />
      <path
         style="opacity:1;fill:#ffe12c;fill-opacity:1;fill-rule:evenodd;stroke:none;stroke-width:19.26809311;stroke-linecap:round;stroke-linejoin:round;stroke-miterlimit:4;stroke-dasharray:none;stroke-dashoffset:0;stroke-opacity:1;paint-order:fill markers stroke"
         d="m -50.273513,-108.58416 c 29.31562,-11.86548 79.44176,-17.70888 120.334386,-17.65075 40.314817,0.0573 89.827327,6.78457 118.566687,17.65075 v 8.02122 H -50.273513 Z"
         id="path940"
         inkscape:connector-curvature="0"
         sodipodi:nodetypes="cscccc" />
      <path
         sodipodi:nodetypes="csccscc"
         inkscape:connector-curvature="0"
         id="path938"
         d="m -50.273513,-100.56294 c 31.08339,-9.08756 79.44176,-13.55469 120.334386,-13.49656 40.314817,0.0573 87.554487,5.15576 118.566687,13.49656 v 0.40483 c -27.62007,21.157873 -78.25187,23.807543 -118.566687,23.864853 -40.892626,0.0581 -91.564326,-2.95828 -120.334386,-23.864853 z"
         style="opacity:1;fill:#302c3b;fill-opacity:1;fill-rule:evenodd;stroke:none;stroke-width:19.26809311;stroke-linecap:round;stroke-linejoin:round;stroke-miterlimit:4;stroke-dasharray:none;stroke-dashoffset:0;stroke-opacity:1;paint-order:fill markers stroke" />
      <path
         sodipodi:nodetypes="ssssssccsssccss"
         inkscape:connector-curvature="0"
         id="path968"
         d="m 97.090023,-166.27228 c 0,8.39579 -7.2221,16.86445 -14.6399,22.38839 -5.68175,4.23114 -11.31972,8.6707 -13.68249,8.6707 -2.395306,0 -7.990706,-4.66308 -14.239736,-9.02021 -7.40283,-5.16162 -14.08265,-13.22046 -14.08265,-22.03888 0,-7.27801 5.37297,-19.26006 5.37297,-24.15693 0,-4.61549 -1.47772,-6.15869 -4.33274,-8.76212 l 8.37638,-9.42933 c 0,0 2.9152,2.50147 8.4262,2.50147 5.89569,0 8.05364,-3.38225 10.700546,-3.38225 2.38608,0 4.22822,3.15291 10.71105,3.15291 6.10277,0 7.96138,-2.02734 7.96138,-2.02734 l 8.11675,8.84629 c -2.52737,2.52738 -4.46196,4.71905 -4.46196,9.41212 0,4.76428 5.7742,16.96138 5.7742,23.84518 z"
         style="opacity:1;fill:#ffe12c;fill-opacity:1;fill-rule:evenodd;stroke:none;stroke-width:19.90844727;stroke-linecap:round;stroke-linejoin:round;stroke-miterlimit:4;stroke-dasharray:none;stroke-dashoffset:0;stroke-opacity:1;paint-order:fill markers stroke" />
    </g>
    <g
       id="g915"
       transform="matrix(1.0371928,-0.35404807,0.35404807,1.0371928,-17.403294,24.982268)"
       style="stroke-width:0.9124456">
      <path
         style="opacity:0.2;fill:#000000;fill-opacity:1;fill-rule:evenodd;stroke:none;stroke-width:4.56222773;stroke-linecap:round;stroke-linejoin:round;stroke-miterlimit:4;stroke-dasharray:none;stroke-dashoffset:0;stroke-opacity:1;paint-order:fill markers stroke"
         d="m 32.732698,31.793013 0.109424,-1.949244 55.479634,3.208776 -0.104154,1.855222 -0.0053,0.09402 C 80.11961,39.794724 63.687667,41.367904 51.745729,40.120435 42.046627,39.107252 36.156764,36.858292 32.727421,31.887036 Z"
         id="path880-5"
         inkscape:connector-curvature="0"
         sodipodi:nodetypes="cccccscc" />
      <path
         sodipodi:nodetypes="ccssssssssscc"
         inkscape:connector-curvature="0"
         id="path946-3"
         d="m 81.679684,35.117926 -42.4933,-2.455618 C 36.928906,27.775816 27.421437,24.547723 27.617196,21.060522 c 0.104079,-1.854045 2.07169,-2.214187 4.959412,-6.556465 1.798098,-2.703821 2.264579,-6.4708232 4.543031,-7.7371422 2.12162,-1.1791503 2.659432,-0.221799 9.804396,-1.866189 3.775505,-0.86892 5.446615,-4.07021332 10.46173,-4.85540544 2.827983,-0.44276267 8.291967,2.47208154 11.937566,3.80389024 6.669615,2.4365521 10.435164,1.1760248 12.396025,2.6320122 2.228946,1.6550478 2.671846,5.2743722 4.87165,7.9781272 3.383478,4.158592 6.603047,5.243512 6.753022,6.577036 0.840374,7.47231 -8.854068,9.464222 -11.664344,14.081543 z"
         style="opacity:1;fill:#014d87;fill-opacity:1;fill-rule:evenodd;stroke:none;stroke-width:4.56222725;stroke-linecap:round;stroke-linejoin:round;stroke-miterlimit:4;stroke-dasharray:none;stroke-dashoffset:0;stroke-opacity:1;paint-order:fill markers stroke" />
      <path
         sodipodi:nodetypes="cscccc"
         inkscape:connector-curvature="0"
         id="path942-3"
         d="m 33.190969,23.62951 c 7.131923,-3.154559 18.741811,-4.155451 28.238394,-3.608796 9.362389,0.538929 20.564293,2.776705 27.246519,6.723549 L 88.43196,31.095612 32.947046,27.98086 Z"
         style="opacity:1;fill:#006dae;fill-opacity:1;fill-rule:evenodd;stroke:none;stroke-width:4.56222773;stroke-linecap:round;stroke-linejoin:round;stroke-miterlimit:4;stroke-dasharray:none;stroke-dashoffset:0;stroke-opacity:1;paint-order:fill markers stroke" />
      <path
         style="opacity:1;fill:#ffe12c;fill-opacity:1;fill-rule:evenodd;stroke:none;stroke-width:4.56222773;stroke-linecap:round;stroke-linejoin:round;stroke-miterlimit:4;stroke-dasharray:none;stroke-dashoffset:0;stroke-opacity:1;paint-order:fill markers stroke"
         d="m 32.946697,27.980838 c 6.963274,-2.373549 18.68128,-3.077145 28.177865,-2.530492 9.362388,0.538929 20.77399,2.746872 27.307047,5.645247 l -0.104575,1.86293 -55.484912,-3.114752 z"
         id="path940-8"
         inkscape:connector-curvature="0"
         sodipodi:nodetypes="cscccc" />
      <path
         sodipodi:nodetypes="csccscc"
         inkscape:connector-curvature="0"
         id="path938-0"
         d="m 32.842122,29.843769 c 7.337617,-1.705328 18.627116,-2.112332 28.123691,-1.56568 9.362398,0.538929 20.267362,2.338949 27.361221,4.680434 l -0.0053,0.09402 C 81.14813,36.709633 63.181225,39.583484 52.482762,38.351339 43.032924,37.262998 37.427967,35.571923 32.836844,29.937791 Z"
         style="opacity:1;fill:#302c3b;fill-opacity:1;fill-rule:evenodd;stroke:none;stroke-width:4.56222773;stroke-linecap:round;stroke-linejoin:round;stroke-miterlimit:4;stroke-dasharray:none;stroke-dashoffset:0;stroke-opacity:1;paint-order:fill markers stroke" />
      <path
         sodipodi:nodetypes="ssssssccsssccss"
         inkscape:connector-curvature="0"
         id="path968-4"
         d="m 63.908998,15.588849 c -0.109463,1.949942 -1.900034,3.873078 -3.697735,5.111113 -1.376974,0.948289 -2.746475,1.94525 -3.296152,1.930943 -0.557242,-0.0145 -1.798162,-1.131394 -3.195134,-2.181185 -1.654906,-1.243621 -3.103831,-3.155752 -2.98886,-5.203849 0.09489,-1.690337 1.501089,-4.440662 1.564932,-5.5779725 0.06018,-1.0719588 -0.263484,-1.4393177 -0.89373,-2.0612569 l 2.071626,-2.1392661 c 0,0 0.645581,0.5986232 1.927659,0.6319928 1.371577,0.0357 1.917701,-0.7367717 2.533485,-0.7207445 0.555091,0.014447 0.942544,0.7578715 2.450714,0.7971242 1.419754,0.036954 1.878572,-0.4226485 1.878572,-0.4226485 l 1.772946,2.1037174 c -0.620919,0.5716871 -1.099558,1.0689942 -1.160747,2.1589711 -0.06211,1.106514 1.122173,3.974283 1.032424,5.573061 z"
         style="opacity:1;fill:#ffe12c;fill-opacity:1;fill-rule:evenodd;stroke:none;stroke-width:4.71384907;stroke-linecap:round;stroke-linejoin:round;stroke-miterlimit:4;stroke-dasharray:none;stroke-dashoffset:0;stroke-opacity:1;paint-order:fill markers stroke" />
    </g>
  </g>
  <g
     inkscape:groupmode="layer"
     id="layer2"
     inkscape:label="Wall">
    <rect
       transform="translate(-26.911905,0.03095311)"
       style="opacity:1;fill:#9a4e08;fill-opacity:1;fill-rule:evenodd;stroke:none;stroke-width:4;stroke-linecap:round;stroke-linejoin:round;stroke-miterlimit:4;stroke-dasharray:none;stroke-dashoffset:0;stroke-opacity:1;paint-order:fill markers stroke"
       id="rect852"
       width="58"
       height="128"
       x="96.911903"
       y="-0.030953109" />
    <rect
       y="-0.030953109"
       x="96.911903"
       height="128"
       width="58"
       id="rect905"
       style="opacity:1;fill:#9a4e08;fill-opacity:1;fill-rule:evenodd;stroke:none;stroke-width:4;stroke-linecap:round;stroke-linejoin:round;stroke-miterlimit:4;stroke-dasharray:none;stroke-dashoffset:0;stroke-opacity:1;paint-order:fill markers stroke"
       transform="translate(-26.911905,0.03095311)" />
    <path
       style="color:#000000;font-style:normal;font-variant:normal;font-weight:normal;font-stretch:normal;font-size:medium;line-height:normal;font-family:sans-serif;font-variant-ligatures:normal;font-variant-position:normal;font-variant-caps:normal;font-variant-numeric:normal;font-variant-alternates:normal;font-feature-settings:normal;text-indent:0;text-align:start;text-decoration:none;text-decoration-line:none;text-decoration-style:solid;text-decoration-color:#000000;letter-spacing:normal;word-spacing:normal;text-transform:none;writing-mode:lr-tb;direction:ltr;text-orientation:mixed;dominant-baseline:auto;baseline-shift:baseline;text-anchor:start;white-space:normal;shape-padding:0;clip-rule:nonzero;display:inline;overflow:visible;visibility:visible;opacity:1;isolation:auto;mix-blend-mode:normal;color-interpolation:sRGB;color-interpolation-filters:linearRGB;solid-color:#000000;solid-opacity:1;vector-effect:none;fill:#2f2f2f;fill-opacity:1;fill-rule:nonzero;stroke:none;stroke-width:9;stroke-linecap:butt;stroke-linejoin:miter;stroke-miterlimit:4;stroke-dasharray:none;stroke-dashoffset:0;stroke-opacity:1;color-rendering:auto;image-rendering:auto;shape-rendering:auto;text-rendering:auto;enable-background:accumulate"
       d="M 81.035156 -6.4648438 L 81.035156 17.464844 L 70 17.464844 L 70 26.464844 L 108.16211 26.464844 L 108.16211 45.892578 L 70 45.892578 L 70 54.892578 L 81.035156 54.892578 L 81.035156 74.320312 L 70 74.320312 L 70 83.320312 L 108.16211 83.320312 L 108.16211 102.75 L 81.035156 102.75 L 70 102.75 L 70 111.75 L 81.035156 111.75 L 81.035156 135.67773 L 90.035156 135.67773 L 90.035156 111.75 L 117.16211 111.75 L 138.91211 111.75 L 138.91211 102.75 L 117.16211 102.75 L 117.16211 83.320312 L 138.91211 83.320312 L 138.91211 74.320312 L 90.035156 74.320312 L 90.035156 54.892578 L 138.91211 54.892578 L 138.91211 45.892578 L 117.16211 45.892578 L 117.16211 26.464844 L 138.91211 26.464844 L 138.91211 17.464844 L 90.035156 17.464844 L 90.035156 -6.4648438 L 81.035156 -6.4648438 z "
       id="path881" />
  </g>
</svg>
