<?xml version="1.0" encoding="UTF-8" standalone="no"?>
<!-- Created with Inkscape (http://www.inkscape.org/) -->

<svg
   xmlns:dc="http://purl.org/dc/elements/1.1/"
   xmlns:cc="http://creativecommons.org/ns#"
   xmlns:rdf="http://www.w3.org/1999/02/22-rdf-syntax-ns#"
   xmlns:svg="http://www.w3.org/2000/svg"
   xmlns="http://www.w3.org/2000/svg"
   xmlns:xlink="http://www.w3.org/1999/xlink"
   xmlns:sodipodi="http://sodipodi.sourceforge.net/DTD/sodipodi-0.dtd"
   xmlns:inkscape="http://www.inkscape.org/namespaces/inkscape"
   width="128"
   height="128"
   viewBox="0 0 128 128"
   version="1.1"
   id="svg8"
   inkscape:version="0.92.4 5da689c313, 2019-01-14"
   sodipodi:docname="blobfoxconfused.svg"
   inkscape:export-filename="/home/kevin/Encfs/Media-Enc/Projekte/Grafiken/2019.07.30 - blobfox/blobfoxconfused.svg.png"
   inkscape:export-xdpi="96"
   inkscape:export-ydpi="96">
  <defs
     id="defs2">
    <linearGradient
       inkscape:collect="always"
       id="linearGradient879">
      <stop
         style="stop-color:#ff7505;stop-opacity:1"
         offset="0"
         id="stop875" />
      <stop
         style="stop-color:#ff8702;stop-opacity:1"
         offset="1"
         id="stop877" />
    </linearGradient>
    <mask
       maskUnits="userSpaceOnUse"
       id="mask914">
      <path
         sodipodi:nodetypes="sssssssss"
         inkscape:connector-curvature="0"
         id="path916"
         d="m 154.91191,68.610466 c 0,13.30933 -2.85091,14.61151 -2.85091,22.03668 0,7.52238 3.27922,9.891904 1.87863,15.118954 -1.74673,6.51888 -11.67541,15.3198 -32.30034,19.24611 -19.5495,3.72157 -44.712872,3.71493 -57.603772,1.17936 -12.97147,-2.55141 -33.636043,-9.97066 -35.993433,-20.68009 -3.35292,-15.232034 0.95023,-36.744664 10.314153,-53.450134 13.12204,-23.41004 38.49929,-39.74165 76.385222,-32.80327 18.75365,3.43453 40.17044,20.22728 40.17045,49.35239 z"
         style="opacity:1;fill:#ffffff;fill-opacity:1;fill-rule:evenodd;stroke:none;stroke-width:2.79999995;stroke-linecap:round;stroke-linejoin:round;stroke-miterlimit:4;stroke-dasharray:none;stroke-dashoffset:0;stroke-opacity:1;paint-order:markers stroke fill" />
    </mask>
    <clipPath
       clipPathUnits="userSpaceOnUse"
       id="clipPath939">
      <path
         style="opacity:1;fill:#ffffff;fill-opacity:1;fill-rule:evenodd;stroke:none;stroke-width:2.79999995;stroke-linecap:round;stroke-linejoin:round;stroke-miterlimit:4;stroke-dasharray:none;stroke-dashoffset:0;stroke-opacity:1;paint-order:markers stroke fill"
         d="m 150.70195,0.51324812 c -3.5881,-1.83838902 -33.06651,6.51462968 -45.38553,27.09708688 5.48775,7.742314 19.19939,1.052482 24.75224,0.675897 -1.51761,2.342881 -3.95771,7.251483 -4.00944,10.319043 2.25571,0.870741 6.46398,0.348129 8.50111,-1.397205 1.40822,2.738472 0.2768,11.991364 8.03107,13.355 11.96243,-15.595326 13.61577,-47.2291846 8.11055,-50.04982188 z"
         id="path941"
         inkscape:connector-curvature="0"
         sodipodi:nodetypes="scccccs" />
    </clipPath>
    <clipPath
       clipPathUnits="userSpaceOnUse"
       id="clipPath846">
      <path
         sodipodi:nodetypes="ssssssscccccccccs"
         inkscape:connector-curvature="0"
         id="path848"
         d="m 391.79445,425.41973 c 1.65688,13.01782 -0.96948,14.64639 -0.0451,21.90893 0.93646,7.35762 4.43884,9.26701 3.71966,14.55393 -0.89694,6.59355 -9.51252,16.43773 -29.19693,22.84564 -18.65801,6.07378 -43.27107,9.19988 -56.19527,8.32464 -13.005,-0.88071 -34.14057,-5.56492 -37.77955,-15.74632 -5.17572,-14.481 -3.54688,-36.67033 3.43423,-53.56343 3.058,-7.39987 11.25258,-21.29807 21.35685,-27.6922 l 8.11698,-0.59557 -12.76711,-1.32585 c 5.83499,-2.87893 11.39007,-4.67336 15.7895,-5.33112 1.44139,0.88585 3.34146,1.6891 5.00507,2.25111 -3.5138,-1.72411 -8.61797,-10.20742 -11.06095,-13.14333 13.21468,-0.66879 24.87025,3.07218 30.03025,5.55927 l -4.32337,-6.20877 c 6.88088,0.77679 11.29124,4.58866 18.48127,4.89245 18.77046,1.02466 41.8087,14.78343 45.43449,43.27062 z"
         style="opacity:1;fill:url(#linearGradient850);fill-opacity:1;fill-rule:evenodd;stroke:none;stroke-width:2.79999995;stroke-linecap:round;stroke-linejoin:round;stroke-miterlimit:4;stroke-dasharray:none;stroke-dashoffset:0;stroke-opacity:1;paint-order:markers stroke fill" />
    </clipPath>
    <linearGradient
       inkscape:collect="always"
       xlink:href="#linearGradient879"
       id="linearGradient850"
       gradientUnits="userSpaceOnUse"
       gradientTransform="matrix(0.97809727,-0.12449018,0.12449018,0.97809727,231.7888,378.02587)"
       x1="114.28658"
       y1="112.44355"
       x2="95.348198"
       y2="85.856133" />
    <clipPath
       clipPathUnits="userSpaceOnUse"
       id="clipPath848">
      <path
         sodipodi:nodetypes="scccccs"
         inkscape:connector-curvature="0"
         id="path850"
         d="M 151.14447,0.33917988 C 146.26964,-2.2314866 116.36421,8.7225203 104.2178,29.016572 c 5.41086,7.633828 19.06431,-0.122979 24.53933,-0.494288 -1.49634,2.310053 -4.03617,8.310589 -4.08717,11.335166 2.22409,0.85854 9.31981,0.611108 12.13198,-2.270484 1.5001,5.35635 -1.15567,17.091196 6.48995,18.435725 10.36626,-17.966089 13.24747,-52.8385826 7.85258,-55.68351112 z"
         style="opacity:1;fill:#333333;fill-opacity:1;fill-rule:evenodd;stroke:none;stroke-width:2.79999995;stroke-linecap:round;stroke-linejoin:round;stroke-miterlimit:4;stroke-dasharray:none;stroke-dashoffset:0;stroke-opacity:1;paint-order:markers stroke fill" />
    </clipPath>
  </defs>
  <sodipodi:namedview
     id="base"
     pagecolor="#ffffff"
     bordercolor="#666666"
     borderopacity="1.0"
     inkscape:pageopacity="0.0"
     inkscape:pageshadow="2"
     inkscape:zoom="7.919596"
     inkscape:cx="3.5118422"
     inkscape:cy="122.62599"
     inkscape:document-units="px"
     inkscape:current-layer="layer1"
     showgrid="false"
     units="px"
     fit-margin-top="0"
     fit-margin-left="0"
     fit-margin-right="0"
     fit-margin-bottom="0"
     inkscape:window-width="3840"
     inkscape:window-height="1981"
     inkscape:window-x="2880"
     inkscape:window-y="0"
     inkscape:window-maximized="1"
     showguides="true" />
  <metadata
     id="metadata5">
    <rdf:RDF>
      <cc:Work
         rdf:about="">
        <dc:format>image/svg+xml</dc:format>
        <dc:type
           rdf:resource="http://purl.org/dc/dcmitype/StillImage" />
        <dc:title />
      </cc:Work>
    </rdf:RDF>
  </metadata>
  <g
     inkscape:groupmode="layer"
     id="layer3"
     inkscape:label="Ear  back">
    <path
       style="opacity:1;fill:#313131;fill-opacity:1;fill-rule:evenodd;stroke:none;stroke-width:2.79999995;stroke-linecap:round;stroke-linejoin:round;stroke-miterlimit:4;stroke-dasharray:none;stroke-dashoffset:0;stroke-opacity:1;paint-order:markers stroke fill"
       d="m 21.161363,21.283422 c 5.203356,-2.130314 18.641106,16.743248 33.26553,21.500771 L 26.362279,59.759733 C 21.011141,51.512879 16.44578,23.214046 21.161363,21.283422 Z"
       id="rect870"
       inkscape:connector-curvature="0"
       sodipodi:nodetypes="sccs" />
  </g>
  <g
     inkscape:groupmode="layer"
     id="layer4"
     inkscape:label="Body">
    <path
       style="opacity:1;fill:#ff8702;fill-opacity:1;fill-rule:evenodd;stroke:none;stroke-width:2.79999995;stroke-linecap:round;stroke-linejoin:round;stroke-miterlimit:4;stroke-dasharray:none;stroke-dashoffset:0;stroke-opacity:1;paint-order:markers stroke fill"
       d="m 117.43723,79.099948 c 0,10.964328 -2.3486,12.03707 -2.3486,18.153983 0,6.196999 2.70144,8.149029 1.54764,12.455099 -1.43898,5.37031 -9.61829,12.62057 -26.609269,15.85509 C 73.921977,128.63 53.192204,128.62452 42.572585,126.5357 31.886584,124.43382 14.862961,118.32179 12.920924,109.49928 10.158762,96.951015 13.788688,78.696767 21.4178,65.466661 28.633971,52.95266 37.28888,44.742192 48.830674,45.130197 L 37.325751,42.348772 c 8.361338,-2.077883 12.058639,-2.89577 19.462333,0.629298 -4.28144,-3.288683 -6.667889,-9.863818 -8.620366,-12.713152 11.023257,0.839726 20.289083,5.692112 24.303472,8.297823 l -1.504117,-6.256156 c 5.172753,1.5807 7.450191,5.126214 13.377442,6.136494 15.449403,2.829387 33.092715,16.66339 33.092715,40.656869 z"
       id="path837"
       inkscape:connector-curvature="0"
       sodipodi:nodetypes="ssssssscccccccs" />
  </g>
  <g
     inkscape:label="Face"
     inkscape:groupmode="layer"
     id="layer1"
     transform="translate(-26.911905,0.03095311)">
    <path
       style="opacity:1;fill:#313131;fill-opacity:1;fill-rule:evenodd;stroke:none;stroke-width:3.80000067;stroke-linecap:round;stroke-linejoin:round;stroke-miterlimit:4;stroke-dasharray:none;stroke-dashoffset:0;stroke-opacity:1;paint-order:markers stroke fill"
       d="m 86.801007,84.100006 c 0,1.410217 -6.360321,6.171004 -8.750578,5.87173 -2.575138,-0.322421 -5.870578,-6.693704 -5.359887,-8.005581 1.296521,-3.330552 14.110465,-1.751499 14.110465,2.133851 z"
       id="rect902"
       inkscape:connector-curvature="0"
       sodipodi:nodetypes="ssss" />
    <path
       style="display:inline;fill:none;stroke:#313131;stroke-width:4;stroke-linecap:round;stroke-linejoin:round;stroke-miterlimit:4;stroke-dasharray:none;stroke-opacity:1"
       d="m 74.74362,70.360328 c -1.458515,4.238526 -3.298908,5.82035 -6.274928,8.347072 -2.987908,2.536817 -3.040068,6.77827 -1.519731,8.952521"
       id="path890"
       inkscape:connector-curvature="0"
       sodipodi:nodetypes="csc" />
    <path
       style="color:#000000;font-style:normal;font-variant:normal;font-weight:normal;font-stretch:normal;font-size:medium;line-height:normal;font-family:sans-serif;font-variant-ligatures:normal;font-variant-position:normal;font-variant-caps:normal;font-variant-numeric:normal;font-variant-alternates:normal;font-feature-settings:normal;text-indent:0;text-align:start;text-decoration:none;text-decoration-line:none;text-decoration-style:solid;text-decoration-color:#000000;letter-spacing:normal;word-spacing:normal;text-transform:none;writing-mode:lr-tb;direction:ltr;text-orientation:mixed;dominant-baseline:auto;baseline-shift:baseline;text-anchor:start;white-space:normal;shape-padding:0;clip-rule:nonzero;display:inline;overflow:visible;visibility:visible;opacity:1;isolation:auto;mix-blend-mode:normal;color-interpolation:sRGB;color-interpolation-filters:linearRGB;solid-color:#000000;solid-opacity:1;vector-effect:none;fill:#313131;fill-opacity:1;fill-rule:nonzero;stroke:none;stroke-width:3.99999928;stroke-linecap:round;stroke-linejoin:round;stroke-miterlimit:4;stroke-dasharray:none;stroke-dashoffset:0;stroke-opacity:1;color-rendering:auto;image-rendering:auto;shape-rendering:auto;text-rendering:auto;enable-background:accumulate"
       d="m 98.223275,71.239937 c -1.78898,1.195136 -0.417382,3.93245 1.6087,2.983499 6.869995,-3.217659 11.013045,-2.433147 13.060865,-1.119871 1.68946,1.083452 4.67931,-0.320279 2.86295,-3.206215 -1.05586,-1.677571 -3.10111,-3.089387 -5.94485,-3.152812 -4.15237,0.162538 -6.60352,1.165735 -11.587665,4.495399 z"
       id="path852"
       inkscape:connector-curvature="0"
       sodipodi:nodetypes="sssscs" />
    <path
       sodipodi:nodetypes="sssscs"
       inkscape:connector-curvature="0"
       id="path858"
       d="m 76.084964,69.213802 c 1.226039,1.767947 -1.053852,3.811533 -2.590758,2.185667 -5.211306,-5.51293 -9.353391,-6.302471 -11.740164,-5.831705 -1.969089,0.388379 -4.235834,-2.014032 -1.487651,-4.032768 1.597515,-1.173469 4.018009,-1.736863 6.686889,-0.752965 3.803435,1.674022 5.71591,3.506248 9.131684,8.431771 z"
       style="color:#000000;font-style:normal;font-variant:normal;font-weight:normal;font-stretch:normal;font-size:medium;line-height:normal;font-family:sans-serif;font-variant-ligatures:normal;font-variant-position:normal;font-variant-caps:normal;font-variant-numeric:normal;font-variant-alternates:normal;font-feature-settings:normal;text-indent:0;text-align:start;text-decoration:none;text-decoration-line:none;text-decoration-style:solid;text-decoration-color:#000000;letter-spacing:normal;word-spacing:normal;text-transform:none;writing-mode:lr-tb;direction:ltr;text-orientation:mixed;dominant-baseline:auto;baseline-shift:baseline;text-anchor:start;white-space:normal;shape-padding:0;clip-rule:nonzero;display:inline;overflow:visible;visibility:visible;opacity:1;isolation:auto;mix-blend-mode:normal;color-interpolation:sRGB;color-interpolation-filters:linearRGB;solid-color:#000000;solid-opacity:1;vector-effect:none;fill:#313131;fill-opacity:1;fill-rule:nonzero;stroke:none;stroke-width:3.99999928;stroke-linecap:round;stroke-linejoin:round;stroke-miterlimit:4;stroke-dasharray:none;stroke-dashoffset:0;stroke-opacity:1;color-rendering:auto;image-rendering:auto;shape-rendering:auto;text-rendering:auto;enable-background:accumulate" />
    <path
       style="fill:none;fill-opacity:1;stroke:#313131;stroke-width:4.39999962;stroke-linecap:round;stroke-linejoin:round;stroke-miterlimit:4;stroke-dasharray:none;stroke-opacity:1"
       d="m 69.351613,102.26524 c 3.673916,-1.95691 6.382726,-4.43225 9.217125,-7.067771 1.330604,1.750826 4.873766,6.310841 7.808169,9.279331"
       id="path889-3"
       inkscape:connector-curvature="0"
       sodipodi:nodetypes="ccc" />
    <g
       aria-label="?"
       transform="matrix(1.4398702,-0.26111027,0.26111027,1.4398702,-36.729184,-1.9638989)"
       style="font-style:normal;font-variant:normal;font-weight:normal;font-stretch:normal;font-size:24px;line-height:1.25;font-family:'Agency FB';-inkscape-font-specification:'Agency FB';letter-spacing:0px;word-spacing:0px;fill:#aa003f;fill-opacity:1;stroke:none;stroke-width:5.46689367;stroke-miterlimit:4;stroke-dasharray:none;stroke-opacity:1;paint-order:markers stroke fill"
       id="text866">
      <path
         d="m 69.498229,32.060664 h 5.973333 c 0,-2.576 5.973333,-4.293333 5.973333,-9.855999 0,-4.853334 -4.256,-7.466667 -8.512,-7.466667 -4.143999,0 -7.765333,2.165333 -9.407999,6.010667 l 5.152,2.949333 c 0.746666,-1.754667 1.978666,-3.136 4.031999,-3.136 1.904,0 2.762667,0.858667 2.762667,2.165333 0,3.285333 -5.973333,4.965333 -5.973333,9.333333 z m 2.986666,9.856 c 1.941334,0 3.546667,-1.605333 3.546667,-3.546667 0,-1.941333 -1.605333,-3.546666 -3.546667,-3.546666 -1.941333,0 -3.546666,1.605333 -3.546666,3.546666 0,1.941334 1.605333,3.546667 3.546666,3.546667 z"
         style="font-style:normal;font-variant:normal;font-weight:800;font-stretch:normal;font-size:37.33333206px;font-family:Gilroy;-inkscape-font-specification:'Gilroy Ultra-Bold';fill:#aa003f;fill-opacity:1;stroke:none;stroke-width:5.46689367;stroke-miterlimit:4;stroke-dasharray:none;stroke-opacity:1;paint-order:markers stroke fill"
         id="path861"
         inkscape:connector-curvature="0" />
    </g>
    <g
       aria-label="?"
       transform="matrix(1.4225405,0.3431955,-0.3431955,1.4225405,-43.791515,9.4684285)"
       style="font-style:normal;font-variant:normal;font-weight:normal;font-stretch:normal;font-size:24px;line-height:1.25;font-family:'Agency FB';-inkscape-font-specification:'Agency FB';letter-spacing:0px;word-spacing:0px;fill:#aa003f;fill-opacity:1;stroke:none;stroke-width:5.46689367;stroke-miterlimit:4;stroke-dasharray:none;stroke-opacity:1;paint-order:markers stroke fill"
       id="text859">
      <path
         d="m 97.309451,-13.331594 h 5.973329 c 0,-2.576 5.97334,-4.293333 5.97334,-9.856 0,-4.853333 -4.256,-7.466666 -8.512,-7.466666 -4.144002,0 -7.765336,2.165333 -9.408002,6.010666 l 5.152,2.949334 c 0.746666,-1.754667 1.978666,-3.136 4.032002,-3.136 1.904,0 2.76266,0.858666 2.76266,2.165333 0,3.285333 -5.973329,4.965333 -5.973329,9.333333 z m 2.986669,9.8559997 c 1.94133,0 3.54666,-1.6053333 3.54666,-3.5466666 0,-1.9413332 -1.60533,-3.5466661 -3.54666,-3.5466661 -1.941336,0 -3.546669,1.6053329 -3.546669,3.5466661 0,1.9413333 1.605333,3.5466666 3.546669,3.5466666 z"
         style="font-style:normal;font-variant:normal;font-weight:800;font-stretch:normal;font-size:37.33333206px;font-family:Gilroy;-inkscape-font-specification:'Gilroy Ultra-Bold';fill:#aa003f;fill-opacity:1;stroke:none;stroke-width:5.46689367;stroke-miterlimit:4;stroke-dasharray:none;stroke-opacity:1;paint-order:markers stroke fill"
         id="path864"
         inkscape:connector-curvature="0" />
    </g>
    <g
       id="g888"
       style="font-style:normal;font-variant:normal;font-weight:normal;font-stretch:normal;font-size:24px;line-height:1.25;font-family:'Agency FB';-inkscape-font-specification:'Agency FB';letter-spacing:0px;word-spacing:0px;fill:#ff0000;fill-opacity:1;stroke:#ffffff;stroke-width:5.94073343;stroke-miterlimit:4;stroke-dasharray:none;stroke-opacity:1;paint-order:markers stroke fill"
       transform="matrix(1.3250245,-0.24028381,0.24028381,1.3250245,-22.563788,-1.8097249)"
       aria-label="?" />
    <g
       id="g893"
       style="font-style:normal;font-variant:normal;font-weight:normal;font-stretch:normal;font-size:24px;line-height:1.25;font-family:'Agency FB';-inkscape-font-specification:'Agency FB';letter-spacing:0px;word-spacing:0px;fill:#ff0000;fill-opacity:1;stroke:#ffffff;stroke-width:5.94073343;stroke-miterlimit:4;stroke-dasharray:none;stroke-opacity:1;paint-order:markers stroke fill"
       transform="matrix(1.309077,0.31582183,-0.31582183,1.309077,-29.439607,8.7107468)"
       aria-label="?" />
  </g>
  <g
     inkscape:groupmode="layer"
     id="layer5"
     inkscape:label="Ear front">
    <path
       sodipodi:nodetypes="scccccs"
       inkscape:connector-curvature="0"
       id="path873"
       d="m 116.67067,21.37792 c -4.16085,-2.194146 -29.686383,7.155471 -40.053853,24.477153 4.618394,6.515729 16.272179,-0.104969 20.945374,-0.421895 -1.27721,1.971709 -3.445072,7.093377 -3.488603,9.674951 1.898359,0.732795 7.954882,0.521605 10.355162,-1.937932 1.2804,4.571831 -0.98641,14.58793 5.53944,15.735525 8.84805,-15.33467 11.30728,-45.099555 6.70248,-47.527802 z"
       style="opacity:1;fill:#313131;fill-opacity:1;fill-rule:evenodd;stroke:none;stroke-width:2.79999995;stroke-linecap:round;stroke-linejoin:round;stroke-miterlimit:4;stroke-dasharray:none;stroke-dashoffset:0;stroke-opacity:1;paint-order:markers stroke fill" />
    <path
       style="opacity:1;fill:#ebdccc;fill-opacity:1;fill-rule:evenodd;stroke:none;stroke-width:3.28397465;stroke-linecap:round;stroke-linejoin:round;stroke-miterlimit:4;stroke-dasharray:none;stroke-dashoffset:0;stroke-opacity:1;paint-order:markers stroke fill"
       d="m 148.35911,4.3356447 c -1.78771,-0.8484478 -11.00575,2.906299 -16.19325,7.6720183 -10.53309,9.676667 -1.07136,22.664674 -28.29413,20.811212 6.00859,14.75387 19.11803,20.290527 34.81182,24.002583 -2.67038,-18.583744 9.24321,-19.504661 10.95019,-39.43404 0.64348,-7.5127806 0.14869,-12.3762659 -1.27463,-13.0517733 z"
       id="path958"
       inkscape:connector-curvature="0"
       sodipodi:nodetypes="ssccss"
       clip-path="url(#clipPath848)"
       transform="matrix(0.85171713,0,0,0.85353454,-12.147262,21.17408)" />
  </g>
  <g
     inkscape:groupmode="layer"
     id="layer6"
     inkscape:label="Whiskers"
     style="display:none">
    <path
       style="fill:none;fill-opacity:1;stroke:#313131;stroke-width:2.5;stroke-linecap:round;stroke-linejoin:round;stroke-miterlimit:4;stroke-dasharray:none;stroke-opacity:1"
       d="m 68.645975,77.025193 c 9.338035,-1.395359 20.51424,-0.625306 30.695296,1.011356"
       id="path943"
       inkscape:connector-curvature="0"
       sodipodi:nodetypes="cc" />
    <path
       sodipodi:nodetypes="cc"
       inkscape:connector-curvature="0"
       id="path945"
       d="m 67.228811,83.13089 c 11.440451,0.448873 21.054841,4.550435 30.034524,11.48183"
       style="fill:none;fill-opacity:1;stroke:#313131;stroke-width:2.5;stroke-linecap:round;stroke-linejoin:round;stroke-miterlimit:4;stroke-dasharray:none;stroke-opacity:1" />
    <path
       sodipodi:nodetypes="cc"
       inkscape:connector-curvature="0"
       id="path947"
       d="M 32.895393,71.456936 C 26.718997,67.627467 21.192825,65.440905 14.567884,63.58624"
       style="fill:none;fill-opacity:1;stroke:#313131;stroke-width:2.5;stroke-linecap:round;stroke-linejoin:round;stroke-miterlimit:4;stroke-dasharray:none;stroke-opacity:1" />
    <path
       style="fill:none;fill-opacity:1;stroke:#313131;stroke-width:2.5;stroke-linecap:round;stroke-linejoin:round;stroke-miterlimit:4;stroke-dasharray:none;stroke-opacity:1"
       d="M 32.16221,76.367993 C 24.397529,74.197356 17.839504,73.28738 10.803794,73.046759"
       id="path949"
       inkscape:connector-curvature="0"
       sodipodi:nodetypes="cc" />
  </g>
</svg>
