<?xml version="1.0" encoding="UTF-8" standalone="no"?>
<svg
   xmlns:dc="http://purl.org/dc/elements/1.1/"
   xmlns:cc="http://creativecommons.org/ns#"
   xmlns:rdf="http://www.w3.org/1999/02/22-rdf-syntax-ns#"
   xmlns:svg="http://www.w3.org/2000/svg"
   xmlns="http://www.w3.org/2000/svg"
   xmlns:xlink="http://www.w3.org/1999/xlink"
   xmlns:sodipodi="http://sodipodi.sourceforge.net/DTD/sodipodi-0.dtd"
   xmlns:inkscape="http://www.inkscape.org/namespaces/inkscape"
   inkscape:export-ydpi="96"
   inkscape:export-xdpi="96"
   inkscape:export-filename="/home/kevin/Encfs/Media-Enc/Projekte/Grafiken/2019.07.30 - blobfox/blobfoxmelt3.png"
   sodipodi:docname="blobfoxpatmelt2.svg"
   inkscape:version="1.0 (4035a4fb49, 2020-05-01)"
   id="svg8"
   version="1.1"
   viewBox="0 0 128 128"
   height="128"
   width="128">
  <defs
     id="defs2">
    <linearGradient
       id="linearGradient879"
       inkscape:collect="always">
      <stop
         id="stop875"
         offset="0"
         style="stop-color:#ff7505;stop-opacity:1" />
      <stop
         id="stop877"
         offset="1"
         style="stop-color:#ff8702;stop-opacity:1" />
    </linearGradient>
    <mask
       id="mask914"
       maskUnits="userSpaceOnUse">
      <path
         style="opacity:1;fill:#ffffff;fill-opacity:1;fill-rule:evenodd;stroke:none;stroke-width:2.79999995;stroke-linecap:round;stroke-linejoin:round;stroke-miterlimit:4;stroke-dasharray:none;stroke-dashoffset:0;stroke-opacity:1;paint-order:markers stroke fill"
         d="m 154.91191,68.610466 c 0,13.30933 -2.85091,14.61151 -2.85091,22.03668 0,7.52238 3.27922,9.891904 1.87863,15.118954 -1.74673,6.51888 -11.67541,15.3198 -32.30034,19.24611 -19.5495,3.72157 -44.712872,3.71493 -57.603772,1.17936 -12.97147,-2.55141 -33.636043,-9.97066 -35.993433,-20.68009 -3.35292,-15.232034 0.95023,-36.744664 10.314153,-53.450134 13.12204,-23.41004 38.49929,-39.74165 76.385222,-32.80327 18.75365,3.43453 40.17044,20.22728 40.17045,49.35239 z"
         id="path916"
         inkscape:connector-curvature="0"
         sodipodi:nodetypes="sssssssss" />
    </mask>
    <clipPath
       id="clipPath939"
       clipPathUnits="userSpaceOnUse">
      <path
         sodipodi:nodetypes="scccccs"
         inkscape:connector-curvature="0"
         id="path941"
         d="m 150.70195,0.51324812 c -3.5881,-1.83838902 -33.06651,6.51462968 -45.38553,27.09708688 5.48775,7.742314 19.19939,1.052482 24.75224,0.675897 -1.51761,2.342881 -3.95771,7.251483 -4.00944,10.319043 2.25571,0.870741 6.46398,0.348129 8.50111,-1.397205 1.40822,2.738472 0.2768,11.991364 8.03107,13.355 11.96243,-15.595326 13.61577,-47.2291846 8.11055,-50.04982188 z"
         style="opacity:1;fill:#ffffff;fill-opacity:1;fill-rule:evenodd;stroke:none;stroke-width:2.79999995;stroke-linecap:round;stroke-linejoin:round;stroke-miterlimit:4;stroke-dasharray:none;stroke-dashoffset:0;stroke-opacity:1;paint-order:markers stroke fill" />
    </clipPath>
    <clipPath
       id="clipPath846"
       clipPathUnits="userSpaceOnUse">
      <path
         style="opacity:1;fill:url(#linearGradient850);fill-opacity:1;fill-rule:evenodd;stroke:none;stroke-width:2.79999995;stroke-linecap:round;stroke-linejoin:round;stroke-miterlimit:4;stroke-dasharray:none;stroke-dashoffset:0;stroke-opacity:1;paint-order:markers stroke fill"
         d="m 391.79445,425.41973 c 1.65688,13.01782 -0.96948,14.64639 -0.0451,21.90893 0.93646,7.35762 4.43884,9.26701 3.71966,14.55393 -0.89694,6.59355 -9.51252,16.43773 -29.19693,22.84564 -18.65801,6.07378 -43.27107,9.19988 -56.19527,8.32464 -13.005,-0.88071 -34.14057,-5.56492 -37.77955,-15.74632 -5.17572,-14.481 -3.54688,-36.67033 3.43423,-53.56343 3.058,-7.39987 11.25258,-21.29807 21.35685,-27.6922 l 8.11698,-0.59557 -12.76711,-1.32585 c 5.83499,-2.87893 11.39007,-4.67336 15.7895,-5.33112 1.44139,0.88585 3.34146,1.6891 5.00507,2.25111 -3.5138,-1.72411 -8.61797,-10.20742 -11.06095,-13.14333 13.21468,-0.66879 24.87025,3.07218 30.03025,5.55927 l -4.32337,-6.20877 c 6.88088,0.77679 11.29124,4.58866 18.48127,4.89245 18.77046,1.02466 41.8087,14.78343 45.43449,43.27062 z"
         id="path848"
         inkscape:connector-curvature="0"
         sodipodi:nodetypes="ssssssscccccccccs" />
    </clipPath>
    <linearGradient
       y2="85.856133"
       x2="95.348198"
       y1="112.44355"
       x1="114.28658"
       gradientTransform="matrix(0.97809727,-0.12449018,0.12449018,0.97809727,231.7888,378.02587)"
       gradientUnits="userSpaceOnUse"
       id="linearGradient850"
       xlink:href="#linearGradient879"
       inkscape:collect="always" />
    <clipPath
       id="clipPath893"
       clipPathUnits="userSpaceOnUse">
      <path
         sodipodi:nodetypes="scccccs"
         inkscape:connector-curvature="0"
         id="path895"
         d="m 126.85607,53.306664 c -4.54123,-4.487344 -32.331244,-1.572581 -51.692391,12.475493 4.297608,8.336608 16.80336,3.526855 22.292674,3.929666 -1.811455,2.081295 -5.222952,6.713951 -5.699773,9.707802 2.08766,1.165152 9.65067,3.057763 12.84933,0.594726 0.73491,5.525977 0.51381,9.190065 7.91685,11.601109 12.06341,-11.603827 18.18982,-34.498043 14.33331,-38.308796 z"
         style="opacity:1;fill:#313131;fill-opacity:1;fill-rule:evenodd;stroke:none;stroke-width:2.79999971;stroke-linecap:round;stroke-linejoin:round;stroke-miterlimit:4;stroke-dasharray:none;stroke-dashoffset:0;stroke-opacity:1;paint-order:markers stroke fill"
         inkscape:transform-center-x="26.079152"
         inkscape:transform-center-y="19.629101" />
    </clipPath>
  </defs>
  <sodipodi:namedview
     inkscape:document-rotation="0"
     showguides="false"
     inkscape:window-maximized="1"
     inkscape:window-y="0"
     inkscape:window-x="1536"
     inkscape:window-height="992"
     inkscape:window-width="1920"
     fit-margin-bottom="0"
     fit-margin-right="0"
     fit-margin-left="0"
     fit-margin-top="0"
     units="px"
     showgrid="false"
     inkscape:current-layer="layer3"
     inkscape:document-units="px"
     inkscape:cy="81.575852"
     inkscape:cx="-26.364595"
     inkscape:zoom="1.9999999"
     inkscape:pageshadow="2"
     inkscape:pageopacity="0.0"
     borderopacity="1.0"
     bordercolor="#666666"
     pagecolor="#ffffff"
     id="base" />
  <metadata
     id="metadata5">
    <rdf:RDF>
      <cc:Work
         rdf:about="">
        <dc:format>image/svg+xml</dc:format>
        <dc:type
           rdf:resource="http://purl.org/dc/dcmitype/StillImage" />
        <dc:title></dc:title>
      </cc:Work>
    </rdf:RDF>
  </metadata>
  <g
     inkscape:label="Ear  back"
     id="layer3"
     inkscape:groupmode="layer">
    <path
       sodipodi:nodetypes="sccs"
       inkscape:connector-curvature="0"
       id="rect870"
       d="m 28.446201,41.98531 c 7.690326,2.489095 8.485636,21.132213 22.837144,31.465617 l -36.804363,8.97953 C 12.568371,69.042473 22.789601,40.154463 28.446201,41.98531 Z"
       style="opacity:1;fill:#313131;fill-opacity:1;fill-rule:evenodd;stroke:none;stroke-width:2.79999971;stroke-linecap:round;stroke-linejoin:round;stroke-miterlimit:4;stroke-dasharray:none;stroke-dashoffset:0;stroke-opacity:1;paint-order:markers stroke fill" />
  </g>
  <g
     inkscape:label="Body"
     id="layer4"
     inkscape:groupmode="layer">
    <path
       style="opacity:1;fill:#ff8702;fill-opacity:1;fill-rule:evenodd;stroke:none;stroke-width:2.79999971;stroke-linecap:round;stroke-linejoin:round;stroke-miterlimit:4;stroke-dasharray:none;stroke-dashoffset:0;stroke-opacity:1;paint-order:markers stroke fill"
       d="m 124.65327,110.34967 c -0.32471,5.8194 -12.20912,10.93472 -32.354278,14.76544 -19.094738,3.63101 -43.672758,3.62453 -56.263788,1.15066 C 23.36547,123.77648 0.36318243,119.23282 0.16664808,110.10126 -0.03178977,100.88126 3.0842575,91.237929 8.7017583,83.755515 18.976205,70.070131 27.519124,65.386679 41.203519,65.846204 L 30.746594,62.428222 c 9.913527,-2.018954 12.24986,-2.106124 19.891537,0.869157 -5.076237,-3.894879 -5.210173,-7.494107 -7.52511,-10.868653 13.069598,0.99451 21.35999,2.553438 26.119606,5.639456 l -0.599432,-4.601989 c 6.13302,1.872069 7.318024,3.994923 14.04556,6.350336 12.809713,4.484875 24.712115,9.780402 33.041995,21.409849 6.54482,9.137298 9.45515,19.756842 8.93252,29.123292 z"
       id="path869"
       inkscape:connector-curvature="0"
       sodipodi:nodetypes="sssssccccccsss" />
  </g>
  <g
     inkscape:label="Ear front"
     id="layer5"
     inkscape:groupmode="layer">
    <path
       inkscape:transform-center-y="19.629101"
       inkscape:transform-center-x="26.079152"
       style="opacity:1;fill:#313131;fill-opacity:1;fill-rule:evenodd;stroke:none;stroke-width:2.79999971;stroke-linecap:round;stroke-linejoin:round;stroke-miterlimit:4;stroke-dasharray:none;stroke-dashoffset:0;stroke-opacity:1;paint-order:markers stroke fill"
       d="m 126.85607,53.306664 c -4.54123,-4.487344 -32.331244,-1.572581 -51.692391,12.475493 4.297608,8.336608 16.80336,3.526855 22.292674,3.929666 -1.811455,2.081295 -5.222952,6.713951 -5.699773,9.707802 2.08766,1.165152 9.65067,3.057763 12.84933,0.594726 0.73491,5.525977 0.51381,9.190065 7.91685,11.601109 12.06341,-11.603827 18.18982,-34.498043 14.33331,-38.308796 z"
       id="path873"
       inkscape:connector-curvature="0"
       sodipodi:nodetypes="scccccs" />
    <path
       transform="translate(-0.3,0.3)"
       inkscape:transform-center-y="-6.5075996"
       inkscape:transform-center-x="-8.4678488"
       clip-path="url(#clipPath893)"
       sodipodi:nodetypes="ssccss"
       inkscape:connector-curvature="0"
       id="path958"
       d="m 124.50568,57.071536 c -1.46007,-1.338673 -11.61665,0.704478 -17.37104,4.071573 -12.831081,7.507911 -14.305712,14.283771 -33.212693,7.352706 1.398958,15.899783 16.482115,22.459088 30.400943,30.632198 2.92339,-18.586008 11.17235,-11.655419 18.67986,-30.242395 2.83011,-7.006736 2.6654,-10.748272 1.50293,-11.814082 z"
       style="opacity:1;fill:#ebdccc;fill-opacity:1;fill-rule:evenodd;stroke:none;stroke-width:2.80000019;stroke-linecap:round;stroke-linejoin:round;stroke-miterlimit:4;stroke-dasharray:none;stroke-dashoffset:0;stroke-opacity:1;paint-order:markers stroke fill" />
  </g>
  <g
     transform="translate(-26.911905,0.03095311)"
     id="layer1"
     inkscape:groupmode="layer"
     inkscape:label="Face">
    <path
       sodipodi:nodetypes="ccccc"
       inkscape:connector-curvature="0"
       id="path889"
       d="m 57.912236,104.4601 c 1.515597,3.00167 3.783301,5.52956 6.279092,8.26341 4.120946,-2.22657 6.598467,-4.08301 9.6728,-6.9152 1.721784,1.62834 5.679042,5.44395 9.392905,8.15132 4.29728,-2.48747 9.502854,-5.72847 10.837382,-6.96685"
       style="fill:none;fill-opacity:1;stroke:#313131;stroke-width:4.39999962;stroke-linecap:round;stroke-linejoin:round;stroke-miterlimit:4;stroke-dasharray:none;stroke-opacity:1" />
    <path
       sodipodi:nodetypes="ssss"
       inkscape:connector-curvature="0"
       id="rect902"
       d="m 83.409977,93.572816 c 0.131466,1.497194 -6.875238,7.089004 -9.703101,6.973224 -3.04659,-0.12473 -7.500847,-6.610537 -7.024918,-8.046475 1.208267,-3.645512 16.365812,-3.051734 16.728019,1.073251 z"
       style="opacity:1;fill:#313131;fill-opacity:1;fill-rule:evenodd;stroke:none;stroke-width:3.79999995;stroke-linecap:round;stroke-linejoin:round;stroke-miterlimit:4;stroke-dasharray:none;stroke-dashoffset:0;stroke-opacity:1;paint-order:markers stroke fill" />
    <path
       sodipodi:nodetypes="csc"
       inkscape:connector-curvature="0"
       id="path890"
       d="m 70.995388,83.44444 c -1.436938,0.863868 -6.844001,2.544491 -9.88937,5.58986 -2.239931,2.239931 -2.710795,6.078398 -0.72717,8.481605"
       style="display:inline;fill:none;stroke:#313131;stroke-width:3.99999976;stroke-linecap:round;stroke-linejoin:round;stroke-miterlimit:4;stroke-dasharray:none;stroke-opacity:1" />
    <path
       transform="translate(26.911905,-0.03095311)"
       sodipodi:nodetypes="cc"
       inkscape:connector-curvature="0"
       id="path841"
       d="M 84.973977,89.228799 65.046091,85.649154"
       style="fill:none;stroke:#313131;stroke-width:3.99999976;stroke-linecap:round;stroke-linejoin:round;stroke-miterlimit:4;stroke-dasharray:none;stroke-opacity:1" />
    <path
       transform="translate(26.911905,-0.03095311)"
       sodipodi:nodetypes="cc"
       style="fill:none;stroke:#313131;stroke-width:3.99999976;stroke-linecap:round;stroke-linejoin:round;stroke-miterlimit:4;stroke-dasharray:none;stroke-opacity:1"
       d="M 44.083483,83.475393 23.839481,83.106712"
       id="path854"
       inkscape:connector-curvature="0" />
    <path
       transform="translate(26.911905,-0.03095311)"
       sodipodi:nodetypes="cc"
       style="fill:none;stroke:#313131;stroke-width:3.99999976;stroke-linecap:round;stroke-linejoin:round;stroke-miterlimit:4;stroke-dasharray:none;stroke-opacity:1"
       d="M 84.668103,87.589728 66.243883,84.277246"
       id="path858"
       inkscape:connector-curvature="0" />
    <path
       transform="translate(26.911905,-0.03095311)"
       sodipodi:nodetypes="cc"
       inkscape:connector-curvature="0"
       id="path860"
       d="M 43.409154,81.970668 24.644039,81.609331"
       style="fill:none;stroke:#313131;stroke-width:3.99999976;stroke-linecap:round;stroke-linejoin:round;stroke-miterlimit:4;stroke-dasharray:none;stroke-opacity:1" />
    <path
       sodipodi:nodetypes="csssssccssccssccsssc"
       inkscape:connector-curvature="0"
       id="path849-3"
       d="m 68.345457,37.11146 c 3.427511,-1.844432 5.604623,2.11623 2.306673,4.547294 -1.986996,1.464718 -3.059498,3.888241 -2.346761,5.294975 0.437142,0.86279 0.958224,1.152285 5.412465,0.611985 l 17.223773,-2.089249 c 3.672255,-0.445448 4.483125,4.173566 0.419482,4.632337 l -9.618927,1.085943 0.158292,1.51906 12.800811,-1.355673 c 4.000738,-0.423699 4.705934,4.003342 0.638517,4.479913 l -12.386833,1.451335 0.135821,1.391321 9.848176,-1.163339 c 4.613791,-0.545018 5.393454,3.859653 0.653487,4.490074 l -12.327698,1.639599 0.130749,1.331304 8.069072,-1.029379 c 4.165751,-0.53143 4.830004,4.39545 0.814132,4.976271 l -20.24644,2.928268 C 54.460019,74.105444 47.796448,49.619306 68.345457,37.11146 Z"
       style="display:inline;opacity:1;fill:#ffffff;fill-opacity:1;fill-rule:evenodd;stroke:#313131;stroke-width:7;stroke-linecap:round;stroke-linejoin:round;stroke-miterlimit:4;stroke-dasharray:none;stroke-dashoffset:0;stroke-opacity:1;paint-order:markers stroke fill" />
  </g>
  <g
     style="display:none"
     inkscape:label="Whiskers"
     id="layer6"
     inkscape:groupmode="layer">
    <path
       sodipodi:nodetypes="cc"
       inkscape:connector-curvature="0"
       id="path943"
       d="m 68.645975,77.025193 c 9.338035,-1.395359 20.51424,-0.625306 30.695296,1.011356"
       style="fill:none;fill-opacity:1;stroke:#313131;stroke-width:2.5;stroke-linecap:round;stroke-linejoin:round;stroke-miterlimit:4;stroke-dasharray:none;stroke-opacity:1" />
    <path
       style="fill:none;fill-opacity:1;stroke:#313131;stroke-width:2.5;stroke-linecap:round;stroke-linejoin:round;stroke-miterlimit:4;stroke-dasharray:none;stroke-opacity:1"
       d="m 67.228811,83.13089 c 11.440451,0.448873 21.054841,4.550435 30.034524,11.48183"
       id="path945"
       inkscape:connector-curvature="0"
       sodipodi:nodetypes="cc" />
    <path
       style="fill:none;fill-opacity:1;stroke:#313131;stroke-width:2.5;stroke-linecap:round;stroke-linejoin:round;stroke-miterlimit:4;stroke-dasharray:none;stroke-opacity:1"
       d="M 32.895393,71.456936 C 26.718997,67.627467 21.192825,65.440905 14.567884,63.58624"
       id="path947"
       inkscape:connector-curvature="0"
       sodipodi:nodetypes="cc" />
    <path
       sodipodi:nodetypes="cc"
       inkscape:connector-curvature="0"
       id="path949"
       d="M 32.16221,76.367993 C 24.397529,74.197356 17.839504,73.28738 10.803794,73.046759"
       style="fill:none;fill-opacity:1;stroke:#313131;stroke-width:2.5;stroke-linecap:round;stroke-linejoin:round;stroke-miterlimit:4;stroke-dasharray:none;stroke-opacity:1" />
  </g>
</svg>
