<?xml version="1.0" encoding="UTF-8" standalone="no"?>
<svg
   xmlns:dc="http://purl.org/dc/elements/1.1/"
   xmlns:cc="http://creativecommons.org/ns#"
   xmlns:rdf="http://www.w3.org/1999/02/22-rdf-syntax-ns#"
   xmlns:svg="http://www.w3.org/2000/svg"
   xmlns="http://www.w3.org/2000/svg"
   xmlns:xlink="http://www.w3.org/1999/xlink"
   xmlns:sodipodi="http://sodipodi.sourceforge.net/DTD/sodipodi-0.dtd"
   xmlns:inkscape="http://www.inkscape.org/namespaces/inkscape"
   inkscape:export-ydpi="96"
   inkscape:export-xdpi="96"
   inkscape:export-filename="/home/kevin/Encfs/Media-Enc/Projekte/Grafiken/2019.07.30 - blobfox/blobfoxo_o.png"
   sodipodi:docname="blobfoxinternalscreaming.svg"
   inkscape:version="1.0 (4035a4fb49, 2020-05-01)"
   id="svg8"
   version="1.1"
   viewBox="0 0 128 128"
   height="128"
   width="128">
  <defs
     id="defs2">
    <linearGradient
       inkscape:collect="always"
       id="linearGradient938">
      <stop
         style="stop-color:#313131;stop-opacity:1"
         offset="0"
         id="stop934" />
      <stop
         style="stop-color:#5d5d5d;stop-opacity:1"
         offset="1"
         id="stop936" />
    </linearGradient>
    <linearGradient
       inkscape:collect="always"
       id="linearGradient932">
      <stop
         style="stop-color:#313131;stop-opacity:1"
         offset="0"
         id="stop928" />
      <stop
         style="stop-color:#5d5d5d;stop-opacity:1"
         offset="1"
         id="stop930" />
    </linearGradient>
    <linearGradient
       inkscape:collect="always"
       id="linearGradient919">
      <stop
         style="stop-color:#cecece;stop-opacity:1"
         offset="0"
         id="stop915" />
      <stop
         style="stop-color:#ffffff;stop-opacity:1"
         offset="1"
         id="stop917" />
    </linearGradient>
    <linearGradient
       id="linearGradient909"
       inkscape:collect="always">
      <stop
         id="stop905"
         offset="0"
         style="stop-color:#cecece;stop-opacity:1" />
      <stop
         id="stop907"
         offset="1"
         style="stop-color:#ffffff;stop-opacity:1" />
    </linearGradient>
    <linearGradient
       inkscape:collect="always"
       id="linearGradient903">
      <stop
         style="stop-color:#cecece;stop-opacity:1"
         offset="0"
         id="stop899" />
      <stop
         style="stop-color:#ffffff;stop-opacity:1"
         offset="1"
         id="stop901" />
    </linearGradient>
    <linearGradient
       id="linearGradient893"
       inkscape:collect="always">
      <stop
         id="stop889"
         offset="0"
         style="stop-color:#cecece;stop-opacity:1" />
      <stop
         id="stop891"
         offset="1"
         style="stop-color:#ffffff;stop-opacity:1" />
    </linearGradient>
    <linearGradient
       id="linearGradient851"
       inkscape:collect="always">
      <stop
         id="stop847"
         offset="0"
         style="stop-color:#b86200;stop-opacity:1" />
      <stop
         id="stop849"
         offset="1"
         style="stop-color:#ff8702;stop-opacity:1" />
    </linearGradient>
    <linearGradient
       id="linearGradient879"
       inkscape:collect="always">
      <stop
         id="stop875"
         offset="0"
         style="stop-color:#ff7505;stop-opacity:1" />
      <stop
         id="stop877"
         offset="1"
         style="stop-color:#ff8702;stop-opacity:1" />
    </linearGradient>
    <mask
       id="mask914"
       maskUnits="userSpaceOnUse">
      <path
         style="opacity:1;fill:#ffffff;fill-opacity:1;fill-rule:evenodd;stroke:none;stroke-width:2.79999995;stroke-linecap:round;stroke-linejoin:round;stroke-miterlimit:4;stroke-dasharray:none;stroke-dashoffset:0;stroke-opacity:1;paint-order:markers stroke fill"
         d="m 154.91191,68.610466 c 0,13.30933 -2.85091,14.61151 -2.85091,22.03668 0,7.52238 3.27922,9.891904 1.87863,15.118954 -1.74673,6.51888 -11.67541,15.3198 -32.30034,19.24611 -19.5495,3.72157 -44.712872,3.71493 -57.603772,1.17936 -12.97147,-2.55141 -33.636043,-9.97066 -35.993433,-20.68009 -3.35292,-15.232034 0.95023,-36.744664 10.314153,-53.450134 13.12204,-23.41004 38.49929,-39.74165 76.385222,-32.80327 18.75365,3.43453 40.17044,20.22728 40.17045,49.35239 z"
         id="path916"
         inkscape:connector-curvature="0"
         sodipodi:nodetypes="sssssssss" />
    </mask>
    <clipPath
       id="clipPath939"
       clipPathUnits="userSpaceOnUse">
      <path
         sodipodi:nodetypes="scccccs"
         inkscape:connector-curvature="0"
         id="path941"
         d="m 150.70195,0.51324812 c -3.5881,-1.83838902 -33.06651,6.51462968 -45.38553,27.09708688 5.48775,7.742314 19.19939,1.052482 24.75224,0.675897 -1.51761,2.342881 -3.95771,7.251483 -4.00944,10.319043 2.25571,0.870741 6.46398,0.348129 8.50111,-1.397205 1.40822,2.738472 0.2768,11.991364 8.03107,13.355 11.96243,-15.595326 13.61577,-47.2291846 8.11055,-50.04982188 z"
         style="opacity:1;fill:#ffffff;fill-opacity:1;fill-rule:evenodd;stroke:none;stroke-width:2.79999995;stroke-linecap:round;stroke-linejoin:round;stroke-miterlimit:4;stroke-dasharray:none;stroke-dashoffset:0;stroke-opacity:1;paint-order:markers stroke fill" />
    </clipPath>
    <clipPath
       id="clipPath846"
       clipPathUnits="userSpaceOnUse">
      <path
         style="opacity:1;fill:url(#linearGradient850);fill-opacity:1;fill-rule:evenodd;stroke:none;stroke-width:2.79999995;stroke-linecap:round;stroke-linejoin:round;stroke-miterlimit:4;stroke-dasharray:none;stroke-dashoffset:0;stroke-opacity:1;paint-order:markers stroke fill"
         d="m 391.79445,425.41973 c 1.65688,13.01782 -0.96948,14.64639 -0.0451,21.90893 0.93646,7.35762 4.43884,9.26701 3.71966,14.55393 -0.89694,6.59355 -9.51252,16.43773 -29.19693,22.84564 -18.65801,6.07378 -43.27107,9.19988 -56.19527,8.32464 -13.005,-0.88071 -34.14057,-5.56492 -37.77955,-15.74632 -5.17572,-14.481 -3.54688,-36.67033 3.43423,-53.56343 3.058,-7.39987 11.25258,-21.29807 21.35685,-27.6922 l 8.11698,-0.59557 -12.76711,-1.32585 c 5.83499,-2.87893 11.39007,-4.67336 15.7895,-5.33112 1.44139,0.88585 3.34146,1.6891 5.00507,2.25111 -3.5138,-1.72411 -8.61797,-10.20742 -11.06095,-13.14333 13.21468,-0.66879 24.87025,3.07218 30.03025,5.55927 l -4.32337,-6.20877 c 6.88088,0.77679 11.29124,4.58866 18.48127,4.89245 18.77046,1.02466 41.8087,14.78343 45.43449,43.27062 z"
         id="path848"
         inkscape:connector-curvature="0"
         sodipodi:nodetypes="ssssssscccccccccs" />
    </clipPath>
    <linearGradient
       y2="85.856133"
       x2="95.348198"
       y1="112.44355"
       x1="114.28658"
       gradientTransform="matrix(0.97809727,-0.12449018,0.12449018,0.97809727,231.7888,378.02587)"
       gradientUnits="userSpaceOnUse"
       id="linearGradient850"
       xlink:href="#linearGradient879"
       inkscape:collect="always" />
    <clipPath
       id="clipPath848"
       clipPathUnits="userSpaceOnUse">
      <path
         style="opacity:1;fill:#333333;fill-opacity:1;fill-rule:evenodd;stroke:none;stroke-width:2.79999995;stroke-linecap:round;stroke-linejoin:round;stroke-miterlimit:4;stroke-dasharray:none;stroke-dashoffset:0;stroke-opacity:1;paint-order:markers stroke fill"
         d="M 151.14447,0.33917988 C 146.26964,-2.2314866 116.36421,8.7225203 104.2178,29.016572 c 5.41086,7.633828 19.06431,-0.122979 24.53933,-0.494288 -1.49634,2.310053 -4.03617,8.310589 -4.08717,11.335166 2.22409,0.85854 9.31981,0.611108 12.13198,-2.270484 1.5001,5.35635 -1.15567,17.091196 6.48995,18.435725 10.36626,-17.966089 13.24747,-52.8385826 7.85258,-55.68351112 z"
         id="path850"
         inkscape:connector-curvature="0"
         sodipodi:nodetypes="scccccs" />
    </clipPath>
    <linearGradient
       gradientUnits="userSpaceOnUse"
       y2="83.079971"
       x2="57.052391"
       y1="50.94643"
       x1="60.98214"
       id="linearGradient853"
       xlink:href="#linearGradient851"
       inkscape:collect="always" />
    <clipPath
       id="clipPath848-3"
       clipPathUnits="userSpaceOnUse">
      <path
         style="opacity:1;fill:#333333;fill-opacity:1;fill-rule:evenodd;stroke:none;stroke-width:2.79999995;stroke-linecap:round;stroke-linejoin:round;stroke-miterlimit:4;stroke-dasharray:none;stroke-dashoffset:0;stroke-opacity:1;paint-order:markers stroke fill"
         d="M 151.14447,0.33917988 C 146.26964,-2.2314866 116.36421,8.7225203 104.2178,29.016572 c 5.41086,7.633828 19.06431,-0.122979 24.53933,-0.494288 -1.49634,2.310053 -4.03617,8.310589 -4.08717,11.335166 2.22409,0.85854 9.31981,0.611108 12.13198,-2.270484 1.5001,5.35635 -1.15567,17.091196 6.48995,18.435725 10.36626,-17.966089 13.24747,-52.8385826 7.85258,-55.68351112 z"
         id="path850-6"
         inkscape:connector-curvature="0"
         sodipodi:nodetypes="scccccs" />
    </clipPath>
    <linearGradient
       gradientUnits="userSpaceOnUse"
       y2="75.213066"
       x2="93.25547"
       y1="45.628662"
       x1="93.41449"
       id="linearGradient895"
       xlink:href="#linearGradient893"
       inkscape:collect="always" />
    <linearGradient
       gradientUnits="userSpaceOnUse"
       y2="89.83136"
       x2="78.760925"
       y1="61.669888"
       x1="84.88546"
       id="linearGradient897"
       xlink:href="#linearGradient903"
       inkscape:collect="always" />
    <linearGradient
       gradientUnits="userSpaceOnUse"
       y2="75.213066"
       x2="93.25547"
       y1="45.628662"
       x1="93.41449"
       id="linearGradient911"
       xlink:href="#linearGradient909"
       inkscape:collect="always" />
    <linearGradient
       gradientUnits="userSpaceOnUse"
       y2="89.83136"
       x2="78.760925"
       y1="61.669888"
       x1="84.88546"
       id="linearGradient913"
       xlink:href="#linearGradient919"
       inkscape:collect="always" />
    <linearGradient
       gradientTransform="matrix(1.1018794,0,0,1.1018795,-6.2460098,-9.5300418)"
       gradientUnits="userSpaceOnUse"
       y2="91.666679"
       x2="85.204041"
       y1="85.031052"
       x1="87.837105"
       id="linearGradient924"
       xlink:href="#linearGradient938"
       inkscape:collect="always" />
    <linearGradient
       gradientTransform="matrix(1.1029639,0,0,1.1029638,-8.9608533,-11.649874)"
       gradientUnits="userSpaceOnUse"
       y2="95.875694"
       x2="79.869492"
       y1="89.613525"
       x1="83.067284"
       id="linearGradient926"
       xlink:href="#linearGradient932"
       inkscape:collect="always" />
  </defs>
  <sodipodi:namedview
     inkscape:document-rotation="0"
     showguides="false"
     inkscape:window-maximized="1"
     inkscape:window-y="0"
     inkscape:window-x="1536"
     inkscape:window-height="992"
     inkscape:window-width="1920"
     fit-margin-bottom="0"
     fit-margin-right="0"
     fit-margin-left="0"
     fit-margin-top="0"
     units="px"
     showgrid="false"
     inkscape:current-layer="layer3"
     inkscape:document-units="px"
     inkscape:cy="19.799272"
     inkscape:cx="-47.354662"
     inkscape:zoom="1.979899"
     inkscape:pageshadow="2"
     inkscape:pageopacity="0.0"
     borderopacity="1.0"
     bordercolor="#666666"
     pagecolor="#ffffff"
     id="base" />
  <metadata
     id="metadata5">
    <rdf:RDF>
      <cc:Work
         rdf:about="">
        <dc:format>image/svg+xml</dc:format>
        <dc:type
           rdf:resource="http://purl.org/dc/dcmitype/StillImage" />
        <dc:title></dc:title>
      </cc:Work>
    </rdf:RDF>
  </metadata>
  <g
     inkscape:label="Ear  back"
     id="layer3"
     inkscape:groupmode="layer">
    <path
       sodipodi:nodetypes="sccs"
       inkscape:connector-curvature="0"
       id="rect870"
       d="M 10.965096,0.26473472 C 17.193276,-2.2851553 33.277656,20.305645 50.782426,26.000185 l -33.59207,20.31895 C 10.785286,36.448025 5.3207556,2.5756047 10.965096,0.26473472 Z"
       style="opacity:1;fill:#313131;fill-opacity:1;fill-rule:evenodd;stroke:none;stroke-width:2.79999995;stroke-linecap:round;stroke-linejoin:round;stroke-miterlimit:4;stroke-dasharray:none;stroke-dashoffset:0;stroke-opacity:1;paint-order:markers stroke fill" />
  </g>
  <g
     inkscape:label="Body"
     id="layer4"
     inkscape:groupmode="layer">
    <path
       sodipodi:nodetypes="ssssssscccccccs"
       inkscape:connector-curvature="0"
       id="path837"
       d="m 126.19432,69.473163 c 0,13.12284 -2.81096,14.406769 -2.81096,21.727899 0,7.416978 3.23327,9.753298 1.85232,14.907108 -1.72226,6.42754 -11.51182,15.10513 -31.847749,18.97641 -19.275573,3.66944 -44.086349,3.66289 -56.796619,1.16284 C 23.801592,123.73177 3.4265838,116.41648 1.1022228,105.85712 -2.2037172,90.838512 2.1408218,68.990609 11.271853,53.155934 19.908648,38.178341 30.267421,28.351504 44.081412,28.815895 L 30.311551,25.486899 c 10.007408,-2.486949 14.432585,-3.465851 23.29382,0.753186 -5.124314,-3.936115 -7.980574,-11.805676 -10.31743,-15.215949 13.193371,1.00504 24.283329,6.8127 29.088019,9.931389 l -1.800227,-7.487786 c 6.191095,1.891889 8.916885,6.135396 16.011015,7.344567 18.490882,3.386399 39.607572,19.943858 39.607572,48.660857 z"
       style="opacity:1;fill:url(#linearGradient853);fill-opacity:1;fill-rule:evenodd;stroke:none;stroke-width:2.79999971;stroke-linecap:round;stroke-linejoin:round;stroke-miterlimit:4;stroke-dasharray:none;stroke-dashoffset:0;stroke-opacity:1;paint-order:markers stroke fill" />
  </g>
  <g
     inkscape:label="Ear front"
     id="layer5"
     inkscape:groupmode="layer">
    <path
       style="opacity:1;fill:#313131;fill-opacity:1;fill-rule:evenodd;stroke:none;stroke-width:2.79999995;stroke-linecap:round;stroke-linejoin:round;stroke-miterlimit:4;stroke-dasharray:none;stroke-dashoffset:0;stroke-opacity:1;paint-order:markers stroke fill"
       d="M 125.28543,0.37784472 C 120.30506,-2.2484453 89.75215,8.9426247 77.34276,29.675885 c 5.52801,7.79904 19.47707,-0.12564 25.07065,-0.50498 -1.52875,2.36004 -4.12358,8.49045 -4.17568,11.58047 2.27224,0.87712 9.52161,0.62434 12.39466,-2.31961 1.53257,5.47227 -1.18069,17.46109 6.63047,18.8347 10.59069,-18.3549 13.53429,-53.9821203 8.02257,-56.88862028 z"
       id="path873"
       inkscape:connector-curvature="0"
       sodipodi:nodetypes="scccccs" />
    <path
       transform="matrix(1.0194668,0,0,1.0216422,-28.903824,0.13385472)"
       clip-path="url(#clipPath848-3)"
       sodipodi:nodetypes="ssccss"
       inkscape:connector-curvature="0"
       id="path958"
       d="m 148.35911,4.3356447 c -1.78771,-0.8484478 -11.00575,2.906299 -16.19325,7.6720183 -10.53309,9.676667 -1.07136,22.664674 -28.29413,20.811212 6.00859,14.75387 19.11803,20.290527 34.81182,24.002583 -2.67038,-18.583744 9.24321,-19.504661 10.95019,-39.43404 0.64348,-7.5127806 0.14869,-12.3762659 -1.27463,-13.0517733 z"
       style="opacity:1;fill:#ebdccc;fill-opacity:1;fill-rule:evenodd;stroke:none;stroke-width:2.74360824;stroke-linecap:round;stroke-linejoin:round;stroke-miterlimit:4;stroke-dasharray:none;stroke-dashoffset:0;stroke-opacity:1;paint-order:markers stroke fill" />
  </g>
  <g
     transform="translate(-26.911905,0.03095311)"
     id="layer1"
     inkscape:groupmode="layer"
     inkscape:label="Face">
    <ellipse
       transform="matrix(0.98788676,-0.15517654,0.02204363,0.99975701,0,0)"
       ry="9.9818306"
       rx="8.8029327"
       cy="76.04274"
       cx="106.02323"
       id="path885"
       style="opacity:1;fill:url(#linearGradient897);fill-opacity:1;fill-rule:evenodd;stroke:url(#linearGradient913);stroke-width:9.04046822;stroke-linecap:round;stroke-linejoin:round;stroke-miterlimit:4;stroke-dasharray:none;stroke-dashoffset:0;stroke-opacity:1;paint-order:fill markers stroke" />
    <ellipse
       style="opacity:1;fill:url(#linearGradient895);fill-opacity:1;fill-rule:evenodd;stroke:url(#linearGradient911);stroke-width:9.0448246;stroke-linecap:round;stroke-linejoin:round;stroke-miterlimit:4;stroke-dasharray:none;stroke-dashoffset:0;stroke-opacity:1;paint-order:fill markers stroke"
       id="ellipse887"
       cx="72.233757"
       cy="52.485775"
       rx="8.1564407"
       ry="9.6092548"
       transform="matrix(0.99926374,0.03836632,-0.1781569,0.98400209,0,0)" />
    <path
       sodipodi:nodetypes="ssss"
       inkscape:connector-curvature="0"
       id="rect902"
       d="m 84.232152,75.459735 c 0,1.687965 -7.613015,7.386412 -10.474045,7.028194 -3.082323,-0.385924 -7.026815,-8.012061 -6.415541,-9.582318 1.551877,-3.986518 16.889586,-2.096464 16.889586,2.554124 z"
       style="opacity:1;fill:#313131;fill-opacity:1;fill-rule:evenodd;stroke:none;stroke-width:3.79999995;stroke-linecap:round;stroke-linejoin:round;stroke-miterlimit:4;stroke-dasharray:none;stroke-dashoffset:0;stroke-opacity:1;paint-order:markers stroke fill" />
    <path
       sodipodi:nodetypes="csc"
       inkscape:connector-curvature="0"
       id="path890"
       d="m 74.932708,54.62705 c -2.216309,8.959398 -8.192425,10.598893 -12.643505,14.37798 -3.576393,3.036453 -3.638824,8.113282 -1.819049,10.715762"
       style="display:inline;fill:none;stroke:#313131;stroke-width:3.99999976;stroke-linecap:round;stroke-linejoin:round;stroke-miterlimit:4;stroke-dasharray:none;stroke-opacity:1" />
    <ellipse
       style="opacity:1;fill:url(#linearGradient926);fill-opacity:1;fill-rule:evenodd;stroke:none;stroke-width:4.09439;stroke-linecap:round;stroke-linejoin:round;stroke-miterlimit:4;stroke-dasharray:none;stroke-dashoffset:0;stroke-opacity:1;paint-order:fill markers stroke"
       id="ellipse841"
       cx="102.97307"
       cy="100.22063"
       rx="5.7196627"
       ry="7.8628759"
       transform="matrix(0.92474091,-0.38059722,0.08725697,0.99618584,0,0)" />
    <ellipse
       transform="matrix(0.95022674,-0.31155922,0.01375907,0.99990534,0,0)"
       ry="7.5349765"
       rx="5.4811392"
       cy="75.741753"
       cx="64.019028"
       id="ellipse846"
       style="opacity:1;fill:url(#linearGradient924);fill-opacity:1;fill-rule:evenodd;stroke:none;stroke-width:4.09439;stroke-linecap:round;stroke-linejoin:round;stroke-miterlimit:4;stroke-dasharray:none;stroke-dashoffset:0;stroke-opacity:1;paint-order:fill markers stroke" />
    <path
       style="fill:none;fill-opacity:1;stroke:#313131;stroke-width:4.4;stroke-linecap:round;stroke-linejoin:round;stroke-miterlimit:4;stroke-dasharray:none;stroke-opacity:1"
       d="m 57.615905,85.836047 c 0.855114,4.129123 3.205731,9.396985 5.478503,12.883309 4.397219,-2.342171 7.197384,-6.820071 10.589803,-9.97446 1.592567,2.095526 5.138807,9.44733 8.650919,13.000244 4.601206,-2.641354 10.303767,-8.562343 11.777228,-9.942378"
       id="path889-3"
       inkscape:connector-curvature="0"
       sodipodi:nodetypes="ccccc" />
  </g>
  <g
     style="display:none"
     inkscape:label="Whiskers"
     id="layer6"
     inkscape:groupmode="layer">
    <path
       sodipodi:nodetypes="cc"
       inkscape:connector-curvature="0"
       id="path943"
       d="m 68.645975,77.025193 c 9.338035,-1.395359 20.51424,-0.625306 30.695296,1.011356"
       style="fill:none;fill-opacity:1;stroke:#313131;stroke-width:2.5;stroke-linecap:round;stroke-linejoin:round;stroke-miterlimit:4;stroke-dasharray:none;stroke-opacity:1" />
    <path
       style="fill:none;fill-opacity:1;stroke:#313131;stroke-width:2.5;stroke-linecap:round;stroke-linejoin:round;stroke-miterlimit:4;stroke-dasharray:none;stroke-opacity:1"
       d="m 67.228811,83.13089 c 11.440451,0.448873 21.054841,4.550435 30.034524,11.48183"
       id="path945"
       inkscape:connector-curvature="0"
       sodipodi:nodetypes="cc" />
    <path
       style="fill:none;fill-opacity:1;stroke:#313131;stroke-width:2.5;stroke-linecap:round;stroke-linejoin:round;stroke-miterlimit:4;stroke-dasharray:none;stroke-opacity:1"
       d="M 32.895393,71.456936 C 26.718997,67.627467 21.192825,65.440905 14.567884,63.58624"
       id="path947"
       inkscape:connector-curvature="0"
       sodipodi:nodetypes="cc" />
    <path
       sodipodi:nodetypes="cc"
       inkscape:connector-curvature="0"
       id="path949"
       d="M 32.16221,76.367993 C 24.397529,74.197356 17.839504,73.28738 10.803794,73.046759"
       style="fill:none;fill-opacity:1;stroke:#313131;stroke-width:2.5;stroke-linecap:round;stroke-linejoin:round;stroke-miterlimit:4;stroke-dasharray:none;stroke-opacity:1" />
  </g>
</svg>
