<?xml version="1.0" encoding="UTF-8" standalone="no"?>
<!-- Created with Inkscape (http://www.inkscape.org/) -->

<svg
   xmlns:dc="http://purl.org/dc/elements/1.1/"
   xmlns:cc="http://creativecommons.org/ns#"
   xmlns:rdf="http://www.w3.org/1999/02/22-rdf-syntax-ns#"
   xmlns:svg="http://www.w3.org/2000/svg"
   xmlns="http://www.w3.org/2000/svg"
   xmlns:xlink="http://www.w3.org/1999/xlink"
   xmlns:sodipodi="http://sodipodi.sourceforge.net/DTD/sodipodi-0.dtd"
   xmlns:inkscape="http://www.inkscape.org/namespaces/inkscape"
   width="128"
   height="128"
   viewBox="0 0 128 128"
   version="1.1"
   id="svg8"
   inkscape:version="0.92.4 5da689c313, 2019-01-14"
   sodipodi:docname="blobfoxfloofdevil.svg"
   inkscape:export-filename="/home/kevin/Encfs/Media-Enc/Projekte/Grafiken/2019.07.30 - blobfox/blobfox.png"
   inkscape:export-xdpi="96"
   inkscape:export-ydpi="96">
  <defs
     id="defs2">
    <linearGradient
       inkscape:collect="always"
       id="linearGradient879">
      <stop
         style="stop-color:#ff7505;stop-opacity:1"
         offset="0"
         id="stop875" />
      <stop
         style="stop-color:#ff8702;stop-opacity:1"
         offset="1"
         id="stop877" />
    </linearGradient>
    <mask
       maskUnits="userSpaceOnUse"
       id="mask914">
      <path
         sodipodi:nodetypes="sssssssss"
         inkscape:connector-curvature="0"
         id="path916"
         d="m 154.91191,68.610466 c 0,13.30933 -2.85091,14.61151 -2.85091,22.03668 0,7.52238 3.27922,9.891904 1.87863,15.118954 -1.74673,6.51888 -11.67541,15.3198 -32.30034,19.24611 -19.5495,3.72157 -44.712872,3.71493 -57.603772,1.17936 -12.97147,-2.55141 -33.636043,-9.97066 -35.993433,-20.68009 -3.35292,-15.232034 0.95023,-36.744664 10.314153,-53.450134 13.12204,-23.41004 38.49929,-39.74165 76.385222,-32.80327 18.75365,3.43453 40.17044,20.22728 40.17045,49.35239 z"
         style="opacity:1;fill:#ffffff;fill-opacity:1;fill-rule:evenodd;stroke:none;stroke-width:2.79999995;stroke-linecap:round;stroke-linejoin:round;stroke-miterlimit:4;stroke-dasharray:none;stroke-dashoffset:0;stroke-opacity:1;paint-order:markers stroke fill" />
    </mask>
    <clipPath
       clipPathUnits="userSpaceOnUse"
       id="clipPath939">
      <path
         style="opacity:1;fill:#ffffff;fill-opacity:1;fill-rule:evenodd;stroke:none;stroke-width:2.79999995;stroke-linecap:round;stroke-linejoin:round;stroke-miterlimit:4;stroke-dasharray:none;stroke-dashoffset:0;stroke-opacity:1;paint-order:markers stroke fill"
         d="m 150.70195,0.51324812 c -3.5881,-1.83838902 -33.06651,6.51462968 -45.38553,27.09708688 5.48775,7.742314 19.19939,1.052482 24.75224,0.675897 -1.51761,2.342881 -3.95771,7.251483 -4.00944,10.319043 2.25571,0.870741 6.46398,0.348129 8.50111,-1.397205 1.40822,2.738472 0.2768,11.991364 8.03107,13.355 11.96243,-15.595326 13.61577,-47.2291846 8.11055,-50.04982188 z"
         id="path941"
         inkscape:connector-curvature="0"
         sodipodi:nodetypes="scccccs" />
    </clipPath>
    <clipPath
       clipPathUnits="userSpaceOnUse"
       id="clipPath846">
      <path
         sodipodi:nodetypes="ssssssscccccccccs"
         inkscape:connector-curvature="0"
         id="path848"
         d="m 391.79445,425.41973 c 1.65688,13.01782 -0.96948,14.64639 -0.0451,21.90893 0.93646,7.35762 4.43884,9.26701 3.71966,14.55393 -0.89694,6.59355 -9.51252,16.43773 -29.19693,22.84564 -18.65801,6.07378 -43.27107,9.19988 -56.19527,8.32464 -13.005,-0.88071 -34.14057,-5.56492 -37.77955,-15.74632 -5.17572,-14.481 -3.54688,-36.67033 3.43423,-53.56343 3.058,-7.39987 11.25258,-21.29807 21.35685,-27.6922 l 8.11698,-0.59557 -12.76711,-1.32585 c 5.83499,-2.87893 11.39007,-4.67336 15.7895,-5.33112 1.44139,0.88585 3.34146,1.6891 5.00507,2.25111 -3.5138,-1.72411 -8.61797,-10.20742 -11.06095,-13.14333 13.21468,-0.66879 24.87025,3.07218 30.03025,5.55927 l -4.32337,-6.20877 c 6.88088,0.77679 11.29124,4.58866 18.48127,4.89245 18.77046,1.02466 41.8087,14.78343 45.43449,43.27062 z"
         style="opacity:1;fill:url(#linearGradient850);fill-opacity:1;fill-rule:evenodd;stroke:none;stroke-width:2.79999995;stroke-linecap:round;stroke-linejoin:round;stroke-miterlimit:4;stroke-dasharray:none;stroke-dashoffset:0;stroke-opacity:1;paint-order:markers stroke fill" />
    </clipPath>
    <linearGradient
       inkscape:collect="always"
       xlink:href="#linearGradient879"
       id="linearGradient850"
       gradientUnits="userSpaceOnUse"
       gradientTransform="matrix(0.97809727,-0.12449018,0.12449018,0.97809727,231.7888,378.02587)"
       x1="114.28658"
       y1="112.44355"
       x2="95.348198"
       y2="85.856133" />
    <clipPath
       clipPathUnits="userSpaceOnUse"
       id="clipPath848">
      <path
         sodipodi:nodetypes="scccccs"
         inkscape:connector-curvature="0"
         id="path850"
         d="M 151.14447,0.33917988 C 146.26964,-2.2314866 116.36421,8.7225203 104.2178,29.016572 c 5.41086,7.633828 19.06431,-0.122979 24.53933,-0.494288 -1.49634,2.310053 -4.03617,8.310589 -4.08717,11.335166 2.22409,0.85854 9.31981,0.611108 12.13198,-2.270484 1.5001,5.35635 -1.15567,17.091196 6.48995,18.435725 10.36626,-17.966089 13.24747,-52.8385826 7.85258,-55.68351112 z"
         style="opacity:1;fill:#333333;fill-opacity:1;fill-rule:evenodd;stroke:none;stroke-width:2.79999995;stroke-linecap:round;stroke-linejoin:round;stroke-miterlimit:4;stroke-dasharray:none;stroke-dashoffset:0;stroke-opacity:1;paint-order:markers stroke fill" />
    </clipPath>
    <mask
       id="mask914-3"
       maskUnits="userSpaceOnUse">
      <path
         style="opacity:1;fill:#ffffff;fill-opacity:1;fill-rule:evenodd;stroke:none;stroke-width:2.79999995;stroke-linecap:round;stroke-linejoin:round;stroke-miterlimit:4;stroke-dasharray:none;stroke-dashoffset:0;stroke-opacity:1;paint-order:markers stroke fill"
         d="m 154.91191,68.610466 c 0,13.30933 -2.85091,14.61151 -2.85091,22.03668 0,7.52238 3.27922,9.891904 1.87863,15.118954 -1.74673,6.51888 -11.67541,15.3198 -32.30034,19.24611 -19.5495,3.72157 -44.712872,3.71493 -57.603772,1.17936 -12.97147,-2.55141 -33.636043,-9.97066 -35.993433,-20.68009 -3.35292,-15.232034 0.95023,-36.744664 10.314153,-53.450134 13.12204,-23.41004 38.49929,-39.74165 76.385222,-32.80327 18.75365,3.43453 40.17044,20.22728 40.17045,49.35239 z"
         id="path916-6"
         inkscape:connector-curvature="0"
         sodipodi:nodetypes="sssssssss" />
    </mask>
    <clipPath
       id="clipPath939-8"
       clipPathUnits="userSpaceOnUse">
      <path
         sodipodi:nodetypes="scccccs"
         inkscape:connector-curvature="0"
         id="path941-0"
         d="m 150.70195,0.51324812 c -3.5881,-1.83838902 -33.06651,6.51462968 -45.38553,27.09708688 5.48775,7.742314 19.19939,1.052482 24.75224,0.675897 -1.51761,2.342881 -3.95771,7.251483 -4.00944,10.319043 2.25571,0.870741 6.46398,0.348129 8.50111,-1.397205 1.40822,2.738472 0.2768,11.991364 8.03107,13.355 11.96243,-15.595326 13.61577,-47.2291846 8.11055,-50.04982188 z"
         style="opacity:1;fill:#ffffff;fill-opacity:1;fill-rule:evenodd;stroke:none;stroke-width:2.79999995;stroke-linecap:round;stroke-linejoin:round;stroke-miterlimit:4;stroke-dasharray:none;stroke-dashoffset:0;stroke-opacity:1;paint-order:markers stroke fill" />
    </clipPath>
    <clipPath
       id="clipPath846-2"
       clipPathUnits="userSpaceOnUse">
      <path
         style="opacity:1;fill:url(#linearGradient850);fill-opacity:1;fill-rule:evenodd;stroke:none;stroke-width:2.79999995;stroke-linecap:round;stroke-linejoin:round;stroke-miterlimit:4;stroke-dasharray:none;stroke-dashoffset:0;stroke-opacity:1;paint-order:markers stroke fill"
         d="m 391.79445,425.41973 c 1.65688,13.01782 -0.96948,14.64639 -0.0451,21.90893 0.93646,7.35762 4.43884,9.26701 3.71966,14.55393 -0.89694,6.59355 -9.51252,16.43773 -29.19693,22.84564 -18.65801,6.07378 -43.27107,9.19988 -56.19527,8.32464 -13.005,-0.88071 -34.14057,-5.56492 -37.77955,-15.74632 -5.17572,-14.481 -3.54688,-36.67033 3.43423,-53.56343 3.058,-7.39987 11.25258,-21.29807 21.35685,-27.6922 l 8.11698,-0.59557 -12.76711,-1.32585 c 5.83499,-2.87893 11.39007,-4.67336 15.7895,-5.33112 1.44139,0.88585 3.34146,1.6891 5.00507,2.25111 -3.5138,-1.72411 -8.61797,-10.20742 -11.06095,-13.14333 13.21468,-0.66879 24.87025,3.07218 30.03025,5.55927 l -4.32337,-6.20877 c 6.88088,0.77679 11.29124,4.58866 18.48127,4.89245 18.77046,1.02466 41.8087,14.78343 45.43449,43.27062 z"
         id="path848-1"
         inkscape:connector-curvature="0"
         sodipodi:nodetypes="ssssssscccccccccs" />
    </clipPath>
    <clipPath
       id="clipPath848-0"
       clipPathUnits="userSpaceOnUse">
      <path
         style="opacity:1;fill:#333333;fill-opacity:1;fill-rule:evenodd;stroke:none;stroke-width:2.79999995;stroke-linecap:round;stroke-linejoin:round;stroke-miterlimit:4;stroke-dasharray:none;stroke-dashoffset:0;stroke-opacity:1;paint-order:markers stroke fill"
         d="M 151.14447,0.33917988 C 146.26964,-2.2314866 116.36421,8.7225203 104.2178,29.016572 c 5.41086,7.633828 19.06431,-0.122979 24.53933,-0.494288 -1.49634,2.310053 -4.03617,8.310589 -4.08717,11.335166 2.22409,0.85854 9.31981,0.611108 12.13198,-2.270484 1.5001,5.35635 -1.15567,17.091196 6.48995,18.435725 10.36626,-17.966089 13.24747,-52.8385826 7.85258,-55.68351112 z"
         id="path850-5"
         inkscape:connector-curvature="0"
         sodipodi:nodetypes="scccccs" />
    </clipPath>
  </defs>
  <sodipodi:namedview
     id="base"
     pagecolor="#ffffff"
     bordercolor="#666666"
     borderopacity="1.0"
     inkscape:pageopacity="0.0"
     inkscape:pageshadow="2"
     inkscape:zoom="3.959798"
     inkscape:cx="-15.969402"
     inkscape:cy="26.849779"
     inkscape:document-units="px"
     inkscape:current-layer="layer3"
     showgrid="false"
     units="px"
     fit-margin-top="0"
     fit-margin-left="0"
     fit-margin-right="0"
     fit-margin-bottom="0"
     inkscape:window-width="3840"
     inkscape:window-height="1982"
     inkscape:window-x="2880"
     inkscape:window-y="0"
     inkscape:window-maximized="1"
     showguides="true" />
  <metadata
     id="metadata5">
    <rdf:RDF>
      <cc:Work
         rdf:about="">
        <dc:format>image/svg+xml</dc:format>
        <dc:type
           rdf:resource="http://purl.org/dc/dcmitype/StillImage" />
        <dc:title></dc:title>
      </cc:Work>
    </rdf:RDF>
  </metadata>
  <g
     inkscape:groupmode="layer"
     id="layer3"
     inkscape:label="Ear  back">
    <path
       style="opacity:1;fill:#313131;fill-opacity:1;fill-rule:evenodd;stroke:none;stroke-width:2.79999995;stroke-linecap:round;stroke-linejoin:round;stroke-miterlimit:4;stroke-dasharray:none;stroke-dashoffset:0;stroke-opacity:1;paint-order:markers stroke fill"
       d="M 15.796733,3.9414384 C 21.726057,1.5139035 37.038636,23.020696 53.70345,28.441986 L 21.723277,47.785944 C 15.625551,38.388493 10.423233,6.1414227 15.796733,3.9414384 Z"
       id="rect870"
       inkscape:connector-curvature="0"
       sodipodi:nodetypes="sccs" />
  </g>
  <g
     inkscape:groupmode="layer"
     id="layer4"
     inkscape:label="Body">
    <path
       style="opacity:1;fill:#ff5c02;fill-opacity:1;fill-rule:evenodd;stroke:none;stroke-width:2.79999995;stroke-linecap:round;stroke-linejoin:round;stroke-miterlimit:4;stroke-dasharray:none;stroke-dashoffset:0;stroke-opacity:1;paint-order:markers stroke fill"
       d="m 127.30108,70.884276 -8.69313,-3.868385 c 1.27636,4.494947 6.4093,10.546894 9.39206,13.044111 -0.50142,3.140046 -6.44797,8.720278 -11.88131,11.773113 2.84232,0.291724 6.66465,-0.209144 8.67608,-0.78353 -1.11061,7.637444 2.32759,10.225115 0.96299,15.317865 -1.70186,6.35142 -11.37546,14.92624 -31.470541,18.75167 -19.04727,3.62597 -43.56419,3.6195 -56.123919,1.14908 C 25.52507,123.78233 5.2305,116.58779 3.0945515,106.11937 0.66508198,94.212372 8.5124479,88.699907 11.095306,80.637753 c 0,0 -6.7205465,5.093135 -10.37309022,9.93535 C -2.5564456,72.735059 5.8516097,67.544564 15.37942,62.64482 9.1581292,62.943899 6.4829208,63.799415 1.8648814,65.703054 5.8930493,55.576142 10.797547,51.176026 17.474089,49.072565 14.235731,48.964228 8.6964059,47.76942 6.4740315,46.934739 18.596316,43.122334 20.425233,41.209058 27.433601,36.988242 L 16.258915,35.578961 C 21.248443,32.062716 34.154404,29.25643 42.041872,29.521587 L 26.66547,25.971383 C 38.049602,19.74638 42.509771,21.19136 54.55288,28.228834 46.484689,23.064138 43.408417,14.729182 39.976277,11.390492 56.446922,10.783612 71.498474,14.325947 77.032084,24.447918 L 75.12464,15.164812 c 4.175803,2.226624 8.312499,6.717759 15.322607,7.912607 13.450783,2.46336 19.533013,5.521217 27.012043,21.27654 1.09029,2.296798 4.49175,6.742249 8.96568,9.569723 l -8.08251,0.284985 c 4.24804,2.918482 9.73846,10.254429 8.95862,16.675609 z"
       id="path837"
       inkscape:connector-curvature="0"
       sodipodi:nodetypes="cccccsssscccccccccccccccsccc" />
  </g>
  <g
     inkscape:groupmode="layer"
     id="layer5"
     inkscape:label="Ear front">
    <path
       sodipodi:nodetypes="scccccs"
       inkscape:connector-curvature="0"
       id="path873"
       d="M 122.73744,4.0491213 C 117.99605,1.5488479 88.909196,12.20292 77.095264,31.941313 c 5.262752,7.4248 18.542472,-0.119613 23.867666,-0.480757 -1.455413,2.246801 -3.925728,8.083042 -3.975332,11.024796 2.163219,0.835033 9.064732,0.594377 11.799922,-2.208311 1.45903,5.209688 -1.12404,16.623229 6.3123,17.930934 10.08251,-17.474154 12.88487,-51.39182 7.63762,-54.1588537 z"
       style="opacity:1;fill:#313131;fill-opacity:1;fill-rule:evenodd;stroke:none;stroke-width:2.79999995;stroke-linecap:round;stroke-linejoin:round;stroke-miterlimit:4;stroke-dasharray:none;stroke-dashoffset:0;stroke-opacity:1;paint-order:markers stroke fill" />
    <path
       style="opacity:1;fill:#ebdccc;fill-opacity:1;fill-rule:evenodd;stroke:none;stroke-width:2.88189435;stroke-linecap:round;stroke-linejoin:round;stroke-miterlimit:4;stroke-dasharray:none;stroke-dashoffset:0;stroke-opacity:1;paint-order:markers stroke fill"
       d="m 148.35911,4.3356447 c -1.78771,-0.8484478 -11.00575,2.906299 -16.19325,7.6720183 -10.53309,9.676667 -1.07136,22.664674 -28.29413,20.811212 6.00859,14.75387 19.11803,20.290527 34.81182,24.002583 -2.67038,-18.583744 9.24321,-19.504661 10.95019,-39.43404 0.64348,-7.5127806 0.14869,-12.3762659 -1.27463,-13.0517733 z"
       id="path958"
       inkscape:connector-curvature="0"
       sodipodi:nodetypes="ssccss"
       clip-path="url(#clipPath848)"
       transform="matrix(0.97054822,0,0,0.97261927,-24.05313,3.8168408)" />
  </g>
  <g
     inkscape:label="Face"
     inkscape:groupmode="layer"
     id="layer1"
     transform="translate(-26.911905,0.03095311)">
    <ellipse
       style="opacity:1;fill:#313131;fill-opacity:1;fill-rule:evenodd;stroke:none;stroke-width:14;stroke-linecap:round;stroke-linejoin:round;stroke-miterlimit:4;stroke-dasharray:none;stroke-dashoffset:0;stroke-opacity:1;paint-order:stroke fill markers"
       id="path853"
       cx="108.87811"
       cy="62.083225"
       rx="11.034531"
       ry="11.006743" />
    <ellipse
       cy="55.108341"
       cx="63.682777"
       id="circle865"
       style="opacity:1;fill:#313131;fill-opacity:1;fill-rule:evenodd;stroke:none;stroke-width:14;stroke-linecap:round;stroke-linejoin:round;stroke-miterlimit:4;stroke-dasharray:none;stroke-dashoffset:0;stroke-opacity:1;paint-order:stroke fill markers"
       rx="11.034531"
       ry="11.006743" />
    <ellipse
       id="circle855"
       style="opacity:1;fill:#ffffff;fill-opacity:1;fill-rule:evenodd;stroke:none;stroke-width:14.00001526;stroke-linecap:round;stroke-linejoin:round;stroke-miterlimit:4;stroke-dasharray:none;stroke-dashoffset:0;stroke-opacity:1;paint-order:stroke fill markers"
       cy="101.79324"
       cx="67.817924"
       rx="5.9585886"
       ry="4.3707304"
       transform="matrix(0.88574643,-0.46416942,0.46600747,0.88478078,0,0)" />
    <path
       style="opacity:1;fill:#ffffff;fill-opacity:1;fill-rule:evenodd;stroke:none;stroke-width:14;stroke-linecap:round;stroke-linejoin:round;stroke-miterlimit:4;stroke-dasharray:none;stroke-dashoffset:0;stroke-opacity:1;paint-order:stroke fill markers"
       d="m 115.86089,64.178188 c 0.96194,1.826379 -0.27891,4.365864 -2.77153,5.672099 -2.4926,1.306234 -5.29307,0.884575 -6.255,-0.941806 -0.96194,-1.826379 1.6203,-1.32699 4.11291,-2.633224 2.4926,-1.306233 3.95169,-3.923447 4.91362,-2.097069 z"
       id="ellipse857"
       inkscape:connector-curvature="0"
       sodipodi:nodetypes="sssss" />
    <ellipse
       transform="matrix(0.88574643,-0.46416942,0.46600747,0.88478078,0,0)"
       ry="4.5171351"
       rx="6.1581817"
       cx="31.080214"
       cy="74.636948"
       style="opacity:1;fill:#ffffff;fill-opacity:1;fill-rule:evenodd;stroke:none;stroke-width:14.00001526;stroke-linecap:round;stroke-linejoin:round;stroke-miterlimit:4;stroke-dasharray:none;stroke-dashoffset:0;stroke-opacity:1;paint-order:stroke fill markers"
       id="ellipse867" />
    <path
       sodipodi:nodetypes="sssss"
       inkscape:connector-curvature="0"
       id="path869"
       d="m 70.838413,57.203889 c 0.981686,1.863867 -0.284631,4.455478 -2.828408,5.788522 -2.543768,1.333046 -5.401715,0.902731 -6.383402,-0.961136 -0.981679,-1.863866 1.653562,-1.354227 4.197331,-2.687273 2.543769,-1.333046 4.032799,-4.003978 5.014479,-2.140113 z"
       style="opacity:1;fill:#ffffff;fill-opacity:1;fill-rule:evenodd;stroke:none;stroke-width:14;stroke-linecap:round;stroke-linejoin:round;stroke-miterlimit:4;stroke-dasharray:none;stroke-dashoffset:0;stroke-opacity:1;paint-order:stroke fill markers" />
    <path
       style="display:inline;fill:none;stroke:#313131;stroke-width:3.99999976;stroke-linecap:round;stroke-linejoin:round;stroke-miterlimit:4;stroke-dasharray:none;stroke-opacity:1"
       d="m 72.613109,54.639038 c -0.488686,8.415038 -3.699602,11.661029 -7.950708,15.261245 -3.415716,2.89273 -3.475343,7.729262 -1.737324,10.208561"
       id="path890-6-0"
       inkscape:connector-curvature="0"
       sodipodi:nodetypes="csc" />
    <path
       style="opacity:1;fill:#313131;fill-opacity:1;fill-rule:evenodd;stroke:none;stroke-width:3.80000043;stroke-linecap:round;stroke-linejoin:round;stroke-miterlimit:4;stroke-dasharray:none;stroke-dashoffset:0;stroke-opacity:1;paint-order:markers stroke fill"
       d="m 85.619465,76.039233 c 0,1.612126 -7.270967,7.054546 -10.003453,6.712423 -2.943837,-0.368584 -6.711106,-7.652085 -6.127296,-9.151792 1.482153,-3.807405 16.130749,-2.002271 16.130749,2.439369 z"
       id="rect902-8"
       inkscape:connector-curvature="0"
       sodipodi:nodetypes="ssss" />
    <path
       style="fill:none;fill-opacity:1;stroke:#313131;stroke-width:4.39999962;stroke-linecap:round;stroke-linejoin:round;stroke-miterlimit:4;stroke-dasharray:none;stroke-opacity:1"
       d="m 60.199033,85.949578 c 0.816694,3.943604 3.0617,8.974785 5.232358,12.30447 4.199653,-2.236939 6.874009,-6.51365 10.114008,-9.526314 1.521015,2.001375 4.907925,9.022866 8.26224,12.416146 4.394477,-2.522681 9.840826,-8.177637 11.248086,-9.495668"
       id="path889"
       inkscape:connector-curvature="0"
       sodipodi:nodetypes="ccccc" />
    <path
       style="opacity:1;fill:#313131;fill-opacity:1;fill-rule:evenodd;stroke:none;stroke-width:3.80000043;stroke-linecap:round;stroke-linejoin:round;stroke-miterlimit:4;stroke-dasharray:none;stroke-dashoffset:0;stroke-opacity:1;paint-order:markers stroke fill"
       d="m 85.619465,76.039233 c 0,1.612126 -7.270967,7.054546 -10.003453,6.712423 -2.943837,-0.368584 -6.711106,-7.652085 -6.127296,-9.151792 1.482153,-3.807405 16.130749,-2.002271 16.130749,2.439369 z"
       id="rect902"
       inkscape:connector-curvature="0"
       sodipodi:nodetypes="ssss" />
    <path
       style="opacity:1;fill:#a22900;fill-opacity:1;fill-rule:evenodd;stroke:none;stroke-width:4;stroke-linecap:round;stroke-linejoin:round;stroke-miterlimit:4;stroke-dasharray:none;stroke-dashoffset:0;stroke-opacity:1;paint-order:fill markers stroke"
       d="M 64.47286,9.5319013 C 69.657007,24.496251 72.958363,29.940759 78.871313,35.192901 77.382634,40.602747 62.946542,40.635387 60.849002,35.483995 59.616947,26.276106 60.172999,17.530219 64.47286,9.5319013 Z"
       id="rect860"
       inkscape:connector-curvature="0"
       sodipodi:nodetypes="cccc" />
    <path
       sodipodi:nodetypes="cccc"
       inkscape:connector-curvature="0"
       id="path863"
       d="m 114.91466,12.78601 c -7.14222,14.963626 -11.21322,20.242515 -17.978891,25.016108 -0.491597,5.222753 15.418691,7.461873 18.508181,2.585412 2.35775,-9.436206 3.00988,-18.777414 -0.52929,-27.60152 z"
       style="opacity:1;fill:#a22900;fill-opacity:1;fill-rule:evenodd;stroke:none;stroke-width:4;stroke-linecap:round;stroke-linejoin:round;stroke-miterlimit:4;stroke-dasharray:none;stroke-dashoffset:0;stroke-opacity:1;paint-order:fill markers stroke" />
  </g>
  <g
     inkscape:groupmode="layer"
     id="layer6"
     inkscape:label="Whiskers"
     style="display:none">
    <path
       style="fill:none;fill-opacity:1;stroke:#313131;stroke-width:2.5;stroke-linecap:round;stroke-linejoin:round;stroke-miterlimit:4;stroke-dasharray:none;stroke-opacity:1"
       d="m 68.645975,77.025193 c 9.338035,-1.395359 20.51424,-0.625306 30.695296,1.011356"
       id="path943"
       inkscape:connector-curvature="0"
       sodipodi:nodetypes="cc" />
    <path
       sodipodi:nodetypes="cc"
       inkscape:connector-curvature="0"
       id="path945"
       d="m 67.228811,83.13089 c 11.440451,0.448873 21.054841,4.550435 30.034524,11.48183"
       style="fill:none;fill-opacity:1;stroke:#313131;stroke-width:2.5;stroke-linecap:round;stroke-linejoin:round;stroke-miterlimit:4;stroke-dasharray:none;stroke-opacity:1" />
    <path
       sodipodi:nodetypes="cc"
       inkscape:connector-curvature="0"
       id="path947"
       d="M 32.895393,71.456936 C 26.718997,67.627467 21.192825,65.440905 14.567884,63.58624"
       style="fill:none;fill-opacity:1;stroke:#313131;stroke-width:2.5;stroke-linecap:round;stroke-linejoin:round;stroke-miterlimit:4;stroke-dasharray:none;stroke-opacity:1" />
    <path
       style="fill:none;fill-opacity:1;stroke:#313131;stroke-width:2.5;stroke-linecap:round;stroke-linejoin:round;stroke-miterlimit:4;stroke-dasharray:none;stroke-opacity:1"
       d="M 32.16221,76.367993 C 24.397529,74.197356 17.839504,73.28738 10.803794,73.046759"
       id="path949"
       inkscape:connector-curvature="0"
       sodipodi:nodetypes="cc" />
  </g>
</svg>
