<?xml version="1.0" encoding="UTF-8" standalone="no"?>
<!-- Created with Inkscape (http://www.inkscape.org/) -->

<svg
   xmlns:dc="http://purl.org/dc/elements/1.1/"
   xmlns:cc="http://creativecommons.org/ns#"
   xmlns:rdf="http://www.w3.org/1999/02/22-rdf-syntax-ns#"
   xmlns:svg="http://www.w3.org/2000/svg"
   xmlns="http://www.w3.org/2000/svg"
   xmlns:xlink="http://www.w3.org/1999/xlink"
   xmlns:sodipodi="http://sodipodi.sourceforge.net/DTD/sodipodi-0.dtd"
   xmlns:inkscape="http://www.inkscape.org/namespaces/inkscape"
   width="128"
   height="128"
   viewBox="0 0 128 128"
   version="1.1"
   id="svg8"
   inkscape:version="0.92.4 5da689c313, 2019-01-14"
   sodipodi:docname="blobfoxboopterrified.svg"
   inkscape:export-filename="/home/kevin/Encfs/Media-Enc/Projekte/Grafiken/2019.07.30 - blobfox/blobfoxterrified.png"
   inkscape:export-xdpi="96"
   inkscape:export-ydpi="96">
  <defs
     id="defs2">
    <linearGradient
       inkscape:collect="always"
       id="linearGradient852">
      <stop
         style="stop-color:#47aee3;stop-opacity:1"
         offset="0"
         id="stop848" />
      <stop
         style="stop-color:#ff8702;stop-opacity:1"
         offset="1"
         id="stop850" />
    </linearGradient>
    <linearGradient
       inkscape:collect="always"
       id="linearGradient879">
      <stop
         style="stop-color:#ff7505;stop-opacity:1"
         offset="0"
         id="stop875" />
      <stop
         style="stop-color:#ff8702;stop-opacity:1"
         offset="1"
         id="stop877" />
    </linearGradient>
    <mask
       maskUnits="userSpaceOnUse"
       id="mask914">
      <path
         sodipodi:nodetypes="sssssssss"
         inkscape:connector-curvature="0"
         id="path916"
         d="m 154.91191,68.610466 c 0,13.30933 -2.85091,14.61151 -2.85091,22.03668 0,7.52238 3.27922,9.891904 1.87863,15.118954 -1.74673,6.51888 -11.67541,15.3198 -32.30034,19.24611 -19.5495,3.72157 -44.712872,3.71493 -57.603772,1.17936 -12.97147,-2.55141 -33.636043,-9.97066 -35.993433,-20.68009 -3.35292,-15.232034 0.95023,-36.744664 10.314153,-53.450134 13.12204,-23.41004 38.49929,-39.74165 76.385222,-32.80327 18.75365,3.43453 40.17044,20.22728 40.17045,49.35239 z"
         style="opacity:1;fill:#ffffff;fill-opacity:1;fill-rule:evenodd;stroke:none;stroke-width:2.79999995;stroke-linecap:round;stroke-linejoin:round;stroke-miterlimit:4;stroke-dasharray:none;stroke-dashoffset:0;stroke-opacity:1;paint-order:markers stroke fill" />
    </mask>
    <clipPath
       clipPathUnits="userSpaceOnUse"
       id="clipPath939">
      <path
         style="opacity:1;fill:#ffffff;fill-opacity:1;fill-rule:evenodd;stroke:none;stroke-width:2.79999995;stroke-linecap:round;stroke-linejoin:round;stroke-miterlimit:4;stroke-dasharray:none;stroke-dashoffset:0;stroke-opacity:1;paint-order:markers stroke fill"
         d="m 150.70195,0.51324812 c -3.5881,-1.83838902 -33.06651,6.51462968 -45.38553,27.09708688 5.48775,7.742314 19.19939,1.052482 24.75224,0.675897 -1.51761,2.342881 -3.95771,7.251483 -4.00944,10.319043 2.25571,0.870741 6.46398,0.348129 8.50111,-1.397205 1.40822,2.738472 0.2768,11.991364 8.03107,13.355 11.96243,-15.595326 13.61577,-47.2291846 8.11055,-50.04982188 z"
         id="path941"
         inkscape:connector-curvature="0"
         sodipodi:nodetypes="scccccs" />
    </clipPath>
    <clipPath
       clipPathUnits="userSpaceOnUse"
       id="clipPath846">
      <path
         sodipodi:nodetypes="ssssssscccccccccs"
         inkscape:connector-curvature="0"
         id="path848"
         d="m 391.79445,425.41973 c 1.65688,13.01782 -0.96948,14.64639 -0.0451,21.90893 0.93646,7.35762 4.43884,9.26701 3.71966,14.55393 -0.89694,6.59355 -9.51252,16.43773 -29.19693,22.84564 -18.65801,6.07378 -43.27107,9.19988 -56.19527,8.32464 -13.005,-0.88071 -34.14057,-5.56492 -37.77955,-15.74632 -5.17572,-14.481 -3.54688,-36.67033 3.43423,-53.56343 3.058,-7.39987 11.25258,-21.29807 21.35685,-27.6922 l 8.11698,-0.59557 -12.76711,-1.32585 c 5.83499,-2.87893 11.39007,-4.67336 15.7895,-5.33112 1.44139,0.88585 3.34146,1.6891 5.00507,2.25111 -3.5138,-1.72411 -8.61797,-10.20742 -11.06095,-13.14333 13.21468,-0.66879 24.87025,3.07218 30.03025,5.55927 l -4.32337,-6.20877 c 6.88088,0.77679 11.29124,4.58866 18.48127,4.89245 18.77046,1.02466 41.8087,14.78343 45.43449,43.27062 z"
         style="opacity:1;fill:url(#linearGradient850);fill-opacity:1;fill-rule:evenodd;stroke:none;stroke-width:2.79999995;stroke-linecap:round;stroke-linejoin:round;stroke-miterlimit:4;stroke-dasharray:none;stroke-dashoffset:0;stroke-opacity:1;paint-order:markers stroke fill" />
    </clipPath>
    <linearGradient
       inkscape:collect="always"
       xlink:href="#linearGradient879"
       id="linearGradient850"
       gradientUnits="userSpaceOnUse"
       gradientTransform="matrix(0.97809727,-0.12449018,0.12449018,0.97809727,231.7888,378.02587)"
       x1="114.28658"
       y1="112.44355"
       x2="95.348198"
       y2="85.856133" />
    <clipPath
       clipPathUnits="userSpaceOnUse"
       id="clipPath848">
      <path
         sodipodi:nodetypes="scccccs"
         inkscape:connector-curvature="0"
         id="path850"
         d="M 151.14447,0.33917988 C 146.26964,-2.2314866 116.36421,8.7225203 104.2178,29.016572 c 5.41086,7.633828 19.06431,-0.122979 24.53933,-0.494288 -1.49634,2.310053 -4.03617,8.310589 -4.08717,11.335166 2.22409,0.85854 9.31981,0.611108 12.13198,-2.270484 1.5001,5.35635 -1.15567,17.091196 6.48995,18.435725 10.36626,-17.966089 13.24747,-52.8385826 7.85258,-55.68351112 z"
         style="opacity:1;fill:#333333;fill-opacity:1;fill-rule:evenodd;stroke:none;stroke-width:2.79999995;stroke-linecap:round;stroke-linejoin:round;stroke-miterlimit:4;stroke-dasharray:none;stroke-dashoffset:0;stroke-opacity:1;paint-order:markers stroke fill" />
    </clipPath>
    <linearGradient
       inkscape:collect="always"
       xlink:href="#linearGradient852"
       id="linearGradient854"
       x1="95.349739"
       y1="28.658424"
       x2="83.60672"
       y2="72.158119"
       gradientUnits="userSpaceOnUse"
       gradientTransform="matrix(0.84380928,0,0,0.84380928,-8.9889779,20.018538)" />
    <clipPath
       clipPathUnits="userSpaceOnUse"
       id="clipPath894">
      <path
         sodipodi:nodetypes="scsccccs"
         inkscape:connector-curvature="0"
         id="path896"
         d="m 121.94585,8.3109743 c -4.37532,-3.118506 -39.560593,2.2049727 -52.955088,23.9097867 2.186976,5.813359 8.255215,5.868865 14.806933,5.421494 5.471008,-0.373577 7.795424,-0.09011 11.020011,1.037292 -0.942798,1.458811 -1.231225,4.319039 -2.477709,6.366205 2.352309,0.442071 6.536557,-1.167616 9.583973,-3.655515 0.75221,5.373621 -3.944168,11.098055 2.37492,14.328375 C 117.90897,40.94738 126.78797,11.7622 121.94585,8.3109743 Z"
         style="opacity:1;fill:#313131;fill-opacity:1;fill-rule:evenodd;stroke:none;stroke-width:2.80000019;stroke-linecap:round;stroke-linejoin:round;stroke-miterlimit:4;stroke-dasharray:none;stroke-dashoffset:0;stroke-opacity:1;paint-order:markers stroke fill" />
    </clipPath>
  </defs>
  <sodipodi:namedview
     id="base"
     pagecolor="#ffffff"
     bordercolor="#666666"
     borderopacity="1.0"
     inkscape:pageopacity="0.0"
     inkscape:pageshadow="2"
     inkscape:zoom="4"
     inkscape:cx="-18.095356"
     inkscape:cy="139.25668"
     inkscape:document-units="px"
     inkscape:current-layer="layer1"
     showgrid="false"
     units="px"
     fit-margin-top="0"
     fit-margin-left="0"
     fit-margin-right="0"
     fit-margin-bottom="0"
     inkscape:window-width="3840"
     inkscape:window-height="1982"
     inkscape:window-x="2880"
     inkscape:window-y="0"
     inkscape:window-maximized="1"
     showguides="false" />
  <metadata
     id="metadata5">
    <rdf:RDF>
      <cc:Work
         rdf:about="">
        <dc:format>image/svg+xml</dc:format>
        <dc:type
           rdf:resource="http://purl.org/dc/dcmitype/StillImage" />
        <dc:title></dc:title>
      </cc:Work>
    </rdf:RDF>
  </metadata>
  <g
     inkscape:groupmode="layer"
     id="layer3"
     inkscape:label="Ear  back">
    <path
       style="opacity:1;fill:#313131;fill-opacity:1;fill-rule:evenodd;stroke:none;stroke-width:2.79999995;stroke-linecap:round;stroke-linejoin:round;stroke-miterlimit:4;stroke-dasharray:none;stroke-dashoffset:0;stroke-opacity:1;paint-order:markers stroke fill"
       d="m 36.916713,23.130274 c 4.889358,-0.216664 15.74065,14.409958 18.682367,22.687853 l -27.651264,16.40372 c -2.410082,-15.94353 4.62352,-38.899014 8.968897,-39.091573 z"
       id="rect870"
       inkscape:connector-curvature="0"
       sodipodi:nodetypes="sccs" />
  </g>
  <g
     inkscape:groupmode="layer"
     id="layer4"
     inkscape:label="Body">
    <path
       style="opacity:1;fill:url(#linearGradient854);fill-opacity:1;fill-rule:evenodd;stroke:none;stroke-width:2.79999995;stroke-linecap:round;stroke-linejoin:round;stroke-miterlimit:4;stroke-dasharray:none;stroke-dashoffset:0;stroke-opacity:1;paint-order:markers stroke fill"
       d="m 120.19625,78.614517 c 0,11.073173 -2.37192,12.156566 -2.37192,18.334204 0,6.258519 2.72827,8.229939 1.56302,12.578759 -1.45326,5.42361 -9.71378,12.74585 -26.873437,16.01249 -16.264905,3.09628 -37.200469,3.09077 -47.925514,0.98119 C 33.796316,124.39844 16.603693,118.22573 14.642377,109.31564 11.852794,96.642797 15.518755,78.207332 23.223604,64.845887 30.511413,52.207654 39.252242,43.915678 50.908615,44.307535 L 39.289479,41.498497 c 8.444343,-2.098509 12.178349,-2.924517 19.655543,0.635546 -4.323945,-3.32133 -6.734084,-9.96174 -8.705944,-12.83936 11.132688,0.848062 20.4905,5.748619 24.544743,8.3802 L 73.26477,31.356618 c 5.224106,1.596394 7.524152,5.177105 13.510244,6.197413 15.602776,2.857476 33.421236,16.828814 33.421236,41.060486 z"
       id="path837"
       inkscape:connector-curvature="0"
       sodipodi:nodetypes="ssssssscccccccs" />
  </g>
  <g
     inkscape:groupmode="layer"
     id="layer5"
     inkscape:label="Ear front">
    <path
       style="opacity:1;fill:#313131;fill-opacity:1;fill-rule:evenodd;stroke:none;stroke-width:2.80000019;stroke-linecap:round;stroke-linejoin:round;stroke-miterlimit:4;stroke-dasharray:none;stroke-dashoffset:0;stroke-opacity:1;paint-order:markers stroke fill"
       d="m 307.47812,-23.699174 c -4.45817,-6.852749 -40.26067,-2.753849 -54.3926,4.954826 0.42481,5.547202 6.09159,10.7018704 11.93776,12.6842084 21.42765,7.26576 30.33439,-16.1384574 40.84748,-10.0600534 1.83397,-3.519133 2.46826,-6.255666 1.60736,-7.578981 z"
       id="path911"
       inkscape:connector-curvature="0"
       sodipodi:nodetypes="scscs" />
    <path
       clip-path="none"
       sodipodi:nodetypes="ssccccccs"
       inkscape:connector-curvature="0"
       id="path913"
       d="m 306.15518,-19.90331 c -1.59057,-1.812009 -10.73333,1.910105 -15.71547,6.007508 -9.73482,8.0061144 -14.69449,8.9950024 -26.91248,7.7018174 11.76047,5.62420203 22.80529,3.736781 29.88162,1.616781 -3.14398,-1.068272 -3.74702,-0.992851 -5.54905,-2.547673 6.48034,1.364575 11.44157,0.21792 13.0478,-3.1519194 -1.89967,0.181475 -3.49045,0.3763584 -6.55703,-1.183979 4.53326,0.51894 7.52767,-0.151811 9.80974,-2.279461 1.81767,-1.92759 3.52789,-4.416627 1.99487,-6.163074 z"
       style="opacity:1;fill:#ebdccc;fill-opacity:1;fill-rule:evenodd;stroke:none;stroke-width:2.80000019;stroke-linecap:round;stroke-linejoin:round;stroke-miterlimit:4;stroke-dasharray:none;stroke-dashoffset:0;stroke-opacity:1;paint-order:markers stroke fill" />
    <path
       style="opacity:1;fill:#313131;fill-opacity:1;fill-rule:evenodd;stroke:none;stroke-width:2.80000019;stroke-linecap:round;stroke-linejoin:round;stroke-miterlimit:4;stroke-dasharray:none;stroke-dashoffset:0;stroke-opacity:1;paint-order:markers stroke fill"
       d="m 283.44276,-53.324572 c -8.13244,-1.078843 -36.34135,0.83431 -52.35754,15.549653 -0.0652,6.185773 9.8366,10.354301 15.95836,11.148835 22.43781,2.912163 24.81014,-22.844771 36.31291,-18.951416 1.10648,-3.810969 1.65127,-7.539462 0.0863,-7.747072 z"
       id="path923-9-5"
       inkscape:connector-curvature="0"
       sodipodi:nodetypes="scscs" />
    <path
       clip-path="none"
       sodipodi:nodetypes="cscccccssc"
       inkscape:connector-curvature="0"
       id="path925-3-2"
       d="m 282.97147,-49.263086 c -1.92562,-1.450975 -10.2282,3.902967 -14.30775,8.899732 -7.97122,9.763417 -9.39898,14.700696 -21.93136,13.890809 12.63654,3.202827 19.93553,2.700271 26.07662,-1.872284 -3.29263,-0.429447 -6.05047,0.64655 -8.12296,-0.523729 6.62214,0.06417 13.18672,-3.336698 14.09923,-6.956519 -1.82694,0.551336 -3.34838,1.055103 -6.66184,0.127978 5.01899,-0.337884 7.22457,-2.652823 8.49624,-4.472242 3.85234,-5.51167 3.50292,-8.226364 2.35182,-9.093742 z"
       style="opacity:1;fill:#ebdccc;fill-opacity:1;fill-rule:evenodd;stroke:none;stroke-width:2.80000019;stroke-linecap:round;stroke-linejoin:round;stroke-miterlimit:4;stroke-dasharray:none;stroke-dashoffset:0;stroke-opacity:1;paint-order:markers stroke fill" />
    <path
       style="opacity:1;fill:#313131;fill-opacity:1;fill-rule:evenodd;stroke:none;stroke-width:2.80000067;stroke-linecap:round;stroke-linejoin:round;stroke-miterlimit:4;stroke-dasharray:none;stroke-dashoffset:0;stroke-opacity:1;paint-order:markers stroke fill"
       d="m 127.44983,36.421655 c -2.44855,-2.878304 -30.658311,-0.381471 -40.550816,9.049606 0.626105,4.273071 2.021663,5.485695 3.548929,6.424257 2.383872,1.46498 4.884171,-1.138028 5.640661,-3.91952 2.136009,1.401948 4.294556,5.849077 4.509236,8.708772 0.24637,0.514025 4.28057,-1.29378 5.51927,-2.963675 1.03345,2.003555 1.1419,8.920159 4.18283,11.207434 14.46736,-6.640895 19.49134,-25.75447 17.14989,-28.506874 z"
       id="path911-8"
       inkscape:connector-curvature="0"
       sodipodi:nodetypes="scsccccs" />
  </g>
  <g
     inkscape:label="Face"
     inkscape:groupmode="layer"
     id="layer1"
     transform="translate(-26.911905,0.03095311)">
    <ellipse
       style="opacity:1;fill:#ffffff;fill-opacity:1;fill-rule:evenodd;stroke:#ffffff;stroke-width:9.04046726;stroke-linecap:round;stroke-linejoin:round;stroke-miterlimit:4;stroke-dasharray:none;stroke-dashoffset:0;stroke-opacity:1;paint-order:fill markers stroke"
       id="path885"
       cx="107.09159"
       cy="86.894127"
       rx="7.4279962"
       ry="8.422761"
       transform="matrix(0.98788676,-0.15517654,0.02204363,0.99975701,0,0)" />
    <ellipse
       transform="matrix(0.99926374,0.03836632,-0.1781569,0.98400209,0,0)"
       ry="8.1083765"
       rx="6.8824797"
       cy="63.766068"
       cx="82.353119"
       id="ellipse887"
       style="opacity:1;fill:#fefefe;fill-opacity:1;fill-rule:evenodd;stroke:#ffffff;stroke-width:9.0448246;stroke-linecap:round;stroke-linejoin:round;stroke-miterlimit:4;stroke-dasharray:none;stroke-dashoffset:0;stroke-opacity:1;paint-order:fill markers stroke" />
    <path
       style="fill:none;fill-opacity:1;stroke:#313131;stroke-width:4.39999962;stroke-linecap:round;stroke-linejoin:round;stroke-miterlimit:4;stroke-dasharray:none;stroke-opacity:1"
       d="m 66.532508,92.41704 c 0.721553,3.484192 2.705027,7.92927 4.622812,10.87106 3.710414,-1.97635 6.073217,-5.754842 8.935772,-8.416546 1.343825,1.768224 4.336174,7.971746 7.299728,10.969726 3.88254,-2.2288 8.694414,-7.224985 9.937734,-8.38947"
       id="path889"
       inkscape:connector-curvature="0"
       sodipodi:nodetypes="ccccc" />
    <path
       style="opacity:1;fill:#313131;fill-opacity:1;fill-rule:evenodd;stroke:none;stroke-width:3.80000067;stroke-linecap:round;stroke-linejoin:round;stroke-miterlimit:4;stroke-dasharray:none;stroke-dashoffset:0;stroke-opacity:1;paint-order:markers stroke fill"
       d="m 88.991576,83.661207 c 0,1.42432 -6.423933,6.232722 -8.838097,5.930456 -2.600893,-0.325648 -5.929291,-6.760653 -5.413494,-8.085651 1.309491,-3.363862 14.251591,-1.769014 14.251591,2.155195 z"
       id="rect902"
       inkscape:connector-curvature="0"
       sodipodi:nodetypes="ssss" />
    <path
       style="display:inline;fill:none;stroke:#313131;stroke-width:3.99999928;stroke-linecap:round;stroke-linejoin:round;stroke-miterlimit:4;stroke-dasharray:none;stroke-opacity:1"
       d="m 81.144618,66.082392 c -1.870141,7.560024 -6.912843,8.943444 -10.668707,12.132275 -3.017793,2.562186 -3.070474,6.846062 -1.534931,9.042059"
       id="path890"
       inkscape:connector-curvature="0"
       sodipodi:nodetypes="csc" />
    <ellipse
       transform="matrix(0.9247409,-0.38059725,0.08725697,0.99618584,0,0)"
       ry="4.5714993"
       rx="3.325428"
       cy="110.78518"
       cx="104.70363"
       id="ellipse841"
       style="opacity:1;fill:#313131;fill-opacity:1;fill-rule:evenodd;stroke:none;stroke-width:4.09439135;stroke-linecap:round;stroke-linejoin:round;stroke-miterlimit:4;stroke-dasharray:none;stroke-dashoffset:0;stroke-opacity:1;paint-order:fill markers stroke" />
    <ellipse
       style="opacity:1;fill:#313131;fill-opacity:1;fill-rule:evenodd;stroke:none;stroke-width:4.09439135;stroke-linecap:round;stroke-linejoin:round;stroke-miterlimit:4;stroke-dasharray:none;stroke-dashoffset:0;stroke-opacity:1;paint-order:fill markers stroke"
       id="ellipse846"
       cx="73.336929"
       cy="89.08197"
       rx="3.3254282"
       ry="4.5714989"
       transform="matrix(0.95022674,-0.31155921,0.01375907,0.99990534,0,0)" />
    <path
       style="opacity:1;fill:#ffffff;fill-opacity:1;fill-rule:evenodd;stroke:none;stroke-width:9.00000095;stroke-linecap:round;stroke-linejoin:round;stroke-miterlimit:4;stroke-dasharray:none;stroke-dashoffset:0;stroke-opacity:1;paint-order:fill markers stroke"
       d="m 130.58299,99.452864 c 0,2.942216 -2.38513,5.327366 -5.32735,5.327366 -2.94223,0 -5.32735,-2.38515 -5.32735,-5.327366 0,-5.484943 2.82293,-6.526678 5.32735,-16.088596 2.49964,9.666 5.32735,10.67899 5.32735,16.088596 z"
       id="path867"
       inkscape:connector-curvature="0"
       sodipodi:nodetypes="ssscs" />
    <path
       sodipodi:nodetypes="cssssscccssssc"
       inkscape:connector-curvature="0"
       id="path849-7"
       d="m 52.980176,67.128767 c 3.866414,-0.859788 5.130858,5.889939 -2.983988,7.372806 -2.471593,0.451664 -5.716041,1.042628 -5.665881,2.656738 0.0584,1.878819 4.414007,2.45359 8.910109,2.910614 6.76837,0.688075 19.218076,1.459047 23.725199,1.842097 1.077894,0.09161 1.504504,0.413842 1.494711,1.00706 -0.09158,5.53967 -4.536578,5.479029 -18.987965,5.122787 2.31504,1.869632 1.365667,5.77189 -1.754795,5.934878 2.320409,1.38057 1.283323,5.520521 -1.705545,5.754631 2.690378,2.710292 -0.380374,6.501742 -2.864612,6.233742 -2.717695,-0.29318 -6.695765,-0.9955 -10.744092,-1.75933 -8.303001,-1.5666 -13.731922,-5.969802 -11.501071,-17.970602 0.96264,-5.178539 1.50478,-8.77279 3.49237,-12.645613 1.75754,-3.424543 11.884414,-5.016753 18.58556,-6.459808 z"
       style="opacity:1;fill:#ffffff;fill-opacity:1;fill-rule:evenodd;stroke:#313131;stroke-width:7;stroke-linecap:round;stroke-linejoin:round;stroke-miterlimit:4;stroke-dasharray:none;stroke-dashoffset:0;stroke-opacity:1;paint-order:markers stroke fill" />
  </g>
  <g
     inkscape:groupmode="layer"
     id="layer6"
     inkscape:label="Whiskers"
     style="display:none">
    <path
       style="fill:none;fill-opacity:1;stroke:#313131;stroke-width:2.5;stroke-linecap:round;stroke-linejoin:round;stroke-miterlimit:4;stroke-dasharray:none;stroke-opacity:1"
       d="m 68.645975,77.025193 c 9.338035,-1.395359 20.51424,-0.625306 30.695296,1.011356"
       id="path943"
       inkscape:connector-curvature="0"
       sodipodi:nodetypes="cc" />
    <path
       sodipodi:nodetypes="cc"
       inkscape:connector-curvature="0"
       id="path945"
       d="m 67.228811,83.13089 c 11.440451,0.448873 21.054841,4.550435 30.034524,11.48183"
       style="fill:none;fill-opacity:1;stroke:#313131;stroke-width:2.5;stroke-linecap:round;stroke-linejoin:round;stroke-miterlimit:4;stroke-dasharray:none;stroke-opacity:1" />
    <path
       sodipodi:nodetypes="cc"
       inkscape:connector-curvature="0"
       id="path947"
       d="M 32.895393,71.456936 C 26.718997,67.627467 21.192825,65.440905 14.567884,63.58624"
       style="fill:none;fill-opacity:1;stroke:#313131;stroke-width:2.5;stroke-linecap:round;stroke-linejoin:round;stroke-miterlimit:4;stroke-dasharray:none;stroke-opacity:1" />
    <path
       style="fill:none;fill-opacity:1;stroke:#313131;stroke-width:2.5;stroke-linecap:round;stroke-linejoin:round;stroke-miterlimit:4;stroke-dasharray:none;stroke-opacity:1"
       d="M 32.16221,76.367993 C 24.397529,74.197356 17.839504,73.28738 10.803794,73.046759"
       id="path949"
       inkscape:connector-curvature="0"
       sodipodi:nodetypes="cc" />
  </g>
</svg>
