<?xml version="1.0" encoding="UTF-8" standalone="no"?>
<!-- Created with Inkscape (http://www.inkscape.org/) -->

<svg
   xmlns:dc="http://purl.org/dc/elements/1.1/"
   xmlns:cc="http://creativecommons.org/ns#"
   xmlns:rdf="http://www.w3.org/1999/02/22-rdf-syntax-ns#"
   xmlns:svg="http://www.w3.org/2000/svg"
   xmlns="http://www.w3.org/2000/svg"
   xmlns:xlink="http://www.w3.org/1999/xlink"
   xmlns:sodipodi="http://sodipodi.sourceforge.net/DTD/sodipodi-0.dtd"
   xmlns:inkscape="http://www.inkscape.org/namespaces/inkscape"
   width="128"
   height="128"
   viewBox="0 0 128 128"
   version="1.1"
   id="svg8"
   inkscape:version="0.92.4 5da689c313, 2019-01-14"
   sodipodi:docname="blobfoxcursedowo.svg"
   inkscape:export-filename="/home/kevin/Encfs/Media-Enc/Projekte/Grafiken/2019.07.30 - blobfox/blobfoxcursedowo.png"
   inkscape:export-xdpi="96"
   inkscape:export-ydpi="96">
  <defs
     id="defs2">
    <linearGradient
       inkscape:collect="always"
       id="linearGradient879">
      <stop
         style="stop-color:#ff7505;stop-opacity:1"
         offset="0"
         id="stop875" />
      <stop
         style="stop-color:#ff8702;stop-opacity:1"
         offset="1"
         id="stop877" />
    </linearGradient>
    <mask
       maskUnits="userSpaceOnUse"
       id="mask914">
      <path
         sodipodi:nodetypes="sssssssss"
         inkscape:connector-curvature="0"
         id="path916"
         d="m 154.91191,68.610466 c 0,13.30933 -2.85091,14.61151 -2.85091,22.03668 0,7.52238 3.27922,9.891904 1.87863,15.118954 -1.74673,6.51888 -11.67541,15.3198 -32.30034,19.24611 -19.5495,3.72157 -44.712872,3.71493 -57.603772,1.17936 -12.97147,-2.55141 -33.636043,-9.97066 -35.993433,-20.68009 -3.35292,-15.232034 0.95023,-36.744664 10.314153,-53.450134 13.12204,-23.41004 38.49929,-39.74165 76.385222,-32.80327 18.75365,3.43453 40.17044,20.22728 40.17045,49.35239 z"
         style="opacity:1;fill:#ffffff;fill-opacity:1;fill-rule:evenodd;stroke:none;stroke-width:2.79999995;stroke-linecap:round;stroke-linejoin:round;stroke-miterlimit:4;stroke-dasharray:none;stroke-dashoffset:0;stroke-opacity:1;paint-order:markers stroke fill" />
    </mask>
    <clipPath
       clipPathUnits="userSpaceOnUse"
       id="clipPath939">
      <path
         style="opacity:1;fill:#ffffff;fill-opacity:1;fill-rule:evenodd;stroke:none;stroke-width:2.79999995;stroke-linecap:round;stroke-linejoin:round;stroke-miterlimit:4;stroke-dasharray:none;stroke-dashoffset:0;stroke-opacity:1;paint-order:markers stroke fill"
         d="m 150.70195,0.51324812 c -3.5881,-1.83838902 -33.06651,6.51462968 -45.38553,27.09708688 5.48775,7.742314 19.19939,1.052482 24.75224,0.675897 -1.51761,2.342881 -3.95771,7.251483 -4.00944,10.319043 2.25571,0.870741 6.46398,0.348129 8.50111,-1.397205 1.40822,2.738472 0.2768,11.991364 8.03107,13.355 11.96243,-15.595326 13.61577,-47.2291846 8.11055,-50.04982188 z"
         id="path941"
         inkscape:connector-curvature="0"
         sodipodi:nodetypes="scccccs" />
    </clipPath>
    <clipPath
       clipPathUnits="userSpaceOnUse"
       id="clipPath846">
      <path
         sodipodi:nodetypes="ssssssscccccccccs"
         inkscape:connector-curvature="0"
         id="path848"
         d="m 391.79445,425.41973 c 1.65688,13.01782 -0.96948,14.64639 -0.0451,21.90893 0.93646,7.35762 4.43884,9.26701 3.71966,14.55393 -0.89694,6.59355 -9.51252,16.43773 -29.19693,22.84564 -18.65801,6.07378 -43.27107,9.19988 -56.19527,8.32464 -13.005,-0.88071 -34.14057,-5.56492 -37.77955,-15.74632 -5.17572,-14.481 -3.54688,-36.67033 3.43423,-53.56343 3.058,-7.39987 11.25258,-21.29807 21.35685,-27.6922 l 8.11698,-0.59557 -12.76711,-1.32585 c 5.83499,-2.87893 11.39007,-4.67336 15.7895,-5.33112 1.44139,0.88585 3.34146,1.6891 5.00507,2.25111 -3.5138,-1.72411 -8.61797,-10.20742 -11.06095,-13.14333 13.21468,-0.66879 24.87025,3.07218 30.03025,5.55927 l -4.32337,-6.20877 c 6.88088,0.77679 11.29124,4.58866 18.48127,4.89245 18.77046,1.02466 41.8087,14.78343 45.43449,43.27062 z"
         style="opacity:1;fill:url(#linearGradient850);fill-opacity:1;fill-rule:evenodd;stroke:none;stroke-width:2.79999995;stroke-linecap:round;stroke-linejoin:round;stroke-miterlimit:4;stroke-dasharray:none;stroke-dashoffset:0;stroke-opacity:1;paint-order:markers stroke fill" />
    </clipPath>
    <linearGradient
       inkscape:collect="always"
       xlink:href="#linearGradient879"
       id="linearGradient850"
       gradientUnits="userSpaceOnUse"
       gradientTransform="matrix(0.97809727,-0.12449018,0.12449018,0.97809727,231.7888,378.02587)"
       x1="114.28658"
       y1="112.44355"
       x2="95.348198"
       y2="85.856133" />
    <clipPath
       clipPathUnits="userSpaceOnUse"
       id="clipPath848">
      <path
         sodipodi:nodetypes="scccccs"
         inkscape:connector-curvature="0"
         id="path850"
         d="M 151.14447,0.33917988 C 146.26964,-2.2314866 116.36421,8.7225203 104.2178,29.016572 c 5.41086,7.633828 19.06431,-0.122979 24.53933,-0.494288 -1.49634,2.310053 -4.03617,8.310589 -4.08717,11.335166 2.22409,0.85854 9.31981,0.611108 12.13198,-2.270484 1.5001,5.35635 -1.15567,17.091196 6.48995,18.435725 10.36626,-17.966089 13.24747,-52.8385826 7.85258,-55.68351112 z"
         style="opacity:1;fill:#333333;fill-opacity:1;fill-rule:evenodd;stroke:none;stroke-width:2.79999995;stroke-linecap:round;stroke-linejoin:round;stroke-miterlimit:4;stroke-dasharray:none;stroke-dashoffset:0;stroke-opacity:1;paint-order:markers stroke fill" />
    </clipPath>
  </defs>
  <sodipodi:namedview
     id="base"
     pagecolor="#ffffff"
     bordercolor="#666666"
     borderopacity="1.0"
     inkscape:pageopacity="0.0"
     inkscape:pageshadow="2"
     inkscape:zoom="5.6"
     inkscape:cx="-15.751554"
     inkscape:cy="84.863467"
     inkscape:document-units="px"
     inkscape:current-layer="layer1"
     showgrid="false"
     units="px"
     fit-margin-top="0"
     fit-margin-left="0"
     fit-margin-right="0"
     fit-margin-bottom="0"
     inkscape:window-width="3840"
     inkscape:window-height="1983"
     inkscape:window-x="0"
     inkscape:window-y="0"
     inkscape:window-maximized="1"
     showguides="false" />
  <metadata
     id="metadata5">
    <rdf:RDF>
      <cc:Work
         rdf:about="">
        <dc:format>image/svg+xml</dc:format>
        <dc:type
           rdf:resource="http://purl.org/dc/dcmitype/StillImage" />
        <dc:title></dc:title>
      </cc:Work>
    </rdf:RDF>
  </metadata>
  <g
     inkscape:groupmode="layer"
     id="layer3"
     inkscape:label="Ear  back">
    <path
       style="opacity:1;fill:#313131;fill-opacity:1;fill-rule:evenodd;stroke:none;stroke-width:2.79999948;stroke-linecap:round;stroke-linejoin:round;stroke-miterlimit:4;stroke-dasharray:none;stroke-dashoffset:0;stroke-opacity:1;paint-order:markers stroke fill"
       d="M 15.204658,0.3864728 C 20.829433,-3.3078382 34.266472,20.501538 50.787737,27.782516 L 24.83867,42.329415 C 25.32674,31.604092 7.049399,5.7427878 15.204658,0.3864728 Z"
       id="rect870-2"
       inkscape:connector-curvature="0"
       sodipodi:nodetypes="sccs" />
    <path
       clip-path="none"
       sodipodi:nodetypes="sccccccss"
       inkscape:connector-curvature="0"
       id="path872"
       d="m 14.987522,4.6853298 c -2.06446,0.191174 -3.363413,8.4981412 0.936437,17.2082082 -1.160727,-0.991323 -1.868305,-1.425753 -4.802959,-2.263377 0.933088,5.894704 1.811092,10.546248 7.578388,13.594272 l -6.518722,-0.985494 c 2.625362,4.626225 6.665249,9.454119 13.179322,10.841821 l 4.523496,-5.119661 c -8.4931,-1.11529 -4.925699,-16.177806 -7.963442,-25.663573 -1.78577,-5.5763092 -5.16461,-7.7759102 -6.93252,-7.6121962 z"
       style="opacity:1;fill:#ebdccc;fill-opacity:1;fill-rule:evenodd;stroke:none;stroke-width:2.79999995;stroke-linecap:round;stroke-linejoin:round;stroke-miterlimit:4;stroke-dasharray:none;stroke-dashoffset:0;stroke-opacity:1;paint-order:markers stroke fill" />
  </g>
  <g
     inkscape:groupmode="layer"
     id="layer4"
     inkscape:label="Body">
    <path
       style="opacity:1;fill:#ff8702;fill-opacity:1;fill-rule:evenodd;stroke:none;stroke-width:2.79999971;stroke-linecap:round;stroke-linejoin:round;stroke-miterlimit:4;stroke-dasharray:none;stroke-dashoffset:0;stroke-opacity:1;paint-order:markers stroke fill"
       d="m 126.19432,69.473163 c 0,13.12284 -2.81096,14.406769 -2.81096,21.727899 0,7.416978 3.23327,9.753298 1.85232,14.907108 -1.72226,6.42754 -11.51182,15.10513 -31.847749,18.97641 -19.275573,3.66944 -44.086349,3.66289 -56.796619,1.16284 C 23.801592,123.73177 3.4265838,116.41648 1.1022228,105.85712 -2.2037172,90.838512 2.1408218,68.990609 11.271853,53.155934 19.908648,38.178341 30.267421,28.351504 44.081412,28.815895 L 30.311551,25.486899 c 10.007408,-2.486949 14.432585,-3.465851 23.29382,0.753186 -5.124314,-3.936115 -7.980574,-11.805676 -10.31743,-15.215949 13.193371,1.00504 24.283329,6.8127 29.088019,9.931389 l -1.800227,-7.487786 c 6.191095,1.891889 8.916885,6.135396 16.011015,7.344567 18.490882,3.386399 39.607572,19.943858 39.607572,48.660857 z"
       id="path837"
       inkscape:connector-curvature="0"
       sodipodi:nodetypes="ssssssscccccccs" />
  </g>
  <g
     inkscape:groupmode="layer"
     id="layer5"
     inkscape:label="Ear front">
    <path
       sodipodi:nodetypes="sccccs"
       inkscape:connector-curvature="0"
       id="path873-7"
       d="m 125.27646,0.3859818 c -4.98002,-2.626128 -35.5309,8.564232 -47.93946,29.2961882 5.52764,7.798536 25.01635,-0.40147 28.96052,-5.152163 l 4.89361,9.449184 c 0.51237,5.623056 -1.74735,21.918281 6.0633,23.291809 10.58997,-18.353739 13.53339,-53.9787002 8.02203,-56.8850182 z"
       style="opacity:1;fill:#313131;fill-opacity:1;fill-rule:evenodd;stroke:none;stroke-width:2.79999948;stroke-linecap:round;stroke-linejoin:round;stroke-miterlimit:4;stroke-dasharray:none;stroke-dashoffset:0;stroke-opacity:1;paint-order:markers stroke fill" />
    <path
       style="opacity:1;fill:#ebdccc;fill-opacity:1;fill-rule:evenodd;stroke:none;stroke-width:2.79999995;stroke-linecap:round;stroke-linejoin:round;stroke-miterlimit:4;stroke-dasharray:none;stroke-dashoffset:0;stroke-opacity:1;paint-order:markers stroke fill"
       clip-path="none"
       d="m 121.30229,4.4384688 c -3.16935,0.121854 -11.26945,3.178824 -16.15546,7.1391912 -6.22362,5.044571 -9.40494,18.415253 -17.54869,21.410558 5.55192,-0.775709 11.53765,-3.488842 14.75521,-3.707518 -1.52537,2.359898 -4.11603,8.488552 -4.16802,11.578392 2.26723,0.877066 9.50175,0.624819 12.36847,-2.318951 0.68275,2.443048 0.52447,6.182663 0.82987,9.69892 0.005,-13.238506 11.1124,-17.747718 12.24926,-30.333377 0.69296,-7.671634 0.15353,-12.6438862 -1.2974,-13.3339692 -0.2278,-0.108341 -0.58047,-0.150653 -1.03324,-0.133246 z"
       id="path958-0"
       inkscape:connector-curvature="0" />
    <text
       xml:space="preserve"
       style="font-style:normal;font-variant:normal;font-weight:normal;font-stretch:normal;font-size:40px;line-height:1.25;font-family:'Carter One';-inkscape-font-specification:'Carter One';letter-spacing:0px;word-spacing:0px;fill:#000000;fill-opacity:1;stroke:none"
       x="-113.21429"
       y="27.642857"
       id="text846"><tspan
         sodipodi:role="line"
         id="tspan844"
         x="-113.21429"
         y="61.355602"
         style="font-style:normal;font-variant:normal;font-weight:normal;font-stretch:normal;font-family:Twemoji;-inkscape-font-specification:Twemoji" /></text>
    <text
       xml:space="preserve"
       style="font-style:normal;font-variant:normal;font-weight:normal;font-stretch:normal;font-size:40px;line-height:1.25;font-family:Twemoji;-inkscape-font-specification:Twemoji;letter-spacing:0px;word-spacing:0px;fill:#000000;fill-opacity:1;stroke:none"
       x="-216.42857"
       y="-28.964287"
       id="text850"><tspan
         sodipodi:role="line"
         id="tspan848"
         x="-216.42857"
         y="6.4263382" /></text>
    <flowRoot
       xml:space="preserve"
       id="flowRoot896"
       style="fill:black;fill-opacity:1;stroke:none;font-family:Twemoji;font-style:normal;font-weight:normal;font-size:40px;line-height:1.25;letter-spacing:0px;word-spacing:0px;-inkscape-font-specification:Twemoji;font-stretch:normal;font-variant:normal"><flowRegion
         id="flowRegion898"><rect
           id="rect900"
           width="161.60715"
           height="82.14286"
           x="-214.64285"
           y="-0.9285714" /></flowRegion><flowPara
         id="flowPara902" /></flowRoot>  </g>
  <g
     inkscape:label="Face"
     inkscape:groupmode="layer"
     id="layer1"
     transform="translate(-26.911905,0.03095311)">
    <path
       style="opacity:1;fill:#313131;fill-opacity:1;fill-rule:evenodd;stroke:none;stroke-width:3.79999995;stroke-linecap:round;stroke-linejoin:round;stroke-miterlimit:4;stroke-dasharray:none;stroke-dashoffset:0;stroke-opacity:1;paint-order:markers stroke fill"
       d="m 84.232152,75.459735 c 0,1.687965 -7.613015,7.386412 -10.474045,7.028194 -3.082323,-0.385924 -7.026815,-8.012061 -6.415541,-9.582318 1.551877,-3.986518 16.889586,-2.096464 16.889586,2.554124 z"
       id="rect902"
       inkscape:connector-curvature="0"
       sodipodi:nodetypes="ssss" />
    <g
       id="g875"
       transform="rotate(11.555668,-137.0225,248.86514)">
      <path
         id="path852"
         d="m 35.059,18 c 0,3.304 -7.642,11 -17.067,11 C 8.566,29 0.925,22.249 0.925,18 c 0,-3.313 7.642,-11 17.067,-11 9.425,0 17.067,7.686 17.067,11 z"
         inkscape:connector-curvature="0"
         style="fill:#99aab5" />
      <path
         id="path854"
         d="m 33.817,18 c 0,2.904 -7.087,9.667 -15.826,9.667 C 9.251,27.667 2.166,21.732 2.166,18 2.166,15.088 9.251,8.334 17.991,8.334 26.73,8.333 33.817,15.088 33.817,18 Z"
         inkscape:connector-curvature="0"
         style="fill:#f5f8fa" />
      <circle
         id="circle856"
         r="8.4580002"
         cy="18"
         cx="18"
         style="fill:#55acee" />
      <circle
         id="circle858"
         r="4.7080002"
         cy="18"
         cx="18"
         style="fill:#292f33" />
      <circle
         id="circle860"
         r="2"
         cy="15"
         cx="21"
         style="fill:#f5f8fa" />
    </g>
    <g
       id="g894"
       transform="matrix(1.218312,0.11745961,-0.11745961,1.218312,53.471704,75.508013)"
       style="stroke-width:0.8170194">
      <path
         id="path877"
         d="M 29,12 C 24.312,8.485 23,6 21,6 19,6 19,7 18,7 17,7 17,6 15,6 c -2,0 -3.313,2.485 -8,6 -4,3 -7,3 -7,5 0,2 5,6 8,9 2,2 5,4 10,4 5,0 8,-2 10,-4 3,-3 8,-7 8,-9 0,-2 -3,-2 -7,-5 z"
         inkscape:connector-curvature="0"
         style="fill:#e75a70;stroke-width:0.8170194" />
      <path
         id="path879"
         d="M 28.389,15.5 C 23.963,14.035 21,13.417 18,13.417 15,13.417 12.038,14.035 7.611,15.5 3.833,16.75 1,16.167 1,17 c 0,0.834 9,5 17,5 8,0 17,-4.166 17,-5 0,-0.833 -2.834,-0.25 -6.611,-1.5 z"
         inkscape:connector-curvature="0"
         style="fill:#662113;stroke-width:0.8170194" />
      <path
         id="path881"
         d="M 28.389,15.5 C 23.963,14.035 21,13.417 18,13.417 c -3,0 -5.962,0.618 -10.389,2.083 -3.624,1.199 -6.371,0.715 -6.59,1.408 2.454,0.385 9.119,-0.644 16.979,-0.644 7.86,0 14.524,1.029 16.979,0.644 -0.219,-0.693 -2.967,-0.209 -6.59,-1.408 z"
         inkscape:connector-curvature="0"
         style="fill:#ffffff;stroke-width:0.8170194" />
    </g>
    <g
       transform="rotate(8.1232317,-233.58902,659.0409)"
       id="g925">
      <path
         style="fill:#99aab5"
         inkscape:connector-curvature="0"
         d="m 35.059,18 c 0,3.304 -7.642,11 -17.067,11 C 8.566,29 0.925,22.249 0.925,18 c 0,-3.313 7.642,-11 17.067,-11 9.425,0 17.067,7.686 17.067,11 z"
         id="path914" />
      <path
         style="fill:#f5f8fa"
         inkscape:connector-curvature="0"
         d="m 33.817,18 c 0,2.904 -7.087,9.667 -15.826,9.667 C 9.251,27.667 2.166,21.732 2.166,18 2.166,15.088 9.251,8.334 17.991,8.334 26.73,8.333 33.817,15.088 33.817,18 Z"
         id="path917" />
      <circle
         style="fill:#55acee"
         cx="18"
         cy="18"
         r="8.4580002"
         id="circle919" />
      <circle
         style="fill:#292f33"
         cx="18"
         cy="18"
         r="4.7080002"
         id="circle921" />
      <circle
         style="fill:#f5f8fa"
         cx="21"
         cy="15"
         r="2"
         id="circle923" />
    </g>
    <path
       style="display:inline;fill:none;stroke:#313131;stroke-width:3.99999976;stroke-linecap:round;stroke-linejoin:round;stroke-miterlimit:4;stroke-dasharray:none;stroke-opacity:1"
       d="m 76.63734,55.574068 c -1.39556,7.949245 -9.897057,9.651875 -14.348137,13.430962 -3.576393,3.036453 -3.638824,8.113282 -1.819049,10.715762"
       id="path890"
       inkscape:connector-curvature="0"
       sodipodi:nodetypes="csc" />
  </g>
  <g
     inkscape:groupmode="layer"
     id="layer6"
     inkscape:label="Whiskers"
     style="display:none">
    <path
       style="fill:none;fill-opacity:1;stroke:#313131;stroke-width:2.5;stroke-linecap:round;stroke-linejoin:round;stroke-miterlimit:4;stroke-dasharray:none;stroke-opacity:1"
       d="m 68.645975,77.025193 c 9.338035,-1.395359 20.51424,-0.625306 30.695296,1.011356"
       id="path943"
       inkscape:connector-curvature="0"
       sodipodi:nodetypes="cc" />
    <path
       sodipodi:nodetypes="cc"
       inkscape:connector-curvature="0"
       id="path945"
       d="m 67.228811,83.13089 c 11.440451,0.448873 21.054841,4.550435 30.034524,11.48183"
       style="fill:none;fill-opacity:1;stroke:#313131;stroke-width:2.5;stroke-linecap:round;stroke-linejoin:round;stroke-miterlimit:4;stroke-dasharray:none;stroke-opacity:1" />
    <path
       sodipodi:nodetypes="cc"
       inkscape:connector-curvature="0"
       id="path947"
       d="M 32.895393,71.456936 C 26.718997,67.627467 21.192825,65.440905 14.567884,63.58624"
       style="fill:none;fill-opacity:1;stroke:#313131;stroke-width:2.5;stroke-linecap:round;stroke-linejoin:round;stroke-miterlimit:4;stroke-dasharray:none;stroke-opacity:1" />
    <path
       style="fill:none;fill-opacity:1;stroke:#313131;stroke-width:2.5;stroke-linecap:round;stroke-linejoin:round;stroke-miterlimit:4;stroke-dasharray:none;stroke-opacity:1"
       d="M 32.16221,76.367993 C 24.397529,74.197356 17.839504,73.28738 10.803794,73.046759"
       id="path949"
       inkscape:connector-curvature="0"
       sodipodi:nodetypes="cc" />
  </g>
</svg>
