<?xml version="1.0" encoding="UTF-8" standalone="no"?>
<!-- Created with Inkscape (http://www.inkscape.org/) -->

<svg
   xmlns:dc="http://purl.org/dc/elements/1.1/"
   xmlns:cc="http://creativecommons.org/ns#"
   xmlns:rdf="http://www.w3.org/1999/02/22-rdf-syntax-ns#"
   xmlns:svg="http://www.w3.org/2000/svg"
   xmlns="http://www.w3.org/2000/svg"
   xmlns:xlink="http://www.w3.org/1999/xlink"
   xmlns:sodipodi="http://sodipodi.sourceforge.net/DTD/sodipodi-0.dtd"
   xmlns:inkscape="http://www.inkscape.org/namespaces/inkscape"
   width="128"
   height="128"
   viewBox="0 0 128 128"
   version="1.1"
   id="svg8"
   inkscape:version="0.92.4 5da689c313, 2019-01-14"
   sodipodi:docname="blobfoxcry.svg"
   inkscape:export-filename="/home/kevin/Encfs/Media-Enc/Projekte/Grafiken/2019.07.30 - blobfox/blobfoxcry.png"
   inkscape:export-xdpi="96"
   inkscape:export-ydpi="96">
  <defs
     id="defs2">
    <linearGradient
       inkscape:collect="always"
       id="linearGradient879">
      <stop
         style="stop-color:#ff7505;stop-opacity:1"
         offset="0"
         id="stop875" />
      <stop
         style="stop-color:#ff8702;stop-opacity:1"
         offset="1"
         id="stop877" />
    </linearGradient>
    <mask
       maskUnits="userSpaceOnUse"
       id="mask914">
      <path
         sodipodi:nodetypes="sssssssss"
         inkscape:connector-curvature="0"
         id="path916"
         d="m 154.91191,68.610466 c 0,13.30933 -2.85091,14.61151 -2.85091,22.03668 0,7.52238 3.27922,9.891904 1.87863,15.118954 -1.74673,6.51888 -11.67541,15.3198 -32.30034,19.24611 -19.5495,3.72157 -44.712872,3.71493 -57.603772,1.17936 -12.97147,-2.55141 -33.636043,-9.97066 -35.993433,-20.68009 -3.35292,-15.232034 0.95023,-36.744664 10.314153,-53.450134 13.12204,-23.41004 38.49929,-39.74165 76.385222,-32.80327 18.75365,3.43453 40.17044,20.22728 40.17045,49.35239 z"
         style="opacity:1;fill:#ffffff;fill-opacity:1;fill-rule:evenodd;stroke:none;stroke-width:2.79999995;stroke-linecap:round;stroke-linejoin:round;stroke-miterlimit:4;stroke-dasharray:none;stroke-dashoffset:0;stroke-opacity:1;paint-order:markers stroke fill" />
    </mask>
    <clipPath
       clipPathUnits="userSpaceOnUse"
       id="clipPath939">
      <path
         style="opacity:1;fill:#ffffff;fill-opacity:1;fill-rule:evenodd;stroke:none;stroke-width:2.79999995;stroke-linecap:round;stroke-linejoin:round;stroke-miterlimit:4;stroke-dasharray:none;stroke-dashoffset:0;stroke-opacity:1;paint-order:markers stroke fill"
         d="m 150.70195,0.51324812 c -3.5881,-1.83838902 -33.06651,6.51462968 -45.38553,27.09708688 5.48775,7.742314 19.19939,1.052482 24.75224,0.675897 -1.51761,2.342881 -3.95771,7.251483 -4.00944,10.319043 2.25571,0.870741 6.46398,0.348129 8.50111,-1.397205 1.40822,2.738472 0.2768,11.991364 8.03107,13.355 11.96243,-15.595326 13.61577,-47.2291846 8.11055,-50.04982188 z"
         id="path941"
         inkscape:connector-curvature="0"
         sodipodi:nodetypes="scccccs" />
    </clipPath>
    <clipPath
       clipPathUnits="userSpaceOnUse"
       id="clipPath846">
      <path
         sodipodi:nodetypes="ssssssscccccccccs"
         inkscape:connector-curvature="0"
         id="path848"
         d="m 391.79445,425.41973 c 1.65688,13.01782 -0.96948,14.64639 -0.0451,21.90893 0.93646,7.35762 4.43884,9.26701 3.71966,14.55393 -0.89694,6.59355 -9.51252,16.43773 -29.19693,22.84564 -18.65801,6.07378 -43.27107,9.19988 -56.19527,8.32464 -13.005,-0.88071 -34.14057,-5.56492 -37.77955,-15.74632 -5.17572,-14.481 -3.54688,-36.67033 3.43423,-53.56343 3.058,-7.39987 11.25258,-21.29807 21.35685,-27.6922 l 8.11698,-0.59557 -12.76711,-1.32585 c 5.83499,-2.87893 11.39007,-4.67336 15.7895,-5.33112 1.44139,0.88585 3.34146,1.6891 5.00507,2.25111 -3.5138,-1.72411 -8.61797,-10.20742 -11.06095,-13.14333 13.21468,-0.66879 24.87025,3.07218 30.03025,5.55927 l -4.32337,-6.20877 c 6.88088,0.77679 11.29124,4.58866 18.48127,4.89245 18.77046,1.02466 41.8087,14.78343 45.43449,43.27062 z"
         style="opacity:1;fill:url(#linearGradient850);fill-opacity:1;fill-rule:evenodd;stroke:none;stroke-width:2.79999995;stroke-linecap:round;stroke-linejoin:round;stroke-miterlimit:4;stroke-dasharray:none;stroke-dashoffset:0;stroke-opacity:1;paint-order:markers stroke fill" />
    </clipPath>
    <linearGradient
       inkscape:collect="always"
       xlink:href="#linearGradient879"
       id="linearGradient850"
       gradientUnits="userSpaceOnUse"
       gradientTransform="matrix(0.97809727,-0.12449018,0.12449018,0.97809727,231.7888,378.02587)"
       x1="114.28658"
       y1="112.44355"
       x2="95.348198"
       y2="85.856133" />
    <clipPath
       clipPathUnits="userSpaceOnUse"
       id="clipPath848">
      <path
         sodipodi:nodetypes="scccccs"
         inkscape:connector-curvature="0"
         id="path850"
         d="M 151.14447,0.33917988 C 146.26964,-2.2314866 116.36421,8.7225203 104.2178,29.016572 c 5.41086,7.633828 19.06431,-0.122979 24.53933,-0.494288 -1.49634,2.310053 -4.03617,8.310589 -4.08717,11.335166 2.22409,0.85854 9.31981,0.611108 12.13198,-2.270484 1.5001,5.35635 -1.15567,17.091196 6.48995,18.435725 10.36626,-17.966089 13.24747,-52.8385826 7.85258,-55.68351112 z"
         style="opacity:1;fill:#333333;fill-opacity:1;fill-rule:evenodd;stroke:none;stroke-width:2.79999995;stroke-linecap:round;stroke-linejoin:round;stroke-miterlimit:4;stroke-dasharray:none;stroke-dashoffset:0;stroke-opacity:1;paint-order:markers stroke fill" />
    </clipPath>
    <clipPath
       clipPathUnits="userSpaceOnUse"
       id="clipPath894">
      <path
         sodipodi:nodetypes="scsccccs"
         inkscape:connector-curvature="0"
         id="path896"
         d="m 121.94585,8.3109743 c -4.37532,-3.118506 -39.560593,2.2049727 -52.955088,23.9097867 2.186976,5.813359 8.255215,5.868865 14.806933,5.421494 5.471008,-0.373577 7.795424,-0.09011 11.020011,1.037292 -0.942798,1.458811 -1.231225,4.319039 -2.477709,6.366205 2.352309,0.442071 6.536557,-1.167616 9.583973,-3.655515 0.75221,5.373621 -3.944168,11.098055 2.37492,14.328375 C 117.90897,40.94738 126.78797,11.7622 121.94585,8.3109743 Z"
         style="opacity:1;fill:#313131;fill-opacity:1;fill-rule:evenodd;stroke:none;stroke-width:2.80000019;stroke-linecap:round;stroke-linejoin:round;stroke-miterlimit:4;stroke-dasharray:none;stroke-dashoffset:0;stroke-opacity:1;paint-order:markers stroke fill" />
    </clipPath>
  </defs>
  <sodipodi:namedview
     id="base"
     pagecolor="#ffffff"
     bordercolor="#666666"
     borderopacity="1.0"
     inkscape:pageopacity="0.0"
     inkscape:pageshadow="2"
     inkscape:zoom="7.9476126"
     inkscape:cx="28.00145"
     inkscape:cy="70.178558"
     inkscape:document-units="px"
     inkscape:current-layer="layer5"
     showgrid="false"
     units="px"
     fit-margin-top="0"
     fit-margin-left="0"
     fit-margin-right="0"
     fit-margin-bottom="0"
     inkscape:window-width="3840"
     inkscape:window-height="1981"
     inkscape:window-x="2880"
     inkscape:window-y="0"
     inkscape:window-maximized="1"
     showguides="true" />
  <metadata
     id="metadata5">
    <rdf:RDF>
      <cc:Work
         rdf:about="">
        <dc:format>image/svg+xml</dc:format>
        <dc:type
           rdf:resource="http://purl.org/dc/dcmitype/StillImage" />
        <dc:title />
      </cc:Work>
    </rdf:RDF>
  </metadata>
  <g
     inkscape:groupmode="layer"
     id="layer3"
     inkscape:label="Ear  back">
    <path
       style="opacity:1;fill:#313131;fill-opacity:1;fill-rule:evenodd;stroke:none;stroke-width:2.79999995;stroke-linecap:round;stroke-linejoin:round;stroke-miterlimit:4;stroke-dasharray:none;stroke-dashoffset:0;stroke-opacity:1;paint-order:markers stroke fill"
       d="M 9.4762814,12.251645 C 15.091907,9.318929 33.586697,26.59295 49.064044,31.534593 L 16.970614,51.010637 C 10.106957,42.316319 4.3870744,14.909455 9.4762814,12.251645 Z"
       id="rect870"
       inkscape:connector-curvature="0"
       sodipodi:nodetypes="sccs"
       inkscape:transform-center-x="9.4644167"
       inkscape:transform-center-y="-8.0806626" />
  </g>
  <g
     inkscape:groupmode="layer"
     id="layer4"
     inkscape:label="Body">
    <path
       style="opacity:1;fill:#ff8702;fill-opacity:1;fill-rule:evenodd;stroke:none;stroke-width:2.79999995;stroke-linecap:round;stroke-linejoin:round;stroke-miterlimit:4;stroke-dasharray:none;stroke-dashoffset:0;stroke-opacity:1;paint-order:markers stroke fill"
       d="m 121.32501,72.884906 c 0,12.357861 -2.64613,13.566946 -2.64613,20.4613 0,6.984614 3.04367,9.184744 1.7437,14.038124 -1.62127,6.05284 -10.83673,14.22459 -29.980129,17.87021 -18.145206,3.45554 -41.501025,3.44937 -53.465936,1.09506 C 24.936813,123.98059 5.7566404,117.09173 3.5685861,107.14791 0.45651389,93.004791 4.5462785,72.430482 13.141845,57.518867 21.27216,43.414374 31.023471,34.160378 44.027379,34.597699 L 31.065014,31.462762 c 9.420551,-2.341976 13.586225,-3.263814 21.927818,0.709281 -4.823812,-3.706666 -7.512576,-11.11748 -9.712393,-14.328957 12.419681,0.946452 22.859302,6.415563 27.382233,9.352453 l -1.694658,-7.051296 c 5.828036,1.781602 8.39398,5.777741 15.072093,6.916424 17.406533,3.188995 37.284903,18.781259 37.284903,45.824239 z"
       id="path837"
       inkscape:connector-curvature="0"
       sodipodi:nodetypes="ssssssscccccccs" />
  </g>
  <g
     inkscape:groupmode="layer"
     id="layer5"
     inkscape:label="Ear front">
    <path
       style="opacity:1;fill:#313131;fill-opacity:1;fill-rule:evenodd;stroke:none;stroke-width:2.79999995;stroke-linecap:round;stroke-linejoin:round;stroke-miterlimit:4;stroke-dasharray:none;stroke-dashoffset:0;stroke-opacity:1;paint-order:markers stroke fill"
       d="m 126.73025,14.43807 c -4.15892,-2.964271 -37.604003,2.095921 -50.336044,22.727262 2.078818,5.525843 7.846935,5.578604 14.074619,5.15336 5.200431,-0.3551 7.409887,-0.08566 10.474985,0.985989 -0.89617,1.386663 -1.170327,4.105429 -2.35515,6.051347 2.23596,0.420207 6.21326,-1.109868 9.10996,-3.474722 0.71499,5.107855 -3.74911,10.54917 2.25746,13.619723 12.93695,-14.040676 21.37681,-41.782423 16.77417,-45.062959 z"
       id="path923-9"
       inkscape:connector-curvature="0"
       sodipodi:nodetypes="scsccccs" />
    <path
       clip-path="url(#clipPath894)"
       sodipodi:nodetypes="ssccss"
       inkscape:connector-curvature="0"
       id="path925-3"
       d="m 119.43262,11.222631 c -2.2381,-1.2528729 -11.63897,3.313758 -16.34247,8.310426 -9.5393,10.133871 -3.49156,19.319228 -30.120699,18.597822 3.872688,15.043436 12.978367,16.961397 27.625579,22.584052 -0.34529,-20.334094 12.78909,-17.928245 18.05531,-36.57405 1.99939,-7.079141 2.12019,-12.169295 0.78228,-12.91825 z"
       style="opacity:1;fill:#ebdccc;fill-opacity:1;fill-rule:evenodd;stroke:none;stroke-width:2.94568729;stroke-linecap:round;stroke-linejoin:round;stroke-miterlimit:4;stroke-dasharray:none;stroke-dashoffset:0;stroke-opacity:1;paint-order:markers stroke fill"
       transform="matrix(0.95054223,0,0,0.95054223,10.625468,6.7282477)" />
  </g>
  <g
     inkscape:label="Face"
     inkscape:groupmode="layer"
     id="layer1"
     transform="translate(-26.911905,0.03095311)">
    <path
       style="fill:none;stroke:#313131;stroke-width:3.99999976;stroke-linecap:round;stroke-linejoin:round;stroke-miterlimit:4;stroke-dasharray:none;stroke-opacity:1"
       d="m 116.96856,58.022851 c -6.53977,0.962901 -13.31348,2.865064 -17.706754,5.44766 5.791144,1.074201 10.618084,2.517801 14.921244,4.600248"
       id="path852"
       inkscape:connector-curvature="0"
       sodipodi:nodetypes="ccc" />
    <path
       sodipodi:nodetypes="ccc"
       inkscape:connector-curvature="0"
       id="path854"
       d="m 57.493048,49.6138 c 5.459739,3.119367 10.808926,7.140023 13.82235,10.925018 -5.486073,-1.08055 -10.244046,-1.502695 -14.754619,-1.184741"
       style="fill:none;stroke:#313131;stroke-width:3.99999976;stroke-linecap:round;stroke-linejoin:round;stroke-miterlimit:4;stroke-dasharray:none;stroke-opacity:1" />
    <path
       style="opacity:1;fill:#313131;fill-opacity:1;fill-rule:evenodd;stroke:none;stroke-width:3.80000043;stroke-linecap:round;stroke-linejoin:round;stroke-miterlimit:4;stroke-dasharray:none;stroke-dashoffset:0;stroke-opacity:1;paint-order:markers stroke fill"
       d="m 84.535728,75.309241 c 0,1.621145 -7.311641,7.09401 -10.059412,6.749971 -2.960305,-0.370646 -6.748648,-7.694889 -6.161573,-9.202987 1.490445,-3.828704 16.220985,-2.013471 16.220985,2.453016 z"
       id="rect902"
       inkscape:connector-curvature="0"
       sodipodi:nodetypes="ssss" />
    <path
       style="display:inline;fill:none;stroke:#313131;stroke-width:3.99999976;stroke-linecap:round;stroke-linejoin:round;stroke-miterlimit:4;stroke-dasharray:none;stroke-opacity:1"
       d="m 71.315398,60.538818 c -0.783639,5.309086 -4.266566,5.439684 -7.853972,8.485488 -3.434815,2.916251 -3.494776,7.792104 -1.747039,10.291561"
       id="path890"
       inkscape:connector-curvature="0"
       sodipodi:nodetypes="csc" />
  </g>
  <g
     inkscape:groupmode="layer"
     id="layer6"
     inkscape:label="Whiskers"
     style="display:none">
    <path
       style="fill:none;fill-opacity:1;stroke:#313131;stroke-width:2.5;stroke-linecap:round;stroke-linejoin:round;stroke-miterlimit:4;stroke-dasharray:none;stroke-opacity:1"
       d="m 68.645975,77.025193 c 9.338035,-1.395359 20.51424,-0.625306 30.695296,1.011356"
       id="path943"
       inkscape:connector-curvature="0"
       sodipodi:nodetypes="cc" />
    <path
       sodipodi:nodetypes="cc"
       inkscape:connector-curvature="0"
       id="path945"
       d="m 67.228811,83.13089 c 11.440451,0.448873 21.054841,4.550435 30.034524,11.48183"
       style="fill:none;fill-opacity:1;stroke:#313131;stroke-width:2.5;stroke-linecap:round;stroke-linejoin:round;stroke-miterlimit:4;stroke-dasharray:none;stroke-opacity:1" />
    <path
       sodipodi:nodetypes="cc"
       inkscape:connector-curvature="0"
       id="path947"
       d="M 32.895393,71.456936 C 26.718997,67.627467 21.192825,65.440905 14.567884,63.58624"
       style="fill:none;fill-opacity:1;stroke:#313131;stroke-width:2.5;stroke-linecap:round;stroke-linejoin:round;stroke-miterlimit:4;stroke-dasharray:none;stroke-opacity:1" />
    <path
       style="fill:none;fill-opacity:1;stroke:#313131;stroke-width:2.5;stroke-linecap:round;stroke-linejoin:round;stroke-miterlimit:4;stroke-dasharray:none;stroke-opacity:1"
       d="M 32.16221,76.367993 C 24.397529,74.197356 17.839504,73.28738 10.803794,73.046759"
       id="path949"
       inkscape:connector-curvature="0"
       sodipodi:nodetypes="cc" />
  </g>
  <g
     inkscape:groupmode="layer"
     id="layer2"
     inkscape:label="Blush">
    <path
       style="opacity:1;fill:#cf1d32;fill-opacity:1;fill-rule:evenodd;stroke:none;stroke-width:14;stroke-linecap:round;stroke-linejoin:round;stroke-miterlimit:4;stroke-dasharray:none;stroke-dashoffset:0;stroke-opacity:1;paint-order:stroke fill markers"
       d="m 70.936442,105.91248 c -0.730804,4.62263 -4.918056,9.11678 -10.408079,9.30335 -7.996017,0.27175 -11.01016,-7.71254 -16.408826,-9.14414 -4.577162,-1.21375 -9.480209,3.799 -15.008314,0.5938 -3.099654,-1.7972 -3.941163,-6.2286 -3.423983,-9.499942 0.921525,-5.829075 5.453161,-12.199991 12.244635,-13.010581 2.806639,-0.334984 5.589178,2.844145 9.360002,3.199523 3.539892,0.333613 8.152566,-1.22098 11.337774,0.19835 8.215491,3.660833 13.245288,12.423237 12.306791,18.35964 z"
       id="path863"
       inkscape:connector-curvature="0"
       sodipodi:nodetypes="sssssssss" />
    <path
       style="opacity:1;fill:#ffffff;fill-opacity:1;fill-rule:evenodd;stroke:none;stroke-width:9.00000095;stroke-linecap:round;stroke-linejoin:round;stroke-miterlimit:4;stroke-dasharray:none;stroke-dashoffset:0;stroke-opacity:1;paint-order:fill markers stroke"
       d="m 103.05195,82.768001 c 1.6785,2.437251 1.1979,5.9873 -1.37221,7.453349 -2.493394,1.422299 -7.182964,-0.235551 -7.678782,-3.998038 -0.579017,-4.393825 -1.118468,-6.995789 -3.854145,-13.399892 7.584205,3.384459 9.819023,5.463419 12.905137,9.944581 z"
       id="path867"
       inkscape:connector-curvature="0"
       sodipodi:nodetypes="ssscs" />
    <path
       sodipodi:nodetypes="ssscs"
       inkscape:connector-curvature="0"
       id="path872"
       d="m 109.74699,107.65423 c 0.90499,2.68167 0.15056,5.82834 -2.58405,6.55445 -2.65301,0.70446 -6.42833,-1.71256 -5.99481,-5.41823 0.34896,-2.98303 0.55146,-6.80091 0.30719,-11.399044 4.84463,3.507714 6.93038,6.288264 8.27167,10.262824 z"
       style="opacity:1;fill:#ffffff;fill-opacity:1;fill-rule:evenodd;stroke:none;stroke-width:9.00000095;stroke-linecap:round;stroke-linejoin:round;stroke-miterlimit:4;stroke-dasharray:none;stroke-dashoffset:0;stroke-opacity:1;paint-order:fill markers stroke" />
    <path
       sodipodi:nodetypes="ssscs"
       inkscape:connector-curvature="0"
       id="path874"
       d="m 11.543459,65.644829 c -2.2139442,1.313924 -3.1218473,4.28505 -1.618526,6.369152 1.458457,2.021908 5.774168,2.41037 7.532464,-0.375271 2.053343,-3.253066 3.424976,-5.108448 7.915966,-9.166174 -7.234855,-0.07403 -9.75933,0.75649 -13.829904,3.172293 z"
       style="opacity:1;fill:#ffffff;fill-opacity:1;fill-rule:evenodd;stroke:#ff8702;stroke-width:1.99999988;stroke-linecap:round;stroke-linejoin:round;stroke-miterlimit:4;stroke-dasharray:none;stroke-dashoffset:0;stroke-opacity:1;paint-order:markers stroke fill" />
    <path
       style="opacity:1;fill:#ffffff;fill-opacity:1;fill-rule:evenodd;stroke:#ff8702;stroke-width:2;stroke-linecap:round;stroke-linejoin:round;stroke-miterlimit:4;stroke-dasharray:none;stroke-dashoffset:0;stroke-opacity:1;paint-order:markers stroke fill"
       d="m 1.327351,87.529838 c -0.80561566,2.431318 -0.1340272,5.284215 2.3003056,5.94255 2.3616926,0.638688 5.4566055,-1.53197 5.3365428,-4.912409 -0.078181,-2.20123 -0.084083,-5.899533 0.075248,-10.334871 -4.3126678,3.180253 -6.51808,5.701204 -7.7120964,9.30473 z"
       id="path895"
       inkscape:connector-curvature="0"
       sodipodi:nodetypes="ssscs" />
  </g>
</svg>
