<?xml version="1.0" encoding="UTF-8" standalone="no"?>
<svg
   xmlns:dc="http://purl.org/dc/elements/1.1/"
   xmlns:cc="http://creativecommons.org/ns#"
   xmlns:rdf="http://www.w3.org/1999/02/22-rdf-syntax-ns#"
   xmlns:svg="http://www.w3.org/2000/svg"
   xmlns="http://www.w3.org/2000/svg"
   xmlns:xlink="http://www.w3.org/1999/xlink"
   xmlns:sodipodi="http://sodipodi.sourceforge.net/DTD/sodipodi-0.dtd"
   xmlns:inkscape="http://www.inkscape.org/namespaces/inkscape"
   inkscape:export-ydpi="96"
   inkscape:export-xdpi="96"
   inkscape:export-filename="/home/kevin/Encfs/Media-Enc/Projekte/Grafiken/2019.07.30 - blobfox/blobfoxterrified.png"
   sodipodi:docname="blobfoxnompizzaterrified.svg"
   inkscape:version="1.0 (4035a4fb49, 2020-05-01)"
   id="svg8"
   version="1.1"
   viewBox="0 0 128 128"
   height="128"
   width="128">
  <defs
     id="defs2">
    <linearGradient
       id="linearGradient852"
       inkscape:collect="always">
      <stop
         id="stop848"
         offset="0"
         style="stop-color:#47aee3;stop-opacity:1" />
      <stop
         id="stop850"
         offset="1"
         style="stop-color:#ff8702;stop-opacity:1" />
    </linearGradient>
    <linearGradient
       id="linearGradient879"
       inkscape:collect="always">
      <stop
         id="stop875"
         offset="0"
         style="stop-color:#ff7505;stop-opacity:1" />
      <stop
         id="stop877"
         offset="1"
         style="stop-color:#ff8702;stop-opacity:1" />
    </linearGradient>
    <mask
       id="mask914"
       maskUnits="userSpaceOnUse">
      <path
         style="opacity:1;fill:#ffffff;fill-opacity:1;fill-rule:evenodd;stroke:none;stroke-width:2.79999995;stroke-linecap:round;stroke-linejoin:round;stroke-miterlimit:4;stroke-dasharray:none;stroke-dashoffset:0;stroke-opacity:1;paint-order:markers stroke fill"
         d="m 154.91191,68.610466 c 0,13.30933 -2.85091,14.61151 -2.85091,22.03668 0,7.52238 3.27922,9.891904 1.87863,15.118954 -1.74673,6.51888 -11.67541,15.3198 -32.30034,19.24611 -19.5495,3.72157 -44.712872,3.71493 -57.603772,1.17936 -12.97147,-2.55141 -33.636043,-9.97066 -35.993433,-20.68009 -3.35292,-15.232034 0.95023,-36.744664 10.314153,-53.450134 13.12204,-23.41004 38.49929,-39.74165 76.385222,-32.80327 18.75365,3.43453 40.17044,20.22728 40.17045,49.35239 z"
         id="path916"
         inkscape:connector-curvature="0"
         sodipodi:nodetypes="sssssssss" />
    </mask>
    <clipPath
       id="clipPath939"
       clipPathUnits="userSpaceOnUse">
      <path
         sodipodi:nodetypes="scccccs"
         inkscape:connector-curvature="0"
         id="path941"
         d="m 150.70195,0.51324812 c -3.5881,-1.83838902 -33.06651,6.51462968 -45.38553,27.09708688 5.48775,7.742314 19.19939,1.052482 24.75224,0.675897 -1.51761,2.342881 -3.95771,7.251483 -4.00944,10.319043 2.25571,0.870741 6.46398,0.348129 8.50111,-1.397205 1.40822,2.738472 0.2768,11.991364 8.03107,13.355 11.96243,-15.595326 13.61577,-47.2291846 8.11055,-50.04982188 z"
         style="opacity:1;fill:#ffffff;fill-opacity:1;fill-rule:evenodd;stroke:none;stroke-width:2.79999995;stroke-linecap:round;stroke-linejoin:round;stroke-miterlimit:4;stroke-dasharray:none;stroke-dashoffset:0;stroke-opacity:1;paint-order:markers stroke fill" />
    </clipPath>
    <clipPath
       id="clipPath846"
       clipPathUnits="userSpaceOnUse">
      <path
         style="opacity:1;fill:url(#linearGradient850);fill-opacity:1;fill-rule:evenodd;stroke:none;stroke-width:2.79999995;stroke-linecap:round;stroke-linejoin:round;stroke-miterlimit:4;stroke-dasharray:none;stroke-dashoffset:0;stroke-opacity:1;paint-order:markers stroke fill"
         d="m 391.79445,425.41973 c 1.65688,13.01782 -0.96948,14.64639 -0.0451,21.90893 0.93646,7.35762 4.43884,9.26701 3.71966,14.55393 -0.89694,6.59355 -9.51252,16.43773 -29.19693,22.84564 -18.65801,6.07378 -43.27107,9.19988 -56.19527,8.32464 -13.005,-0.88071 -34.14057,-5.56492 -37.77955,-15.74632 -5.17572,-14.481 -3.54688,-36.67033 3.43423,-53.56343 3.058,-7.39987 11.25258,-21.29807 21.35685,-27.6922 l 8.11698,-0.59557 -12.76711,-1.32585 c 5.83499,-2.87893 11.39007,-4.67336 15.7895,-5.33112 1.44139,0.88585 3.34146,1.6891 5.00507,2.25111 -3.5138,-1.72411 -8.61797,-10.20742 -11.06095,-13.14333 13.21468,-0.66879 24.87025,3.07218 30.03025,5.55927 l -4.32337,-6.20877 c 6.88088,0.77679 11.29124,4.58866 18.48127,4.89245 18.77046,1.02466 41.8087,14.78343 45.43449,43.27062 z"
         id="path848"
         inkscape:connector-curvature="0"
         sodipodi:nodetypes="ssssssscccccccccs" />
    </clipPath>
    <linearGradient
       y2="85.856133"
       x2="95.348198"
       y1="112.44355"
       x1="114.28658"
       gradientTransform="matrix(0.97809727,-0.12449018,0.12449018,0.97809727,231.7888,378.02587)"
       gradientUnits="userSpaceOnUse"
       id="linearGradient850"
       xlink:href="#linearGradient879"
       inkscape:collect="always" />
    <clipPath
       id="clipPath848"
       clipPathUnits="userSpaceOnUse">
      <path
         style="opacity:1;fill:#333333;fill-opacity:1;fill-rule:evenodd;stroke:none;stroke-width:2.79999995;stroke-linecap:round;stroke-linejoin:round;stroke-miterlimit:4;stroke-dasharray:none;stroke-dashoffset:0;stroke-opacity:1;paint-order:markers stroke fill"
         d="M 151.14447,0.33917988 C 146.26964,-2.2314866 116.36421,8.7225203 104.2178,29.016572 c 5.41086,7.633828 19.06431,-0.122979 24.53933,-0.494288 -1.49634,2.310053 -4.03617,8.310589 -4.08717,11.335166 2.22409,0.85854 9.31981,0.611108 12.13198,-2.270484 1.5001,5.35635 -1.15567,17.091196 6.48995,18.435725 10.36626,-17.966089 13.24747,-52.8385826 7.85258,-55.68351112 z"
         id="path850"
         inkscape:connector-curvature="0"
         sodipodi:nodetypes="scccccs" />
    </clipPath>
    <linearGradient
       gradientTransform="matrix(0.93562168,0,0,0.93562215,-23.894348,2.3963242)"
       gradientUnits="userSpaceOnUse"
       y2="72.158119"
       x2="83.60672"
       y1="28.658424"
       x1="95.349739"
       id="linearGradient854"
       xlink:href="#linearGradient852"
       inkscape:collect="always" />
    <clipPath
       id="clipPath894"
       clipPathUnits="userSpaceOnUse">
      <path
         style="opacity:1;fill:#313131;fill-opacity:1;fill-rule:evenodd;stroke:none;stroke-width:2.80000019;stroke-linecap:round;stroke-linejoin:round;stroke-miterlimit:4;stroke-dasharray:none;stroke-dashoffset:0;stroke-opacity:1;paint-order:markers stroke fill"
         d="m 121.94585,8.3109743 c -4.37532,-3.118506 -39.560593,2.2049727 -52.955088,23.9097867 2.186976,5.813359 8.255215,5.868865 14.806933,5.421494 5.471008,-0.373577 7.795424,-0.09011 11.020011,1.037292 -0.942798,1.458811 -1.231225,4.319039 -2.477709,6.366205 2.352309,0.442071 6.536557,-1.167616 9.583973,-3.655515 0.75221,5.373621 -3.944168,11.098055 2.37492,14.328375 C 117.90897,40.94738 126.78797,11.7622 121.94585,8.3109743 Z"
         id="path896"
         inkscape:connector-curvature="0"
         sodipodi:nodetypes="scsccccs" />
    </clipPath>
    <clipPath
       clipPathUnits="userSpaceOnUse"
       id="clipPath884">
      <path
         sodipodi:nodetypes="ssccss"
         inkscape:connector-curvature="0"
         id="path886"
         d="m -30.067009,88.478396 c 1.854516,-0.01903 3.123637,2.340402 3.794015,4.069618 l 18.492476,47.700696 c -15.16546,8.46737 -29.970572,7.34948 -44.541414,0 l 18.632909,-47.721741 c 0.658592,-1.686754 1.811341,-4.029995 3.622014,-4.048573 z"
         style="opacity:0.154;fill:#ff0000;fill-opacity:1;fill-rule:evenodd;stroke:none;stroke-width:5;stroke-linecap:round;stroke-linejoin:round;stroke-miterlimit:4;stroke-dasharray:none;stroke-dashoffset:0;stroke-opacity:1;paint-order:markers stroke fill" />
    </clipPath>
    <clipPath
       clipPathUnits="userSpaceOnUse"
       id="clipPath890">
      <path
         sodipodi:nodetypes="ssccss"
         inkscape:connector-curvature="0"
         id="path892"
         d="m -30.067009,88.478396 c 1.854516,-0.01903 3.123637,2.340402 3.794015,4.069618 l 18.492476,47.700696 c -15.16546,8.46737 -29.970572,7.34948 -44.541414,0 l 18.632909,-47.721741 c 0.658592,-1.686754 1.811341,-4.029995 3.622014,-4.048573 z"
         style="opacity:0.154;fill:#ff0000;fill-opacity:1;fill-rule:evenodd;stroke:none;stroke-width:5;stroke-linecap:round;stroke-linejoin:round;stroke-miterlimit:4;stroke-dasharray:none;stroke-dashoffset:0;stroke-opacity:1;paint-order:markers stroke fill" />
    </clipPath>
    <clipPath
       clipPathUnits="userSpaceOnUse"
       id="clipPath908">
      <path
         sodipodi:nodetypes="ssccss"
         inkscape:connector-curvature="0"
         id="path910"
         d="m -30.067009,88.478396 c 1.854516,-0.01903 3.123637,2.340402 3.794015,4.069618 l 18.492476,47.700696 c -15.16546,8.46737 -29.970572,7.34948 -44.541414,0 l 18.632909,-47.721741 c 0.658592,-1.686754 1.811341,-4.029995 3.622014,-4.048573 z"
         style="opacity:0.154;fill:#ff0000;fill-opacity:1;fill-rule:evenodd;stroke:none;stroke-width:5;stroke-linecap:round;stroke-linejoin:round;stroke-miterlimit:4;stroke-dasharray:none;stroke-dashoffset:0;stroke-opacity:1;paint-order:markers stroke fill" />
    </clipPath>
    <clipPath
       clipPathUnits="userSpaceOnUse"
       id="clipPath902">
      <path
         sodipodi:nodetypes="ssccss"
         inkscape:connector-curvature="0"
         id="path904"
         d="m -30.067009,88.478396 c 1.854516,-0.01903 3.123637,2.340402 3.794015,4.069618 l 18.492476,47.700696 c -15.16546,8.46737 -29.970572,7.34948 -44.541414,0 l 18.632909,-47.721741 c 0.658592,-1.686754 1.811341,-4.029995 3.622014,-4.048573 z"
         style="opacity:0.154;fill:#ff0000;fill-opacity:1;fill-rule:evenodd;stroke:none;stroke-width:5;stroke-linecap:round;stroke-linejoin:round;stroke-miterlimit:4;stroke-dasharray:none;stroke-dashoffset:0;stroke-opacity:1;paint-order:markers stroke fill" />
    </clipPath>
    <clipPath
       clipPathUnits="userSpaceOnUse"
       id="clipPath896">
      <path
         sodipodi:nodetypes="ssccss"
         inkscape:connector-curvature="0"
         id="path898"
         d="m -30.067009,88.478396 c 1.854516,-0.01903 3.123637,2.340402 3.794015,4.069618 l 18.492476,47.700696 c -15.16546,8.46737 -29.970572,7.34948 -44.541414,0 l 18.632909,-47.721741 c 0.658592,-1.686754 1.811341,-4.029995 3.622014,-4.048573 z"
         style="opacity:0.154;fill:#ff0000;fill-opacity:1;fill-rule:evenodd;stroke:none;stroke-width:5;stroke-linecap:round;stroke-linejoin:round;stroke-miterlimit:4;stroke-dasharray:none;stroke-dashoffset:0;stroke-opacity:1;paint-order:markers stroke fill" />
    </clipPath>
  </defs>
  <sodipodi:namedview
     inkscape:document-rotation="0"
     showguides="false"
     inkscape:window-maximized="1"
     inkscape:window-y="0"
     inkscape:window-x="1536"
     inkscape:window-height="992"
     inkscape:window-width="1920"
     fit-margin-bottom="0"
     fit-margin-right="0"
     fit-margin-left="0"
     fit-margin-top="0"
     units="px"
     showgrid="false"
     inkscape:current-layer="layer4"
     inkscape:document-units="px"
     inkscape:cy="58.708749"
     inkscape:cx="-138.12717"
     inkscape:zoom="2"
     inkscape:pageshadow="2"
     inkscape:pageopacity="0.0"
     borderopacity="1.0"
     bordercolor="#666666"
     pagecolor="#ffffff"
     id="base" />
  <metadata
     id="metadata5">
    <rdf:RDF>
      <cc:Work
         rdf:about="">
        <dc:format>image/svg+xml</dc:format>
        <dc:type
           rdf:resource="http://purl.org/dc/dcmitype/StillImage" />
        <dc:title></dc:title>
      </cc:Work>
    </rdf:RDF>
  </metadata>
  <g
     inkscape:label="Ear  back"
     id="layer3"
     inkscape:groupmode="layer">
    <path
       sodipodi:nodetypes="sccs"
       inkscape:connector-curvature="0"
       id="rect870"
       d="M 27.006205,5.8466392 C 32.42756,5.6064012 44.45955,21.824511 47.721346,31.003104 L 17.061429,49.191673 C 14.389114,31.513367 22.18802,6.0601502 27.006205,5.8466392 Z"
       style="opacity:1;fill:#313131;fill-opacity:1;fill-rule:evenodd;stroke:none;stroke-width:2.8;stroke-linecap:round;stroke-linejoin:round;stroke-miterlimit:4;stroke-dasharray:none;stroke-dashoffset:0;stroke-opacity:1;paint-order:markers stroke fill" />
  </g>
  <g
     inkscape:label="Body"
     id="layer4"
     inkscape:groupmode="layer">
    <path
       sodipodi:nodetypes="ssssssscccccccs"
       inkscape:connector-curvature="0"
       id="path837"
       d="m 119.34715,67.36799 c 0,12.27802 -2.63001,13.479293 -2.63001,20.329105 0,6.939495 3.02512,9.125415 1.73308,13.947425 -1.61138,6.01373 -10.7707,14.13269 -29.797446,17.75477 -18.034641,3.43318 -41.248144,3.42706 -53.14015,1.08796 C 23.546287,118.13355 4.4829853,111.2892 2.3082637,101.40962 -0.7848455,87.357886 3.2799985,66.916502 11.823189,52.10123 19.903965,38.087861 29.595856,28.893654 42.520526,29.328148 l -12.88338,-3.114682 c 9.363147,-2.326844 13.503439,-3.242727 21.794204,0.704696 -4.794421,-3.682715 -7.466799,-11.045651 -9.653212,-14.236379 12.344003,0.940337 22.720011,6.374114 27.215383,9.292029 l -1.684333,-7.00574 c 5.792525,1.770093 8.342833,5.740414 14.980254,6.871739 17.300468,3.168392 37.057708,18.659918 37.057708,45.528179 z"
       style="opacity:1;fill:url(#linearGradient854);fill-opacity:1;fill-rule:evenodd;stroke:none;stroke-width:2.8;stroke-linecap:round;stroke-linejoin:round;stroke-miterlimit:4;stroke-dasharray:none;stroke-dashoffset:0;stroke-opacity:1;paint-order:markers stroke fill" />
  </g>
  <g
     inkscape:label="Ear front"
     id="layer5"
     inkscape:groupmode="layer">
    <path
       sodipodi:nodetypes="scscs"
       inkscape:connector-curvature="0"
       id="path911"
       d="m 307.47812,-23.699174 c -4.45817,-6.852749 -40.26067,-2.753849 -54.3926,4.954826 0.42481,5.547202 6.09159,10.7018704 11.93776,12.6842084 21.42765,7.26576 30.33439,-16.1384574 40.84748,-10.0600534 1.83397,-3.519133 2.46826,-6.255666 1.60736,-7.578981 z"
       style="opacity:1;fill:#313131;fill-opacity:1;fill-rule:evenodd;stroke:none;stroke-width:2.80000019;stroke-linecap:round;stroke-linejoin:round;stroke-miterlimit:4;stroke-dasharray:none;stroke-dashoffset:0;stroke-opacity:1;paint-order:markers stroke fill" />
    <path
       style="opacity:1;fill:#ebdccc;fill-opacity:1;fill-rule:evenodd;stroke:none;stroke-width:2.80000019;stroke-linecap:round;stroke-linejoin:round;stroke-miterlimit:4;stroke-dasharray:none;stroke-dashoffset:0;stroke-opacity:1;paint-order:markers stroke fill"
       d="m 306.15518,-19.90331 c -1.59057,-1.812009 -10.73333,1.910105 -15.71547,6.007508 -9.73482,8.0061144 -14.69449,8.9950024 -26.91248,7.7018174 11.76047,5.62420203 22.80529,3.736781 29.88162,1.616781 -3.14398,-1.068272 -3.74702,-0.992851 -5.54905,-2.547673 6.48034,1.364575 11.44157,0.21792 13.0478,-3.1519194 -1.89967,0.181475 -3.49045,0.3763584 -6.55703,-1.183979 4.53326,0.51894 7.52767,-0.151811 9.80974,-2.279461 1.81767,-1.92759 3.52789,-4.416627 1.99487,-6.163074 z"
       id="path913"
       inkscape:connector-curvature="0"
       sodipodi:nodetypes="ssccccccs"
       clip-path="none" />
    <path
       sodipodi:nodetypes="scscs"
       inkscape:connector-curvature="0"
       id="path923-9-5"
       d="m 283.44276,-53.324572 c -8.13244,-1.078843 -36.34135,0.83431 -52.35754,15.549653 -0.0652,6.185773 9.8366,10.354301 15.95836,11.148835 22.43781,2.912163 24.81014,-22.844771 36.31291,-18.951416 1.10648,-3.810969 1.65127,-7.539462 0.0863,-7.747072 z"
       style="opacity:1;fill:#313131;fill-opacity:1;fill-rule:evenodd;stroke:none;stroke-width:2.80000019;stroke-linecap:round;stroke-linejoin:round;stroke-miterlimit:4;stroke-dasharray:none;stroke-dashoffset:0;stroke-opacity:1;paint-order:markers stroke fill" />
    <path
       style="opacity:1;fill:#ebdccc;fill-opacity:1;fill-rule:evenodd;stroke:none;stroke-width:2.80000019;stroke-linecap:round;stroke-linejoin:round;stroke-miterlimit:4;stroke-dasharray:none;stroke-dashoffset:0;stroke-opacity:1;paint-order:markers stroke fill"
       d="m 282.97147,-49.263086 c -1.92562,-1.450975 -10.2282,3.902967 -14.30775,8.899732 -7.97122,9.763417 -9.39898,14.700696 -21.93136,13.890809 12.63654,3.202827 19.93553,2.700271 26.07662,-1.872284 -3.29263,-0.429447 -6.05047,0.64655 -8.12296,-0.523729 6.62214,0.06417 13.18672,-3.336698 14.09923,-6.956519 -1.82694,0.551336 -3.34838,1.055103 -6.66184,0.127978 5.01899,-0.337884 7.22457,-2.652823 8.49624,-4.472242 3.85234,-5.51167 3.50292,-8.226364 2.35182,-9.093742 z"
       id="path925-3-2"
       inkscape:connector-curvature="0"
       sodipodi:nodetypes="cscccccssc"
       clip-path="none" />
    <path
       sodipodi:nodetypes="scsccccs"
       inkscape:connector-curvature="0"
       id="path911-8"
       d="m 127.38996,20.584224 c -2.71497,-3.191486 -33.994146,-0.422978 -44.963024,10.034273 0.694228,4.738013 2.241632,6.082579 3.935075,7.123264 2.643255,1.624381 5.415603,-1.261855 6.254405,-4.345994 2.368422,1.554492 4.761831,6.485501 4.999874,9.656352 0.273175,0.569956 4.74632,-1.434552 6.11979,-3.286143 1.1459,2.221555 1.26616,9.89074 4.63796,12.426886 16.04152,-7.363475 21.61213,-28.55675 19.01592,-31.608638 z"
       style="opacity:1;fill:#313131;fill-opacity:1;fill-rule:evenodd;stroke:none;stroke-width:2.8;stroke-linecap:round;stroke-linejoin:round;stroke-miterlimit:4;stroke-dasharray:none;stroke-dashoffset:0;stroke-opacity:1;paint-order:markers stroke fill" />
  </g>
  <g
     transform="translate(-26.911905,0.03095311)"
     id="layer1"
     inkscape:groupmode="layer"
     inkscape:label="Face">
    <ellipse
       transform="matrix(0.98788674,-0.15517661,0.02204362,0.99975701,0,0)"
       ry="9.339221"
       rx="8.2362146"
       cy="73.976227"
       cx="102.18095"
       id="path885"
       style="opacity:1;fill:#ffffff;fill-opacity:1;fill-rule:evenodd;stroke:#ffffff;stroke-width:8.03597178;stroke-linecap:round;stroke-linejoin:round;stroke-miterlimit:4;stroke-dasharray:none;stroke-dashoffset:0;stroke-opacity:1;paint-order:fill markers stroke" />
    <ellipse
       style="opacity:1;fill:#fefefe;fill-opacity:1;fill-rule:evenodd;stroke:#ffffff;stroke-width:8.03984429;stroke-linecap:round;stroke-linejoin:round;stroke-miterlimit:4;stroke-dasharray:none;stroke-dashoffset:0;stroke-opacity:1;paint-order:fill markers stroke"
       id="ellipse887"
       cx="71.000053"
       cy="51.377453"
       rx="7.6313419"
       ry="8.9906292"
       transform="matrix(0.99926374,0.03836634,-0.17815682,0.98400211,0,0)" />
    <ellipse
       style="opacity:1;fill:#313131;fill-opacity:1;fill-rule:evenodd;stroke:none;stroke-width:4.09439;stroke-linecap:round;stroke-linejoin:round;stroke-miterlimit:4;stroke-dasharray:none;stroke-dashoffset:0;stroke-opacity:1;paint-order:fill markers stroke"
       id="ellipse841"
       cx="100.31297"
       cy="96.936615"
       rx="3.6872585"
       ry="5.0689125"
       transform="matrix(0.92474084,-0.3805974,0.08725692,0.99618584,0,0)" />
    <ellipse
       transform="matrix(0.9502267,-0.31155935,0.01375906,0.99990534,0,0)"
       ry="5.0689125"
       rx="3.6872587"
       cy="73.562546"
       cx="63.943161"
       id="ellipse846"
       style="opacity:1;fill:#313131;fill-opacity:1;fill-rule:evenodd;stroke:none;stroke-width:4.09439;stroke-linecap:round;stroke-linejoin:round;stroke-miterlimit:4;stroke-dasharray:none;stroke-dashoffset:0;stroke-opacity:1;paint-order:fill markers stroke" />
    <path
       sodipodi:nodetypes="ssscs"
       inkscape:connector-curvature="0"
       id="path867"
       d="m 127.93582,90.47708 c 0,3.26235 -2.64464,5.90702 -5.907,5.90702 -3.26236,0 -5.907,-2.64467 -5.907,-5.90702 0,-6.08175 3.13008,-7.236834 5.907,-17.839162 2.77161,10.717735 5.907,11.840946 5.907,17.839162 z"
       style="opacity:1;fill:#ffffff;fill-opacity:1;fill-rule:evenodd;stroke:none;stroke-width:9.00001;stroke-linecap:round;stroke-linejoin:round;stroke-miterlimit:4;stroke-dasharray:none;stroke-dashoffset:0;stroke-opacity:1;paint-order:fill markers stroke" />
    <g
       transform="translate(-2.1764003,-0.01431471)"
       id="g976">
      <path
         sodipodi:nodetypes="ssccss"
         inkscape:connector-curvature="0"
         id="rect867"
         d="m 77.689693,73.756208 c 1.625042,0.33927 2.280058,2.647829 2.533019,4.2899 l 6.977976,45.296852 c -14.890178,4.49997 -27.618682,0.68011 -38.941832,-8.5487 l 25.4842,-38.189909 c 0.900754,-1.349841 2.360016,-3.179402 3.946637,-2.848143 z"
         style="opacity:1;fill:#ffcd4c;fill-opacity:1;fill-rule:evenodd;stroke:none;stroke-width:5;stroke-linecap:round;stroke-linejoin:round;stroke-miterlimit:4;stroke-dasharray:none;stroke-dashoffset:0;stroke-opacity:1;paint-order:markers stroke fill" />
      <path
         sodipodi:nodetypes="cc"
         inkscape:connector-curvature="0"
         id="path865"
         d="m 48.105567,114.71702 c 5.860802,8.44486 30.564451,13.79312 39.342763,8.63672"
         style="fill:none;fill-opacity:1;stroke:#ab671c;stroke-width:5;stroke-linecap:round;stroke-linejoin:round;stroke-miterlimit:4;stroke-dasharray:none;stroke-opacity:1" />
      <circle
         transform="matrix(0.8742836,0.19192698,-0.19265325,0.87519973,121.02243,2.0906052)"
         clip-path="url(#clipPath884)"
         r="6.7857141"
         cy="126.94225"
         cx="-18.266666"
         id="path870"
         style="opacity:1;fill:#bf122d;fill-opacity:1;fill-rule:evenodd;stroke:none;stroke-width:5.58268;stroke-linecap:round;stroke-linejoin:round;stroke-miterlimit:4;stroke-dasharray:none;stroke-dashoffset:0;stroke-opacity:1;paint-order:markers stroke fill" />
      <ellipse
         transform="matrix(0.97674176,0.21441907,-0.21497811,0.97661887,0,0)"
         ry="6.081038"
         rx="6.0739074"
         style="opacity:1;fill:#bf122d;fill-opacity:1;fill-rule:evenodd;stroke:none;stroke-width:5;stroke-linecap:round;stroke-linejoin:round;stroke-miterlimit:4;stroke-dasharray:none;stroke-dashoffset:0;stroke-opacity:1;paint-order:markers stroke fill"
         id="circle872"
         cx="88.905136"
         cy="97.213387" />
      <circle
         transform="matrix(0.8742836,0.19192698,-0.19265325,0.87519973,121.02243,2.0906052)"
         clip-path="url(#clipPath890)"
         r="6.7857141"
         cy="106.76368"
         cx="-21.570238"
         id="circle874"
         style="opacity:1;fill:#bf122d;fill-opacity:1;fill-rule:evenodd;stroke:none;stroke-width:5.58268;stroke-linecap:round;stroke-linejoin:round;stroke-miterlimit:4;stroke-dasharray:none;stroke-dashoffset:0;stroke-opacity:1;paint-order:markers stroke fill" />
      <circle
         transform="matrix(0.8742836,0.19192698,-0.19265325,0.87519973,121.02243,2.0906052)"
         clip-path="url(#clipPath908)"
         style="opacity:1;fill:#bf122d;fill-opacity:1;fill-rule:evenodd;stroke:none;stroke-width:5.58268;stroke-linecap:round;stroke-linejoin:round;stroke-miterlimit:4;stroke-dasharray:none;stroke-dashoffset:0;stroke-opacity:1;paint-order:markers stroke fill"
         id="circle876"
         cx="-36.838097"
         cy="96.674393"
         r="6.7857141" />
      <circle
         transform="matrix(0.8742836,0.19192698,-0.19265325,0.87519973,121.02243,2.0906052)"
         clip-path="url(#clipPath902)"
         r="6.7857141"
         cy="115.11189"
         cx="-38.400597"
         id="circle878"
         style="opacity:1;fill:#bf122d;fill-opacity:1;fill-rule:evenodd;stroke:none;stroke-width:5.58268;stroke-linecap:round;stroke-linejoin:round;stroke-miterlimit:4;stroke-dasharray:none;stroke-dashoffset:0;stroke-opacity:1;paint-order:markers stroke fill" />
      <circle
         transform="matrix(0.8742836,0.19192698,-0.19265325,0.87519973,121.02243,2.0906052)"
         clip-path="url(#clipPath896)"
         style="opacity:1;fill:#bf122d;fill-opacity:1;fill-rule:evenodd;stroke:none;stroke-width:5.58268;stroke-linecap:round;stroke-linejoin:round;stroke-miterlimit:4;stroke-dasharray:none;stroke-dashoffset:0;stroke-opacity:1;paint-order:markers stroke fill"
         id="circle880"
         cx="-50.141666"
         cy="128.46011"
         r="6.7857141" />
    </g>
    <rect
       style="opacity:1;fill:#ff8702;fill-opacity:1;fill-rule:evenodd;stroke:none;stroke-width:5;stroke-linecap:round;stroke-linejoin:round;stroke-miterlimit:4;stroke-dasharray:none;stroke-dashoffset:0;stroke-opacity:1;paint-order:markers stroke fill"
       id="rect941"
       width="32.410713"
       height="15"
       x="68.064407"
       y="58.762146"
       transform="rotate(7.536053)" />
    <path
       style="fill:#ff8702;fill-opacity:1;stroke:#313131;stroke-width:4.4;stroke-linecap:round;stroke-linejoin:round;stroke-miterlimit:4;stroke-dasharray:none;stroke-opacity:1"
       d="m 56.94286,79.196044 c 0.8163,3.941657 3.06019,8.970356 5.22978,12.298406 4.19759,-2.235835 6.87062,-6.510438 10.10903,-9.521618 1.52026,2.000383 4.9055,9.01842 8.25817,12.410018 4.3923,-2.521433 9.83596,-8.173599 11.24253,-9.490985"
       id="path889-3"
       inkscape:connector-curvature="0"
       sodipodi:nodetypes="ccccc" />
    <path
       style="opacity:1;fill:#313131;fill-opacity:1;fill-rule:evenodd;stroke:none;stroke-width:3.8;stroke-linecap:round;stroke-linejoin:round;stroke-miterlimit:4;stroke-dasharray:none;stroke-dashoffset:0;stroke-opacity:1;paint-order:markers stroke fill"
       d="m 82.35077,69.801979 c 0,1.611327 -7.26739,7.051066 -9.99853,6.70911 -2.94238,-0.3684 -6.70779,-7.648312 -6.12427,-9.147282 1.48142,-3.805527 16.1228,-2.00128 16.1228,2.438172 z"
       id="rect902-5"
       inkscape:connector-curvature="0"
       sodipodi:nodetypes="ssss" />
    <path
       sodipodi:nodetypes="csc"
       inkscape:connector-curvature="0"
       id="path890"
       d="m 73.118214,53.475643 c -1.935415,6.881732 -6.333857,7.880343 -9.789407,10.8142 -3.34615,2.840974 -3.765691,6.753205 -3.07917,9.494507"
       style="display:inline;fill:none;stroke:#313131;stroke-width:4;stroke-linecap:round;stroke-linejoin:round;stroke-miterlimit:4;stroke-dasharray:none;stroke-opacity:1" />
  </g>
  <g
     style="display:none"
     inkscape:label="Whiskers"
     id="layer6"
     inkscape:groupmode="layer">
    <path
       sodipodi:nodetypes="cc"
       inkscape:connector-curvature="0"
       id="path943"
       d="m 68.645975,77.025193 c 9.338035,-1.395359 20.51424,-0.625306 30.695296,1.011356"
       style="fill:none;fill-opacity:1;stroke:#313131;stroke-width:2.5;stroke-linecap:round;stroke-linejoin:round;stroke-miterlimit:4;stroke-dasharray:none;stroke-opacity:1" />
    <path
       style="fill:none;fill-opacity:1;stroke:#313131;stroke-width:2.5;stroke-linecap:round;stroke-linejoin:round;stroke-miterlimit:4;stroke-dasharray:none;stroke-opacity:1"
       d="m 67.228811,83.13089 c 11.440451,0.448873 21.054841,4.550435 30.034524,11.48183"
       id="path945"
       inkscape:connector-curvature="0"
       sodipodi:nodetypes="cc" />
    <path
       style="fill:none;fill-opacity:1;stroke:#313131;stroke-width:2.5;stroke-linecap:round;stroke-linejoin:round;stroke-miterlimit:4;stroke-dasharray:none;stroke-opacity:1"
       d="M 32.895393,71.456936 C 26.718997,67.627467 21.192825,65.440905 14.567884,63.58624"
       id="path947"
       inkscape:connector-curvature="0"
       sodipodi:nodetypes="cc" />
    <path
       sodipodi:nodetypes="cc"
       inkscape:connector-curvature="0"
       id="path949"
       d="M 32.16221,76.367993 C 24.397529,74.197356 17.839504,73.28738 10.803794,73.046759"
       style="fill:none;fill-opacity:1;stroke:#313131;stroke-width:2.5;stroke-linecap:round;stroke-linejoin:round;stroke-miterlimit:4;stroke-dasharray:none;stroke-opacity:1" />
  </g>
</svg>
