<?xml version="1.0" encoding="UTF-8" standalone="no"?>
<svg
   xmlns:dc="http://purl.org/dc/elements/1.1/"
   xmlns:cc="http://creativecommons.org/ns#"
   xmlns:rdf="http://www.w3.org/1999/02/22-rdf-syntax-ns#"
   xmlns:svg="http://www.w3.org/2000/svg"
   xmlns="http://www.w3.org/2000/svg"
   xmlns:xlink="http://www.w3.org/1999/xlink"
   xmlns:sodipodi="http://sodipodi.sourceforge.net/DTD/sodipodi-0.dtd"
   xmlns:inkscape="http://www.inkscape.org/namespaces/inkscape"
   inkscape:export-ydpi="96"
   inkscape:export-xdpi="96"
   inkscape:export-filename="/home/kevin/Encfs/Media-Enc/Projekte/Grafiken/2019.07.30 - blobfox/blobfoxsignbaka.png"
   sodipodi:docname="blobfoxsignnoublush.svg"
   inkscape:version="1.0 (4035a4fb49, 2020-05-01)"
   id="svg8"
   version="1.1"
   viewBox="0 0 128 128"
   height="128"
   width="128">
  <defs
     id="defs2">
    <linearGradient
       id="linearGradient879"
       inkscape:collect="always">
      <stop
         id="stop875"
         offset="0"
         style="stop-color:#ff7505;stop-opacity:1" />
      <stop
         id="stop877"
         offset="1"
         style="stop-color:#ff8702;stop-opacity:1" />
    </linearGradient>
    <mask
       id="mask914"
       maskUnits="userSpaceOnUse">
      <path
         style="opacity:1;fill:#ffffff;fill-opacity:1;fill-rule:evenodd;stroke:none;stroke-width:2.79999995;stroke-linecap:round;stroke-linejoin:round;stroke-miterlimit:4;stroke-dasharray:none;stroke-dashoffset:0;stroke-opacity:1;paint-order:markers stroke fill"
         d="m 154.91191,68.610466 c 0,13.30933 -2.85091,14.61151 -2.85091,22.03668 0,7.52238 3.27922,9.891904 1.87863,15.118954 -1.74673,6.51888 -11.67541,15.3198 -32.30034,19.24611 -19.5495,3.72157 -44.712872,3.71493 -57.603772,1.17936 -12.97147,-2.55141 -33.636043,-9.97066 -35.993433,-20.68009 -3.35292,-15.232034 0.95023,-36.744664 10.314153,-53.450134 13.12204,-23.41004 38.49929,-39.74165 76.385222,-32.80327 18.75365,3.43453 40.17044,20.22728 40.17045,49.35239 z"
         id="path916"
         inkscape:connector-curvature="0"
         sodipodi:nodetypes="sssssssss" />
    </mask>
    <clipPath
       id="clipPath939"
       clipPathUnits="userSpaceOnUse">
      <path
         sodipodi:nodetypes="scccccs"
         inkscape:connector-curvature="0"
         id="path941"
         d="m 150.70195,0.51324812 c -3.5881,-1.83838902 -33.06651,6.51462968 -45.38553,27.09708688 5.48775,7.742314 19.19939,1.052482 24.75224,0.675897 -1.51761,2.342881 -3.95771,7.251483 -4.00944,10.319043 2.25571,0.870741 6.46398,0.348129 8.50111,-1.397205 1.40822,2.738472 0.2768,11.991364 8.03107,13.355 11.96243,-15.595326 13.61577,-47.2291846 8.11055,-50.04982188 z"
         style="opacity:1;fill:#ffffff;fill-opacity:1;fill-rule:evenodd;stroke:none;stroke-width:2.79999995;stroke-linecap:round;stroke-linejoin:round;stroke-miterlimit:4;stroke-dasharray:none;stroke-dashoffset:0;stroke-opacity:1;paint-order:markers stroke fill" />
    </clipPath>
    <clipPath
       id="clipPath846"
       clipPathUnits="userSpaceOnUse">
      <path
         style="opacity:1;fill:url(#linearGradient850);fill-opacity:1;fill-rule:evenodd;stroke:none;stroke-width:2.79999995;stroke-linecap:round;stroke-linejoin:round;stroke-miterlimit:4;stroke-dasharray:none;stroke-dashoffset:0;stroke-opacity:1;paint-order:markers stroke fill"
         d="m 391.79445,425.41973 c 1.65688,13.01782 -0.96948,14.64639 -0.0451,21.90893 0.93646,7.35762 4.43884,9.26701 3.71966,14.55393 -0.89694,6.59355 -9.51252,16.43773 -29.19693,22.84564 -18.65801,6.07378 -43.27107,9.19988 -56.19527,8.32464 -13.005,-0.88071 -34.14057,-5.56492 -37.77955,-15.74632 -5.17572,-14.481 -3.54688,-36.67033 3.43423,-53.56343 3.058,-7.39987 11.25258,-21.29807 21.35685,-27.6922 l 8.11698,-0.59557 -12.76711,-1.32585 c 5.83499,-2.87893 11.39007,-4.67336 15.7895,-5.33112 1.44139,0.88585 3.34146,1.6891 5.00507,2.25111 -3.5138,-1.72411 -8.61797,-10.20742 -11.06095,-13.14333 13.21468,-0.66879 24.87025,3.07218 30.03025,5.55927 l -4.32337,-6.20877 c 6.88088,0.77679 11.29124,4.58866 18.48127,4.89245 18.77046,1.02466 41.8087,14.78343 45.43449,43.27062 z"
         id="path848"
         inkscape:connector-curvature="0"
         sodipodi:nodetypes="ssssssscccccccccs" />
    </clipPath>
    <linearGradient
       y2="85.856133"
       x2="95.348198"
       y1="112.44355"
       x1="114.28658"
       gradientTransform="matrix(0.97809727,-0.12449018,0.12449018,0.97809727,231.7888,378.02587)"
       gradientUnits="userSpaceOnUse"
       id="linearGradient850"
       xlink:href="#linearGradient879"
       inkscape:collect="always" />
    <clipPath
       id="clipPath848"
       clipPathUnits="userSpaceOnUse">
      <path
         style="opacity:1;fill:#333333;fill-opacity:1;fill-rule:evenodd;stroke:none;stroke-width:2.79999995;stroke-linecap:round;stroke-linejoin:round;stroke-miterlimit:4;stroke-dasharray:none;stroke-dashoffset:0;stroke-opacity:1;paint-order:markers stroke fill"
         d="M 151.14447,0.33917988 C 146.26964,-2.2314866 116.36421,8.7225203 104.2178,29.016572 c 5.41086,7.633828 19.06431,-0.122979 24.53933,-0.494288 -1.49634,2.310053 -4.03617,8.310589 -4.08717,11.335166 2.22409,0.85854 9.31981,0.611108 12.13198,-2.270484 1.5001,5.35635 -1.15567,17.091196 6.48995,18.435725 10.36626,-17.966089 13.24747,-52.8385826 7.85258,-55.68351112 z"
         id="path850"
         inkscape:connector-curvature="0"
         sodipodi:nodetypes="scccccs" />
    </clipPath>
    <filter
       height="2.5132236"
       y="-0.75661182"
       width="1.9352237"
       x="-0.46761182"
       id="filter1040"
       style="color-interpolation-filters:sRGB"
       inkscape:collect="always">
      <feGaussianBlur
         id="feGaussianBlur1042"
         stdDeviation="5.1626067"
         inkscape:collect="always" />
    </filter>
    <filter
       height="2.5132236"
       y="-0.75661182"
       width="1.9352237"
       x="-0.46761182"
       id="filter1036"
       style="color-interpolation-filters:sRGB"
       inkscape:collect="always">
      <feGaussianBlur
         id="feGaussianBlur1038"
         stdDeviation="5.1626067"
         inkscape:collect="always" />
    </filter>
    <clipPath
       id="clipPath894"
       clipPathUnits="userSpaceOnUse">
      <path
         style="opacity:1;fill:#313131;fill-opacity:1;fill-rule:evenodd;stroke:none;stroke-width:2.80000019;stroke-linecap:round;stroke-linejoin:round;stroke-miterlimit:4;stroke-dasharray:none;stroke-dashoffset:0;stroke-opacity:1;paint-order:markers stroke fill"
         d="m 121.94585,8.3109743 c -4.37532,-3.118506 -39.560593,2.2049727 -52.955088,23.9097867 2.186976,5.813359 8.255215,5.868865 14.806933,5.421494 5.471008,-0.373577 7.795424,-0.09011 11.020011,1.037292 -0.942798,1.458811 -1.231225,4.319039 -2.477709,6.366205 2.352309,0.442071 6.536557,-1.167616 9.583973,-3.655515 0.75221,5.373621 -3.944168,11.098055 2.37492,14.328375 C 117.90897,40.94738 126.78797,11.7622 121.94585,8.3109743 Z"
         id="path896"
         inkscape:connector-curvature="0"
         sodipodi:nodetypes="scsccccs" />
    </clipPath>
  </defs>
  <sodipodi:namedview
     inkscape:document-rotation="0"
     showguides="false"
     inkscape:window-maximized="1"
     inkscape:window-y="0"
     inkscape:window-x="0"
     inkscape:window-height="1983"
     inkscape:window-width="3840"
     fit-margin-bottom="0"
     fit-margin-right="0"
     fit-margin-left="0"
     fit-margin-top="0"
     units="px"
     showgrid="false"
     inkscape:current-layer="layer2"
     inkscape:document-units="px"
     inkscape:cy="140.37529"
     inkscape:cx="-169.82762"
     inkscape:zoom="1.9999999"
     inkscape:pageshadow="2"
     inkscape:pageopacity="0.0"
     borderopacity="1.0"
     bordercolor="#666666"
     pagecolor="#ffffff"
     id="base" />
  <metadata
     id="metadata5">
    <rdf:RDF>
      <cc:Work
         rdf:about="">
        <dc:format>image/svg+xml</dc:format>
        <dc:type
           rdf:resource="http://purl.org/dc/dcmitype/StillImage" />
        <dc:title></dc:title>
      </cc:Work>
    </rdf:RDF>
  </metadata>
  <g
     inkscape:label="Ear  back"
     id="layer3"
     inkscape:groupmode="layer">
    <path
       inkscape:transform-center-y="-8.2438431"
       inkscape:transform-center-x="9.6553051"
       sodipodi:nodetypes="sccs"
       inkscape:connector-curvature="0"
       id="rect870"
       d="M 7.0853572,5.9136578 C 12.814243,2.9217158 31.682053,20.544574 47.47156,25.586036 L 14.730841,45.455374 C 7.728751,36.585483 1.8935067,8.6251397 7.0853572,5.9136578 Z"
       style="opacity:1;fill:#313131;fill-opacity:1;fill-rule:evenodd;stroke:none;stroke-width:2.79999971;stroke-linecap:round;stroke-linejoin:round;stroke-miterlimit:4;stroke-dasharray:none;stroke-dashoffset:0;stroke-opacity:1;paint-order:markers stroke fill" />
  </g>
  <g
     inkscape:label="Body"
     id="layer4"
     inkscape:groupmode="layer">
    <path
       sodipodi:nodetypes="ssssssscccccccs"
       inkscape:connector-curvature="0"
       id="path837"
       d="m 121.18201,67.786593 c 0,12.604144 -2.69933,13.837323 -2.69933,20.869077 0,7.123818 3.10486,9.367805 1.77876,14.31784 -1.65386,6.17343 -11.05458,14.50804 -30.582795,18.22631 -18.509959,3.52438 -42.335277,3.51811 -54.540707,1.11688 C 22.856214,119.90046 3.2904821,112.87432 1.0584436,102.73242 -2.1161874,88.307449 2.0557894,67.32311 10.824145,52.114294 19.117895,37.728708 29.065227,28.290287 42.330538,28.736323 L 29.107605,25.538909 c 9.609922,-2.388671 13.859335,-3.328884 22.36861,0.723414 -4.920779,-3.780561 -7.663591,-11.339067 -9.90763,-14.61454 12.669341,0.965314 23.318819,6.543413 27.932671,9.538832 l -1.728727,-7.191816 c 5.945193,1.817105 8.562717,5.892881 15.375075,7.054258 17.756446,3.252573 38.034406,19.155582 38.034406,46.737536 z"
       style="opacity:1;fill:#ff8702;fill-opacity:1;fill-rule:evenodd;stroke:none;stroke-width:2.79999948;stroke-linecap:round;stroke-linejoin:round;stroke-miterlimit:4;stroke-dasharray:none;stroke-dashoffset:0;stroke-opacity:1;paint-order:markers stroke fill" />
  </g>
  <g
     inkscape:label="Ear front"
     id="layer5"
     inkscape:groupmode="layer">
    <path
       sodipodi:nodetypes="scsccccs"
       inkscape:connector-curvature="0"
       id="path923-9"
       d="m 126.70464,8.1438784 c -4.2428,-3.0241362 -38.362434,2.1382456 -51.351268,23.1862386 2.120746,5.637431 8.0052,5.691258 14.358488,5.257426 5.305317,-0.36227 7.559339,-0.08739 10.68627,1.005901 -0.914265,1.414665 -1.193949,4.188334 -2.402677,6.17355 2.281067,0.428691 6.338587,-1.132284 9.293697,-3.544893 0.72942,5.211003 -3.82472,10.762201 2.303,13.894762 13.19787,-14.324215 21.80797,-42.626202 17.11249,-45.9729846 z"
       style="opacity:1;fill:#313131;fill-opacity:1;fill-rule:evenodd;stroke:none;stroke-width:2.79999971;stroke-linecap:round;stroke-linejoin:round;stroke-miterlimit:4;stroke-dasharray:none;stroke-dashoffset:0;stroke-opacity:1;paint-order:markers stroke fill" />
    <path
       transform="matrix(0.96971365,0,0,0.96973827,8.258154,0.27835588)"
       style="opacity:1;fill:#ebdccc;fill-opacity:1;fill-rule:evenodd;stroke:none;stroke-width:2.88741493;stroke-linecap:round;stroke-linejoin:round;stroke-miterlimit:4;stroke-dasharray:none;stroke-dashoffset:0;stroke-opacity:1;paint-order:markers stroke fill"
       d="m 119.43262,11.222631 c -2.2381,-1.2528729 -11.63897,3.313758 -16.34247,8.310426 -9.5393,10.133871 -3.49156,19.319228 -30.120699,18.597822 3.872688,15.043436 12.978367,16.961397 27.625579,22.584052 -0.34529,-20.334094 12.78909,-17.928245 18.05531,-36.57405 1.99939,-7.079141 2.12019,-12.169295 0.78228,-12.91825 z"
       id="path925-3"
       inkscape:connector-curvature="0"
       sodipodi:nodetypes="ssccss"
       clip-path="url(#clipPath894)" />
  </g>
  <g
     transform="translate(-26.911905,0.03095311)"
     id="layer1"
     inkscape:groupmode="layer"
     inkscape:label="Face">
    <path
       sodipodi:nodetypes="csc"
       inkscape:connector-curvature="0"
       id="path890"
       d="m 67.089075,55.190072 c -0.639722,5.916083 -3.265869,9.64044 -6.211386,12.141764 -3.434568,2.91663 -3.494525,7.793116 -1.746913,10.292898"
       style="display:inline;fill:none;stroke:#313131;stroke-width:4;stroke-linecap:round;stroke-linejoin:round;stroke-miterlimit:4;stroke-dasharray:none;stroke-opacity:1" />
    <path
       sodipodi:nodetypes="ssss"
       inkscape:connector-curvature="0"
       id="rect902"
       d="m 81.951057,73.531904 c 0,1.621355 -7.311124,7.094931 -10.0587,6.750849 -2.960094,-0.370694 -6.748168,-7.695891 -6.161133,-9.204183 1.490337,-3.829203 16.219833,-2.013732 16.219833,2.453334 z"
       style="opacity:1;fill:#313131;fill-opacity:1;fill-rule:evenodd;stroke:none;stroke-width:3.80000043;stroke-linecap:round;stroke-linejoin:round;stroke-miterlimit:4;stroke-dasharray:none;stroke-dashoffset:0;stroke-opacity:1;paint-order:markers stroke fill" />
    <path
       sodipodi:nodetypes="ccc"
       inkscape:connector-curvature="0"
       id="path852"
       d="m 114.90533,51.836102 c -7.13265,1.059257 -14.52042,3.151765 -19.311976,5.992797 6.316146,1.181699 11.580686,2.769759 16.273946,5.060613"
       style="fill:none;stroke:#313131;stroke-width:4;stroke-linecap:round;stroke-linejoin:round;stroke-miterlimit:4;stroke-dasharray:none;stroke-opacity:1" />
    <path
       style="fill:none;stroke:#313131;stroke-width:3.99999976;stroke-linecap:round;stroke-linejoin:round;stroke-miterlimit:4;stroke-dasharray:none;stroke-opacity:1"
       d="m 52.352097,43.530848 c 5.819969,3.334579 11.522087,7.632625 14.734337,11.678754 -5.848041,-1.1551 -10.91994,-1.606369 -15.728115,-1.26648"
       id="path854"
       inkscape:connector-curvature="0"
       sodipodi:nodetypes="ccc" />
  </g>
  <g
     style="display:inline"
     inkscape:label="Blush"
     id="layer7"
     inkscape:groupmode="layer">
    <path
       sodipodi:nodetypes="cc"
       inkscape:connector-curvature="0"
       id="path856"
       d="M 12.58694,80.369526 24.13691,64.914772"
       style="opacity:0.3;fill:none;stroke:#ff001d;stroke-width:4;stroke-linecap:round;stroke-linejoin:round;stroke-miterlimit:4;stroke-dasharray:none;stroke-opacity:1" />
    <path
       style="opacity:0.3;fill:none;stroke:#ff001d;stroke-width:4;stroke-linecap:round;stroke-linejoin:round;stroke-miterlimit:4;stroke-dasharray:none;stroke-opacity:1"
       d="M 22.876358,81.597048 35.042749,65.085858"
       id="path877"
       inkscape:connector-curvature="0"
       sodipodi:nodetypes="cc" />
    <path
       sodipodi:nodetypes="cc"
       inkscape:connector-curvature="0"
       id="path883"
       d="M 60.432578,88.514786 73.752663,70.537078"
       style="opacity:0.3;fill:none;stroke:#ff001d;stroke-width:4;stroke-linecap:round;stroke-linejoin:round;stroke-miterlimit:4;stroke-dasharray:none;stroke-opacity:1" />
    <path
       style="opacity:0.3;fill:none;stroke:#ff001d;stroke-width:4;stroke-linecap:round;stroke-linejoin:round;stroke-miterlimit:4;stroke-dasharray:none;stroke-opacity:1"
       d="M 72.677786,88.373528 84.227757,72.918776"
       id="path885"
       inkscape:connector-curvature="0"
       sodipodi:nodetypes="cc" />
    <ellipse
       transform="matrix(0.95291355,0,0,0.95310557,0,2.0026048)"
       ry="8.1879873"
       rx="13.248442"
       cy="81.807755"
       cx="76.852341"
       id="path1008"
       style="opacity:0.3;fill:#ff001d;fill-opacity:1;fill-rule:evenodd;stroke:none;stroke-width:14.69030857;stroke-linecap:round;stroke-linejoin:round;stroke-miterlimit:4;stroke-dasharray:none;stroke-dashoffset:0;stroke-opacity:1;paint-order:stroke fill markers;filter:url(#filter1036)" />
    <ellipse
       transform="matrix(0.95291355,0,0,0.95310557,0,2.0026048)"
       style="opacity:0.3;fill:#ff001d;fill-opacity:1;fill-rule:evenodd;stroke:none;stroke-width:14.69030857;stroke-linecap:round;stroke-linejoin:round;stroke-miterlimit:4;stroke-dasharray:none;stroke-dashoffset:0;stroke-opacity:1;paint-order:stroke fill markers;filter:url(#filter1040)"
       id="ellipse1010"
       cx="25.146698"
       cy="73.134117"
       rx="13.248442"
       ry="8.1879873" />
  </g>
  <g
     style="display:inline"
     inkscape:label="Sign"
     id="layer2"
     inkscape:groupmode="layer">
    <rect
       transform="rotate(3.3556029)"
       inkscape:transform-center-y="-25.93257"
       inkscape:transform-center-x="-46.867684"
       y="77.973679"
       x="9.0788727"
       height="40.757442"
       width="91.89109"
       id="rect847"
       style="opacity:1;fill:#ffffff;fill-opacity:1;fill-rule:evenodd;stroke:#313131;stroke-width:4;stroke-linecap:round;stroke-linejoin:miter;stroke-miterlimit:1.5;stroke-dasharray:none;stroke-dashoffset:0;stroke-opacity:1;paint-order:fill markers stroke" />
    <path
       inkscape:transform-center-y="-27.024211"
       inkscape:transform-center-x="-50.235208"
       style="opacity:1;fill:#313131;fill-opacity:1;fill-rule:evenodd;stroke:#313131;stroke-width:2.99999976;stroke-linecap:round;stroke-linejoin:miter;stroke-miterlimit:1.5;stroke-dasharray:none;stroke-dashoffset:0;stroke-opacity:1;paint-order:fill markers stroke"
       d="M 3.2908878,77.587997 97.257423,83.356655 94.863297,125.31884 98.258138,122.99621 100.51912,81.17617 7.7281964,75.384441 Z"
       id="path849"
       inkscape:connector-curvature="0"
       sodipodi:nodetypes="ccccccc" />
    <text
       inkscape:transform-center-y="-25.932553"
       inkscape:transform-center-x="-46.867684"
       transform="matrix(0.99715382,0.05846649,-0.05859927,0.99941844,0,0)"
       id="text853"
       y="108.24699"
       x="17.735952"
       style="font-style:normal;font-variant:normal;font-weight:normal;font-stretch:normal;font-size:29.3333px;line-height:1.25;font-family:'Agency FB';-inkscape-font-specification:'Agency FB';letter-spacing:0px;word-spacing:0px;fill:#313131;fill-opacity:1;stroke:none;stroke-width:1"
       xml:space="preserve"><tspan
         style="font-style:normal;font-variant:normal;font-weight:bold;font-stretch:normal;font-size:29.3333px;font-family:Gilroy;-inkscape-font-specification:'Gilroy Bold';letter-spacing:1px;fill:#313131;fill-opacity:1;stroke-width:1"
         y="108.24699"
         x="17.735952"
         id="tspan851"
         sodipodi:role="line">NO U</tspan></text>
    <path
       sodipodi:nodetypes="csc"
       inkscape:connector-curvature="0"
       id="path915"
       d="m 109.35296,91.739552 c -4.62611,0.80316 -6.68322,-0.480553 -12.322337,1.157541 -9.63262,2.798167 -7.25144,16.368027 5.464787,18.719597"
       style="fill:#ff8702;fill-opacity:1;stroke:#313131;stroke-width:4;stroke-linecap:round;stroke-linejoin:round;stroke-miterlimit:4;stroke-dasharray:none;stroke-opacity:1" />
  </g>
  <g
     style="display:none"
     inkscape:label="Whiskers"
     id="layer6"
     inkscape:groupmode="layer">
    <path
       sodipodi:nodetypes="cc"
       inkscape:connector-curvature="0"
       id="path943"
       d="m 68.645975,77.025193 c 9.338035,-1.395359 20.51424,-0.625306 30.695296,1.011356"
       style="fill:none;fill-opacity:1;stroke:#313131;stroke-width:2.5;stroke-linecap:round;stroke-linejoin:round;stroke-miterlimit:4;stroke-dasharray:none;stroke-opacity:1" />
    <path
       style="fill:none;fill-opacity:1;stroke:#313131;stroke-width:2.5;stroke-linecap:round;stroke-linejoin:round;stroke-miterlimit:4;stroke-dasharray:none;stroke-opacity:1"
       d="m 67.228811,83.13089 c 11.440451,0.448873 21.054841,4.550435 30.034524,11.48183"
       id="path945"
       inkscape:connector-curvature="0"
       sodipodi:nodetypes="cc" />
    <path
       style="fill:none;fill-opacity:1;stroke:#313131;stroke-width:2.5;stroke-linecap:round;stroke-linejoin:round;stroke-miterlimit:4;stroke-dasharray:none;stroke-opacity:1"
       d="M 32.895393,71.456936 C 26.718997,67.627467 21.192825,65.440905 14.567884,63.58624"
       id="path947"
       inkscape:connector-curvature="0"
       sodipodi:nodetypes="cc" />
    <path
       sodipodi:nodetypes="cc"
       inkscape:connector-curvature="0"
       id="path949"
       d="M 32.16221,76.367993 C 24.397529,74.197356 17.839504,73.28738 10.803794,73.046759"
       style="fill:none;fill-opacity:1;stroke:#313131;stroke-width:2.5;stroke-linecap:round;stroke-linejoin:round;stroke-miterlimit:4;stroke-dasharray:none;stroke-opacity:1" />
  </g>
</svg>
