<?xml version="1.0" encoding="UTF-8" standalone="no"?>
<!-- Created with Inkscape (http://www.inkscape.org/) -->

<svg
   xmlns:dc="http://purl.org/dc/elements/1.1/"
   xmlns:cc="http://creativecommons.org/ns#"
   xmlns:rdf="http://www.w3.org/1999/02/22-rdf-syntax-ns#"
   xmlns:svg="http://www.w3.org/2000/svg"
   xmlns="http://www.w3.org/2000/svg"
   xmlns:xlink="http://www.w3.org/1999/xlink"
   xmlns:sodipodi="http://sodipodi.sourceforge.net/DTD/sodipodi-0.dtd"
   xmlns:inkscape="http://www.inkscape.org/namespaces/inkscape"
   width="128"
   height="128"
   viewBox="0 0 128 128"
   version="1.1"
   id="svg8"
   inkscape:version="0.92.4 5da689c313, 2019-01-14"
   sodipodi:docname="blobfoxoutage.svg"
   inkscape:export-filename="/home/kevin/Encfs/Media-Enc/Projekte/Grafiken/2019.07.30 - blobfox/blobfoxoutage.png"
   inkscape:export-xdpi="96"
   inkscape:export-ydpi="96">
  <defs
     id="defs2">
    <linearGradient
       inkscape:collect="always"
       id="linearGradient879">
      <stop
         style="stop-color:#ff7505;stop-opacity:1"
         offset="0"
         id="stop875" />
      <stop
         style="stop-color:#ff8702;stop-opacity:1"
         offset="1"
         id="stop877" />
    </linearGradient>
    <mask
       maskUnits="userSpaceOnUse"
       id="mask914">
      <path
         sodipodi:nodetypes="sssssssss"
         inkscape:connector-curvature="0"
         id="path916"
         d="m 154.91191,68.610466 c 0,13.30933 -2.85091,14.61151 -2.85091,22.03668 0,7.52238 3.27922,9.891904 1.87863,15.118954 -1.74673,6.51888 -11.67541,15.3198 -32.30034,19.24611 -19.5495,3.72157 -44.712872,3.71493 -57.603772,1.17936 -12.97147,-2.55141 -33.636043,-9.97066 -35.993433,-20.68009 -3.35292,-15.232034 0.95023,-36.744664 10.314153,-53.450134 13.12204,-23.41004 38.49929,-39.74165 76.385222,-32.80327 18.75365,3.43453 40.17044,20.22728 40.17045,49.35239 z"
         style="opacity:1;fill:#ffffff;fill-opacity:1;fill-rule:evenodd;stroke:none;stroke-width:2.79999995;stroke-linecap:round;stroke-linejoin:round;stroke-miterlimit:4;stroke-dasharray:none;stroke-dashoffset:0;stroke-opacity:1;paint-order:markers stroke fill" />
    </mask>
    <clipPath
       clipPathUnits="userSpaceOnUse"
       id="clipPath939">
      <path
         style="opacity:1;fill:#ffffff;fill-opacity:1;fill-rule:evenodd;stroke:none;stroke-width:2.79999995;stroke-linecap:round;stroke-linejoin:round;stroke-miterlimit:4;stroke-dasharray:none;stroke-dashoffset:0;stroke-opacity:1;paint-order:markers stroke fill"
         d="m 150.70195,0.51324812 c -3.5881,-1.83838902 -33.06651,6.51462968 -45.38553,27.09708688 5.48775,7.742314 19.19939,1.052482 24.75224,0.675897 -1.51761,2.342881 -3.95771,7.251483 -4.00944,10.319043 2.25571,0.870741 6.46398,0.348129 8.50111,-1.397205 1.40822,2.738472 0.2768,11.991364 8.03107,13.355 11.96243,-15.595326 13.61577,-47.2291846 8.11055,-50.04982188 z"
         id="path941"
         inkscape:connector-curvature="0"
         sodipodi:nodetypes="scccccs" />
    </clipPath>
    <clipPath
       clipPathUnits="userSpaceOnUse"
       id="clipPath846">
      <path
         sodipodi:nodetypes="ssssssscccccccccs"
         inkscape:connector-curvature="0"
         id="path848"
         d="m 391.79445,425.41973 c 1.65688,13.01782 -0.96948,14.64639 -0.0451,21.90893 0.93646,7.35762 4.43884,9.26701 3.71966,14.55393 -0.89694,6.59355 -9.51252,16.43773 -29.19693,22.84564 -18.65801,6.07378 -43.27107,9.19988 -56.19527,8.32464 -13.005,-0.88071 -34.14057,-5.56492 -37.77955,-15.74632 -5.17572,-14.481 -3.54688,-36.67033 3.43423,-53.56343 3.058,-7.39987 11.25258,-21.29807 21.35685,-27.6922 l 8.11698,-0.59557 -12.76711,-1.32585 c 5.83499,-2.87893 11.39007,-4.67336 15.7895,-5.33112 1.44139,0.88585 3.34146,1.6891 5.00507,2.25111 -3.5138,-1.72411 -8.61797,-10.20742 -11.06095,-13.14333 13.21468,-0.66879 24.87025,3.07218 30.03025,5.55927 l -4.32337,-6.20877 c 6.88088,0.77679 11.29124,4.58866 18.48127,4.89245 18.77046,1.02466 41.8087,14.78343 45.43449,43.27062 z"
         style="opacity:1;fill:url(#linearGradient850);fill-opacity:1;fill-rule:evenodd;stroke:none;stroke-width:2.79999995;stroke-linecap:round;stroke-linejoin:round;stroke-miterlimit:4;stroke-dasharray:none;stroke-dashoffset:0;stroke-opacity:1;paint-order:markers stroke fill" />
    </clipPath>
    <linearGradient
       inkscape:collect="always"
       xlink:href="#linearGradient879"
       id="linearGradient850"
       gradientUnits="userSpaceOnUse"
       gradientTransform="matrix(0.97809727,-0.12449018,0.12449018,0.97809727,231.7888,378.02587)"
       x1="114.28658"
       y1="112.44355"
       x2="95.348198"
       y2="85.856133" />
    <clipPath
       clipPathUnits="userSpaceOnUse"
       id="clipPath848">
      <path
         sodipodi:nodetypes="scccccs"
         inkscape:connector-curvature="0"
         id="path850"
         d="M 151.14447,0.33917988 C 146.26964,-2.2314866 116.36421,8.7225203 104.2178,29.016572 c 5.41086,7.633828 19.06431,-0.122979 24.53933,-0.494288 -1.49634,2.310053 -4.03617,8.310589 -4.08717,11.335166 2.22409,0.85854 9.31981,0.611108 12.13198,-2.270484 1.5001,5.35635 -1.15567,17.091196 6.48995,18.435725 10.36626,-17.966089 13.24747,-52.8385826 7.85258,-55.68351112 z"
         style="opacity:1;fill:#333333;fill-opacity:1;fill-rule:evenodd;stroke:none;stroke-width:2.79999995;stroke-linecap:round;stroke-linejoin:round;stroke-miterlimit:4;stroke-dasharray:none;stroke-dashoffset:0;stroke-opacity:1;paint-order:markers stroke fill" />
    </clipPath>
  </defs>
  <sodipodi:namedview
     id="base"
     pagecolor="#ffffff"
     bordercolor="#666666"
     borderopacity="1.0"
     inkscape:pageopacity="0.0"
     inkscape:pageshadow="2"
     inkscape:zoom="3.959798"
     inkscape:cx="-30.07666"
     inkscape:cy="65.023618"
     inkscape:document-units="px"
     inkscape:current-layer="layer4"
     showgrid="false"
     units="px"
     fit-margin-top="0"
     fit-margin-left="0"
     fit-margin-right="0"
     fit-margin-bottom="0"
     inkscape:window-width="3840"
     inkscape:window-height="1981"
     inkscape:window-x="2880"
     inkscape:window-y="0"
     inkscape:window-maximized="1"
     showguides="false" />
  <metadata
     id="metadata5">
    <rdf:RDF>
      <cc:Work
         rdf:about="">
        <dc:format>image/svg+xml</dc:format>
        <dc:type
           rdf:resource="http://purl.org/dc/dcmitype/StillImage" />
        <dc:title></dc:title>
      </cc:Work>
    </rdf:RDF>
  </metadata>
  <g
     inkscape:groupmode="layer"
     id="layer3"
     inkscape:label="Ear  back">
    <path
       style="opacity:1;fill:#3f3036;fill-opacity:1;fill-rule:evenodd;stroke:#f24747;stroke-width:15;stroke-linecap:round;stroke-linejoin:round;stroke-miterlimit:4;stroke-dasharray:none;stroke-dashoffset:0;stroke-opacity:1;paint-order:markers stroke fill"
       d="m 116.25098,7.5674093 c -6.16095,-0.04796 -22.801838,6.4569737 -34.049013,17.9548747 -5.01922,-1.3937 -7.466899,-4.577656 -12.389754,-6.081961 l 1.587679,6.601993 C 67.163782,23.292743 57.386308,18.172236 45.754221,17.286151 47.814536,20.292797 50.33361,27.231689 54.85152,30.70194 51.908528,29.300743 49.519629,28.5502 47.214472,28.275698 33.850426,21.261977 22.1305,5.8063388 17.256926,7.8015963 12.466522,9.7628133 16.752078,37.500048 22.116395,47.334348 20.523329,49.511325 18.996356,51.884703 17.52728,54.432266 9.4767996,68.392804 5.6461307,87.654853 8.5608505,100.8959 c 2.0492985,9.3096 20.0124465,15.75934 31.2886495,17.97727 11.206154,2.20413 33.081088,2.20883 50.075614,-1.0263 17.929416,-3.41309 26.560396,-11.06375 28.078846,-16.73056 1.21753,-4.543807 -1.63245,-6.602857 -1.63245,-13.141988 0,-6.454627 2.47796,-7.587137 2.47796,-19.156803 0,-7.239332 -1.52618,-13.598296 -4.08114,-19.063817 6.15998,-16.783126 7.39966,-39.680065 3.2804,-41.8522317 -0.41166,-0.217074 -1.02154,-0.328017 -1.79775,-0.334061 z"
       id="rect870"
       inkscape:connector-curvature="0" />
    <g
       id="g899"
       style="fill:#ffffff;fill-opacity:1"
       transform="translate(-1.2626907,-3.2829957)">
      <path
         sodipodi:nodetypes="ccccc"
         inkscape:connector-curvature="0"
         id="rect853"
         d="M 52.51965,50.853905 69.101341,52.987058 63.256103,80.197551 51.43513,78.676841 Z"
         style="opacity:1;fill:#ffffff;fill-opacity:1;fill-rule:evenodd;stroke:none;stroke-width:15;stroke-linecap:round;stroke-linejoin:miter;stroke-miterlimit:4;stroke-dasharray:none;stroke-dashoffset:0;stroke-opacity:1;paint-order:markers stroke fill" />
      <rect
         transform="rotate(7.532362)"
         ry="2.7060523"
         y="75.518585"
         x="60.910839"
         height="12.693847"
         width="12.693847"
         id="rect871"
         style="opacity:1;fill:#ffffff;fill-opacity:1;fill-rule:evenodd;stroke:none;stroke-width:15.00000095;stroke-linecap:round;stroke-linejoin:miter;stroke-miterlimit:4;stroke-dasharray:none;stroke-dashoffset:0;stroke-opacity:1;paint-order:markers stroke fill" />
    </g>
  </g>
  <g
     inkscape:groupmode="layer"
     id="layer4"
     inkscape:label="Body" />
  <g
     inkscape:groupmode="layer"
     id="layer5"
     inkscape:label="Ear front" />
  <g
     inkscape:label="Face"
     inkscape:groupmode="layer"
     id="layer1"
     transform="translate(-26.911905,0.03095311)" />
  <g
     inkscape:groupmode="layer"
     id="layer6"
     inkscape:label="Whiskers"
     style="display:none">
    <path
       style="fill:none;fill-opacity:1;stroke:#313131;stroke-width:2.5;stroke-linecap:round;stroke-linejoin:round;stroke-miterlimit:4;stroke-dasharray:none;stroke-opacity:1"
       d="m 68.645975,77.025193 c 9.338035,-1.395359 20.51424,-0.625306 30.695296,1.011356"
       id="path943"
       inkscape:connector-curvature="0"
       sodipodi:nodetypes="cc" />
    <path
       sodipodi:nodetypes="cc"
       inkscape:connector-curvature="0"
       id="path945"
       d="m 67.228811,83.13089 c 11.440451,0.448873 21.054841,4.550435 30.034524,11.48183"
       style="fill:none;fill-opacity:1;stroke:#313131;stroke-width:2.5;stroke-linecap:round;stroke-linejoin:round;stroke-miterlimit:4;stroke-dasharray:none;stroke-opacity:1" />
    <path
       sodipodi:nodetypes="cc"
       inkscape:connector-curvature="0"
       id="path947"
       d="M 32.895393,71.456936 C 26.718997,67.627467 21.192825,65.440905 14.567884,63.58624"
       style="fill:none;fill-opacity:1;stroke:#313131;stroke-width:2.5;stroke-linecap:round;stroke-linejoin:round;stroke-miterlimit:4;stroke-dasharray:none;stroke-opacity:1" />
    <path
       style="fill:none;fill-opacity:1;stroke:#313131;stroke-width:2.5;stroke-linecap:round;stroke-linejoin:round;stroke-miterlimit:4;stroke-dasharray:none;stroke-opacity:1"
       d="M 32.16221,76.367993 C 24.397529,74.197356 17.839504,73.28738 10.803794,73.046759"
       id="path949"
       inkscape:connector-curvature="0"
       sodipodi:nodetypes="cc" />
  </g>
</svg>
