<?xml version="1.0" encoding="UTF-8" standalone="no"?>
<!-- Created with Inkscape (http://www.inkscape.org/) -->

<svg
   xmlns:dc="http://purl.org/dc/elements/1.1/"
   xmlns:cc="http://creativecommons.org/ns#"
   xmlns:rdf="http://www.w3.org/1999/02/22-rdf-syntax-ns#"
   xmlns:svg="http://www.w3.org/2000/svg"
   xmlns="http://www.w3.org/2000/svg"
   xmlns:xlink="http://www.w3.org/1999/xlink"
   xmlns:sodipodi="http://sodipodi.sourceforge.net/DTD/sodipodi-0.dtd"
   xmlns:inkscape="http://www.inkscape.org/namespaces/inkscape"
   width="128"
   height="128"
   viewBox="0 0 128 128"
   version="1.1"
   id="svg8"
   inkscape:version="0.92.4 5da689c313, 2019-01-14"
   sodipodi:docname="blobfoxflower.svg"
   inkscape:export-filename="/home/kevin/Encfs/Media-Enc/Projekte/Grafiken/2019.07.30 - blobfox/blobfox.png"
   inkscape:export-xdpi="96"
   inkscape:export-ydpi="96">
  <defs
     id="defs2">
    <linearGradient
       inkscape:collect="always"
       id="linearGradient879">
      <stop
         style="stop-color:#ff7505;stop-opacity:1"
         offset="0"
         id="stop875" />
      <stop
         style="stop-color:#ff8702;stop-opacity:1"
         offset="1"
         id="stop877" />
    </linearGradient>
    <mask
       maskUnits="userSpaceOnUse"
       id="mask914">
      <path
         sodipodi:nodetypes="sssssssss"
         inkscape:connector-curvature="0"
         id="path916"
         d="m 154.91191,68.610466 c 0,13.30933 -2.85091,14.61151 -2.85091,22.03668 0,7.52238 3.27922,9.891904 1.87863,15.118954 -1.74673,6.51888 -11.67541,15.3198 -32.30034,19.24611 -19.5495,3.72157 -44.712872,3.71493 -57.603772,1.17936 -12.97147,-2.55141 -33.636043,-9.97066 -35.993433,-20.68009 -3.35292,-15.232034 0.95023,-36.744664 10.314153,-53.450134 13.12204,-23.41004 38.49929,-39.74165 76.385222,-32.80327 18.75365,3.43453 40.17044,20.22728 40.17045,49.35239 z"
         style="opacity:1;fill:#ffffff;fill-opacity:1;fill-rule:evenodd;stroke:none;stroke-width:2.79999995;stroke-linecap:round;stroke-linejoin:round;stroke-miterlimit:4;stroke-dasharray:none;stroke-dashoffset:0;stroke-opacity:1;paint-order:markers stroke fill" />
    </mask>
    <clipPath
       clipPathUnits="userSpaceOnUse"
       id="clipPath939">
      <path
         style="opacity:1;fill:#ffffff;fill-opacity:1;fill-rule:evenodd;stroke:none;stroke-width:2.79999995;stroke-linecap:round;stroke-linejoin:round;stroke-miterlimit:4;stroke-dasharray:none;stroke-dashoffset:0;stroke-opacity:1;paint-order:markers stroke fill"
         d="m 150.70195,0.51324812 c -3.5881,-1.83838902 -33.06651,6.51462968 -45.38553,27.09708688 5.48775,7.742314 19.19939,1.052482 24.75224,0.675897 -1.51761,2.342881 -3.95771,7.251483 -4.00944,10.319043 2.25571,0.870741 6.46398,0.348129 8.50111,-1.397205 1.40822,2.738472 0.2768,11.991364 8.03107,13.355 11.96243,-15.595326 13.61577,-47.2291846 8.11055,-50.04982188 z"
         id="path941"
         inkscape:connector-curvature="0"
         sodipodi:nodetypes="scccccs" />
    </clipPath>
    <clipPath
       clipPathUnits="userSpaceOnUse"
       id="clipPath846">
      <path
         sodipodi:nodetypes="ssssssscccccccccs"
         inkscape:connector-curvature="0"
         id="path848"
         d="m 391.79445,425.41973 c 1.65688,13.01782 -0.96948,14.64639 -0.0451,21.90893 0.93646,7.35762 4.43884,9.26701 3.71966,14.55393 -0.89694,6.59355 -9.51252,16.43773 -29.19693,22.84564 -18.65801,6.07378 -43.27107,9.19988 -56.19527,8.32464 -13.005,-0.88071 -34.14057,-5.56492 -37.77955,-15.74632 -5.17572,-14.481 -3.54688,-36.67033 3.43423,-53.56343 3.058,-7.39987 11.25258,-21.29807 21.35685,-27.6922 l 8.11698,-0.59557 -12.76711,-1.32585 c 5.83499,-2.87893 11.39007,-4.67336 15.7895,-5.33112 1.44139,0.88585 3.34146,1.6891 5.00507,2.25111 -3.5138,-1.72411 -8.61797,-10.20742 -11.06095,-13.14333 13.21468,-0.66879 24.87025,3.07218 30.03025,5.55927 l -4.32337,-6.20877 c 6.88088,0.77679 11.29124,4.58866 18.48127,4.89245 18.77046,1.02466 41.8087,14.78343 45.43449,43.27062 z"
         style="opacity:1;fill:url(#linearGradient850);fill-opacity:1;fill-rule:evenodd;stroke:none;stroke-width:2.79999995;stroke-linecap:round;stroke-linejoin:round;stroke-miterlimit:4;stroke-dasharray:none;stroke-dashoffset:0;stroke-opacity:1;paint-order:markers stroke fill" />
    </clipPath>
    <linearGradient
       inkscape:collect="always"
       xlink:href="#linearGradient879"
       id="linearGradient850"
       gradientUnits="userSpaceOnUse"
       gradientTransform="matrix(0.97809727,-0.12449018,0.12449018,0.97809727,231.7888,378.02587)"
       x1="114.28658"
       y1="112.44355"
       x2="95.348198"
       y2="85.856133" />
    <clipPath
       clipPathUnits="userSpaceOnUse"
       id="clipPath848">
      <path
         sodipodi:nodetypes="scccccs"
         inkscape:connector-curvature="0"
         id="path850"
         d="M 151.14447,0.33917988 C 146.26964,-2.2314866 116.36421,8.7225203 104.2178,29.016572 c 5.41086,7.633828 19.06431,-0.122979 24.53933,-0.494288 -1.49634,2.310053 -4.03617,8.310589 -4.08717,11.335166 2.22409,0.85854 9.31981,0.611108 12.13198,-2.270484 1.5001,5.35635 -1.15567,17.091196 6.48995,18.435725 10.36626,-17.966089 13.24747,-52.8385826 7.85258,-55.68351112 z"
         style="opacity:1;fill:#333333;fill-opacity:1;fill-rule:evenodd;stroke:none;stroke-width:2.79999995;stroke-linecap:round;stroke-linejoin:round;stroke-miterlimit:4;stroke-dasharray:none;stroke-dashoffset:0;stroke-opacity:1;paint-order:markers stroke fill" />
    </clipPath>
    <mask
       id="mask914-3"
       maskUnits="userSpaceOnUse">
      <path
         style="opacity:1;fill:#ffffff;fill-opacity:1;fill-rule:evenodd;stroke:none;stroke-width:2.79999995;stroke-linecap:round;stroke-linejoin:round;stroke-miterlimit:4;stroke-dasharray:none;stroke-dashoffset:0;stroke-opacity:1;paint-order:markers stroke fill"
         d="m 154.91191,68.610466 c 0,13.30933 -2.85091,14.61151 -2.85091,22.03668 0,7.52238 3.27922,9.891904 1.87863,15.118954 -1.74673,6.51888 -11.67541,15.3198 -32.30034,19.24611 -19.5495,3.72157 -44.712872,3.71493 -57.603772,1.17936 -12.97147,-2.55141 -33.636043,-9.97066 -35.993433,-20.68009 -3.35292,-15.232034 0.95023,-36.744664 10.314153,-53.450134 13.12204,-23.41004 38.49929,-39.74165 76.385222,-32.80327 18.75365,3.43453 40.17044,20.22728 40.17045,49.35239 z"
         id="path916-6"
         inkscape:connector-curvature="0"
         sodipodi:nodetypes="sssssssss" />
    </mask>
    <clipPath
       id="clipPath939-8"
       clipPathUnits="userSpaceOnUse">
      <path
         sodipodi:nodetypes="scccccs"
         inkscape:connector-curvature="0"
         id="path941-0"
         d="m 150.70195,0.51324812 c -3.5881,-1.83838902 -33.06651,6.51462968 -45.38553,27.09708688 5.48775,7.742314 19.19939,1.052482 24.75224,0.675897 -1.51761,2.342881 -3.95771,7.251483 -4.00944,10.319043 2.25571,0.870741 6.46398,0.348129 8.50111,-1.397205 1.40822,2.738472 0.2768,11.991364 8.03107,13.355 11.96243,-15.595326 13.61577,-47.2291846 8.11055,-50.04982188 z"
         style="opacity:1;fill:#ffffff;fill-opacity:1;fill-rule:evenodd;stroke:none;stroke-width:2.79999995;stroke-linecap:round;stroke-linejoin:round;stroke-miterlimit:4;stroke-dasharray:none;stroke-dashoffset:0;stroke-opacity:1;paint-order:markers stroke fill" />
    </clipPath>
    <clipPath
       id="clipPath846-2"
       clipPathUnits="userSpaceOnUse">
      <path
         style="opacity:1;fill:url(#linearGradient850);fill-opacity:1;fill-rule:evenodd;stroke:none;stroke-width:2.79999995;stroke-linecap:round;stroke-linejoin:round;stroke-miterlimit:4;stroke-dasharray:none;stroke-dashoffset:0;stroke-opacity:1;paint-order:markers stroke fill"
         d="m 391.79445,425.41973 c 1.65688,13.01782 -0.96948,14.64639 -0.0451,21.90893 0.93646,7.35762 4.43884,9.26701 3.71966,14.55393 -0.89694,6.59355 -9.51252,16.43773 -29.19693,22.84564 -18.65801,6.07378 -43.27107,9.19988 -56.19527,8.32464 -13.005,-0.88071 -34.14057,-5.56492 -37.77955,-15.74632 -5.17572,-14.481 -3.54688,-36.67033 3.43423,-53.56343 3.058,-7.39987 11.25258,-21.29807 21.35685,-27.6922 l 8.11698,-0.59557 -12.76711,-1.32585 c 5.83499,-2.87893 11.39007,-4.67336 15.7895,-5.33112 1.44139,0.88585 3.34146,1.6891 5.00507,2.25111 -3.5138,-1.72411 -8.61797,-10.20742 -11.06095,-13.14333 13.21468,-0.66879 24.87025,3.07218 30.03025,5.55927 l -4.32337,-6.20877 c 6.88088,0.77679 11.29124,4.58866 18.48127,4.89245 18.77046,1.02466 41.8087,14.78343 45.43449,43.27062 z"
         id="path848-1"
         inkscape:connector-curvature="0"
         sodipodi:nodetypes="ssssssscccccccccs" />
    </clipPath>
    <clipPath
       id="clipPath848-0"
       clipPathUnits="userSpaceOnUse">
      <path
         style="opacity:1;fill:#333333;fill-opacity:1;fill-rule:evenodd;stroke:none;stroke-width:2.79999995;stroke-linecap:round;stroke-linejoin:round;stroke-miterlimit:4;stroke-dasharray:none;stroke-dashoffset:0;stroke-opacity:1;paint-order:markers stroke fill"
         d="M 151.14447,0.33917988 C 146.26964,-2.2314866 116.36421,8.7225203 104.2178,29.016572 c 5.41086,7.633828 19.06431,-0.122979 24.53933,-0.494288 -1.49634,2.310053 -4.03617,8.310589 -4.08717,11.335166 2.22409,0.85854 9.31981,0.611108 12.13198,-2.270484 1.5001,5.35635 -1.15567,17.091196 6.48995,18.435725 10.36626,-17.966089 13.24747,-52.8385826 7.85258,-55.68351112 z"
         id="path850-5"
         inkscape:connector-curvature="0"
         sodipodi:nodetypes="scccccs" />
    </clipPath>
  </defs>
  <sodipodi:namedview
     id="base"
     pagecolor="#ffffff"
     bordercolor="#666666"
     borderopacity="1.0"
     inkscape:pageopacity="0.0"
     inkscape:pageshadow="2"
     inkscape:zoom="15.839192"
     inkscape:cx="2.8944551"
     inkscape:cy="64.749194"
     inkscape:document-units="px"
     inkscape:current-layer="layer7"
     showgrid="false"
     units="px"
     fit-margin-top="0"
     fit-margin-left="0"
     fit-margin-right="0"
     fit-margin-bottom="0"
     inkscape:window-width="3840"
     inkscape:window-height="1982"
     inkscape:window-x="2880"
     inkscape:window-y="0"
     inkscape:window-maximized="1"
     showguides="false" />
  <metadata
     id="metadata5">
    <rdf:RDF>
      <cc:Work
         rdf:about="">
        <dc:format>image/svg+xml</dc:format>
        <dc:type
           rdf:resource="http://purl.org/dc/dcmitype/StillImage" />
        <dc:title />
      </cc:Work>
    </rdf:RDF>
  </metadata>
  <g
     inkscape:groupmode="layer"
     id="layer3"
     inkscape:label="Ear  back">
    <path
       style="opacity:1;fill:#313131;fill-opacity:1;fill-rule:evenodd;stroke:none;stroke-width:2.79999995;stroke-linecap:round;stroke-linejoin:round;stroke-miterlimit:4;stroke-dasharray:none;stroke-dashoffset:0;stroke-opacity:1;paint-order:markers stroke fill"
       d="m 42.773234,18.6993 c 4.992504,-1.50747 15.733213,17.105573 28.816159,22.789755 L 44.1776,54.684622 C 39.96503,46.597569 38.248736,20.065465 42.773234,18.6993 Z"
       id="rect870"
       inkscape:connector-curvature="0"
       sodipodi:nodetypes="sccs" />
  </g>
  <g
     inkscape:groupmode="layer"
     id="layer4"
     inkscape:label="Body">
    <path
       style="opacity:1;fill:#ff8702;fill-opacity:1;fill-rule:evenodd;stroke:none;stroke-width:2.79999995;stroke-linecap:round;stroke-linejoin:round;stroke-miterlimit:4;stroke-dasharray:none;stroke-dashoffset:0;stroke-opacity:1;paint-order:markers stroke fill"
       d="m 126.77539,81.707781 c -1.15189,10.103608 -3.55413,12.103003 -3.55413,17.776243 0,5.747516 3.39068,7.557956 2.32056,11.551706 -1.33461,4.98078 -8.92066,11.70517 -24.67926,14.70508 -14.936912,2.84349 -34.163132,2.83841 -44.012497,0.9011 C 46.939131,124.69249 31.15025,119.02378 29.349072,110.84118 26.787253,99.203078 31.396022,69.211235 39.816171,57.821211 47.780563,47.047695 56.618629,40.391027 67.213624,41.961131 L 56.904053,38.189368 c 7.923267,-1.036342 11.416254,-1.401594 17.868418,2.624568 -3.599843,-3.480314 -5.108185,-9.790007 -6.608047,-12.620785 10.069703,1.931884 18.098379,7.376797 21.523884,10.199699 l -0.728784,-5.923056 c 4.600624,2.000051 6.326798,5.506498 11.682616,7.060173 13.93937,4.230355 28.65396,20.067863 26.13325,42.177814 z"
       id="path837"
       inkscape:connector-curvature="0"
       sodipodi:nodetypes="ssssssscccccccs" />
  </g>
  <g
     inkscape:groupmode="layer"
     id="layer5"
     inkscape:label="Ear front">
    <path
       sodipodi:nodetypes="scccccs"
       inkscape:connector-curvature="0"
       id="path873"
       d="m 129.92189,24.133039 c -3.64809,-2.393344 -28.04206,3.985262 -39.144229,19.063228 3.688883,6.423959 15.033769,1.340042 19.376609,1.460098 -1.35339,1.707734 -3.8073,6.245246 -4.07547,8.625027 1.68807,0.844246 7.29886,1.184089 9.73231,-0.874893 0.77847,4.334341 -2.19901,13.382255 3.72512,15.01814 9.52378,-13.377493 14.42293,-40.642906 10.38566,-43.2916 z"
       style="opacity:1;fill:#313131;fill-opacity:1;fill-rule:evenodd;stroke:none;stroke-width:2.79999995;stroke-linecap:round;stroke-linejoin:round;stroke-miterlimit:4;stroke-dasharray:none;stroke-dashoffset:0;stroke-opacity:1;paint-order:markers stroke fill" />
    <path
       style="opacity:1;fill:#ebdccc;fill-opacity:1;fill-rule:evenodd;stroke:none;stroke-width:3.54053736;stroke-linecap:round;stroke-linejoin:round;stroke-miterlimit:4;stroke-dasharray:none;stroke-dashoffset:0;stroke-opacity:1;paint-order:markers stroke fill"
       d="m 148.35911,4.3356447 c -1.78771,-0.8484478 -11.00575,2.906299 -16.19325,7.6720183 -10.53309,9.676667 -1.07136,22.664674 -28.29413,20.811212 6.00859,14.75387 19.11803,20.290527 34.81182,24.002583 -2.67038,-18.583744 9.24321,-19.504661 10.95019,-39.43404 0.64348,-7.5127806 0.14869,-12.3762659 -1.27463,-13.0517733 z"
       id="path958"
       inkscape:connector-curvature="0"
       sodipodi:nodetypes="ssccss"
       clip-path="url(#clipPath848)"
       transform="matrix(0.78641048,0.07521338,-0.07537383,0.78808758,10.999223,12.56918)" />
  </g>
  <g
     inkscape:label="Face"
     inkscape:groupmode="layer"
     id="layer1"
     transform="translate(-26.911905,0.03095311)">
    <ellipse
       style="opacity:1;fill:#313131;fill-opacity:1;fill-rule:evenodd;stroke:none;stroke-width:2.81259012;stroke-linecap:round;stroke-linejoin:round;stroke-miterlimit:4;stroke-dasharray:none;stroke-dashoffset:0;stroke-opacity:1;paint-order:markers stroke fill"
       id="path885"
       cx="121.21447"
       cy="82.679436"
       rx="6.821516"
       ry="7.7350502"
       transform="matrix(0.99190058,-0.12701666,-0.00639985,0.99997952,0,0)" />
    <ellipse
       transform="matrix(0.99776831,0.06677125,-0.20607155,0.97853693,0,0)"
       ry="7.4463363"
       rx="6.32054"
       cy="56.020954"
       cx="95.888054"
       id="ellipse887"
       style="opacity:1;fill:#313131;fill-opacity:1;fill-rule:evenodd;stroke:none;stroke-width:2.81394577;stroke-linecap:round;stroke-linejoin:round;stroke-miterlimit:4;stroke-dasharray:none;stroke-dashoffset:0;stroke-opacity:1;paint-order:markers stroke fill" />
    <path
       style="fill:none;fill-opacity:1;stroke:#313131;stroke-width:3.5;stroke-linecap:round;stroke-linejoin:round;stroke-miterlimit:4;stroke-dasharray:none;stroke-opacity:1"
       d="m 79.385276,84.569036 c 0.571369,3.217263 2.276055,7.349547 3.959707,10.100141 3.457709,-1.717329 5.725409,-5.124189 8.422701,-7.492808 1.187418,1.658292 3.772307,7.431144 6.414484,10.260638 3.622302,-1.944585 8.170012,-6.405284 9.341782,-7.441787"
       id="path889"
       inkscape:connector-curvature="0"
       sodipodi:nodetypes="ccccc" />
    <path
       style="opacity:1;fill:#313131;fill-opacity:1;fill-rule:evenodd;stroke:none;stroke-width:3.80000067;stroke-linecap:round;stroke-linejoin:round;stroke-miterlimit:4;stroke-dasharray:none;stroke-dashoffset:0;stroke-opacity:1;paint-order:markers stroke fill"
       d="m 100.31716,77.828414 c -0.0372,1.307496 -6.059832,5.553722 -8.268092,5.213192 -2.379065,-0.366871 -5.266393,-6.361008 -4.758292,-7.563856 1.289948,-3.053753 13.128884,-1.25168 13.026384,2.350664 z"
       id="rect902"
       inkscape:connector-curvature="0"
       sodipodi:nodetypes="ssss" />
    <path
       style="display:inline;fill:none;stroke:#313131;stroke-width:3;stroke-linecap:round;stroke-linejoin:round;stroke-miterlimit:4;stroke-dasharray:none;stroke-opacity:1"
       d="m 89.092966,60.628758 c -0.338083,5.42343 -1.729966,8.363513 -5.197473,11.270285 -2.786098,2.335558 -2.859153,6.269279 -1.46166,8.29478"
       id="path890"
       inkscape:connector-curvature="0"
       sodipodi:nodetypes="csc" />
  </g>
  <g
     inkscape:groupmode="layer"
     id="layer6"
     inkscape:label="Whiskers"
     style="display:none">
    <path
       style="fill:none;fill-opacity:1;stroke:#313131;stroke-width:2.5;stroke-linecap:round;stroke-linejoin:round;stroke-miterlimit:4;stroke-dasharray:none;stroke-opacity:1"
       d="m 68.645975,77.025193 c 9.338035,-1.395359 20.51424,-0.625306 30.695296,1.011356"
       id="path943"
       inkscape:connector-curvature="0"
       sodipodi:nodetypes="cc" />
    <path
       sodipodi:nodetypes="cc"
       inkscape:connector-curvature="0"
       id="path945"
       d="m 67.228811,83.13089 c 11.440451,0.448873 21.054841,4.550435 30.034524,11.48183"
       style="fill:none;fill-opacity:1;stroke:#313131;stroke-width:2.5;stroke-linecap:round;stroke-linejoin:round;stroke-miterlimit:4;stroke-dasharray:none;stroke-opacity:1" />
    <path
       sodipodi:nodetypes="cc"
       inkscape:connector-curvature="0"
       id="path947"
       d="M 32.895393,71.456936 C 26.718997,67.627467 21.192825,65.440905 14.567884,63.58624"
       style="fill:none;fill-opacity:1;stroke:#313131;stroke-width:2.5;stroke-linecap:round;stroke-linejoin:round;stroke-miterlimit:4;stroke-dasharray:none;stroke-opacity:1" />
    <path
       style="fill:none;fill-opacity:1;stroke:#313131;stroke-width:2.5;stroke-linecap:round;stroke-linejoin:round;stroke-miterlimit:4;stroke-dasharray:none;stroke-opacity:1"
       d="M 32.16221,76.367993 C 24.397529,74.197356 17.839504,73.28738 10.803794,73.046759"
       id="path949"
       inkscape:connector-curvature="0"
       sodipodi:nodetypes="cc" />
  </g>
  <g
     inkscape:groupmode="layer"
     id="layer7"
     inkscape:label="Flower">
    <path
       style="fill:none;fill-opacity:1;stroke:#77b255;stroke-width:5.99999952;stroke-linecap:butt;stroke-linejoin:miter;stroke-miterlimit:4;stroke-dasharray:none;stroke-opacity:1"
       d="M 22.660844,98.335509 24.129121,69.687554"
       id="path917"
       inkscape:connector-curvature="0" />
    <path
       style="fill:#ff8702;fill-opacity:1;stroke:#313131;stroke-width:3.5;stroke-linecap:round;stroke-linejoin:round;stroke-miterlimit:4;stroke-dasharray:none;stroke-opacity:1"
       d="m 90.82034,120.45681 c -39.525249,4.99834 -61.812014,-8.34286 -70.699339,-17.36629 -8.644959,-8.777356 -0.616174,-17.409105 9.484918,-9.865974 14.983656,11.189254 28.073484,13.382314 42.528188,13.645624 19.11515,0.34821 26.760294,-6.21952 26.760294,-6.21952"
       id="path915"
       inkscape:connector-curvature="0"
       sodipodi:nodetypes="csssc" />
    <path
       inkscape:connector-curvature="0"
       style="opacity:1;fill:#c01967;fill-opacity:1;fill-rule:evenodd;stroke:none;stroke-width:6.99999952;stroke-linecap:round;stroke-linejoin:bevel;stroke-miterlimit:4;stroke-dasharray:none;stroke-opacity:1;paint-order:markers stroke fill"
       d="m 29.212623,28.94943 c -7.272837,0.188963 -8.951087,9.112209 -8.81329,14.15789 C 17.637735,38.398823 9.9649234,31.701505 3.7298832,38.091507 a 3.6323022,2.4528478 33.202089 0 1 1.4850166,3.894287 3.6323022,2.4528478 33.202089 0 1 -4.26691132,0.135167 C -2.706771,49.854032 4.9294499,53.983344 11.529417,55.687037 5.037727,57.436653 -1.8015405,62.361753 1.1836184,69.191007 a 2.4528478,3.6323022 57.24542 0 1 0.040185,-0.0274 2.4528478,3.6323022 57.24542 0 1 4.3819864,0.09681 2.4528478,3.6323022 57.24542 0 1 -1.6293171,3.961871 c 6.5924163,6.733011 13.5300613,-0.485372 16.7753913,-5.211258 -0.39664,5.325615 1.891135,15.199736 10.486446,13.851023 a 3.6323022,2.4528478 71.82961 0 1 -0.08037,-0.226497 3.6323022,2.4528478 71.82961 0 1 1.198243,-4.215767 3.6323022,2.4528478 71.82961 0 1 3.463212,2.685085 3.6323022,2.4528478 71.82961 0 1 0.04201,0.140648 c 7.464903,-4.237367 2.463534,-12.780564 -0.538844,-17.199161 5.223293,2.096355 15.875996,3.170249 16.543414,-6.451511 a 2.4528478,3.6323022 84.632182 0 1 -3.790171,-2.106057 2.4528478,3.6323022 84.632182 0 1 3.322565,-2.774588 c -2.091738,-7.20273 -10.217601,-5.902574 -16.293168,-4.058678 3.403875,-4.851822 7.002442,-13.8552 -0.409155,-17.449402 a 2.4528478,3.6323022 13.927425 0 1 -3.20201,2.749016 2.4528478,3.6323022 13.927425 0 1 -1.534335,-3.992923 c -0.255126,-0.01359 -0.504534,-0.01909 -0.747075,-0.01278 z"
       id="path922" />
    <path
       style="fill:none;stroke:#ffffff;stroke-width:2.8;stroke-linecap:butt;stroke-linejoin:miter;stroke-miterlimit:4;stroke-dasharray:none;stroke-opacity:1"
       d="M 24.7594,55.837078 32.525011,42.894391"
       id="path944"
       inkscape:connector-curvature="0" />
    <path
       style="fill:none;stroke:#ffffff;stroke-width:2.8;stroke-linecap:butt;stroke-linejoin:miter;stroke-miterlimit:4;stroke-dasharray:none;stroke-opacity:1"
       d="M 37.785587,51.16101 24.7594,55.837078"
       id="path946"
       inkscape:connector-curvature="0" />
    <circle
       r="3.174983"
       cy="50.968113"
       cx="37.594315"
       id="circle927"
       style="opacity:1;fill:#ef8091;fill-opacity:1;fill-rule:evenodd;stroke:none;stroke-width:6.99999952;stroke-linecap:round;stroke-linejoin:bevel;stroke-miterlimit:4;stroke-dasharray:none;stroke-opacity:1;paint-order:markers stroke fill" />
    <path
       style="fill:none;stroke:#ffffff;stroke-width:2.8;stroke-linecap:butt;stroke-linejoin:miter;stroke-miterlimit:4;stroke-dasharray:none;stroke-opacity:1"
       d="M 36.033149,61.731723 24.7594,55.837078"
       id="path948"
       inkscape:connector-curvature="0"
       sodipodi:nodetypes="cc" />
    <circle
       style="opacity:1;fill:#ef8091;fill-opacity:1;fill-rule:evenodd;stroke:none;stroke-width:6.99999952;stroke-linecap:round;stroke-linejoin:bevel;stroke-miterlimit:4;stroke-dasharray:none;stroke-opacity:1;paint-order:markers stroke fill"
       id="circle929"
       cx="36.007793"
       cy="61.656265"
       r="3.174983" />
    <path
       style="fill:none;stroke:#ffffff;stroke-width:2.8;stroke-linecap:butt;stroke-linejoin:miter;stroke-miterlimit:4;stroke-dasharray:none;stroke-opacity:1"
       d="M 28.516954,70.867294 24.7594,55.837078"
       id="path950"
       inkscape:connector-curvature="0" />
    <circle
       r="3.174983"
       cy="71.0084"
       cx="28.409184"
       id="circle931"
       style="opacity:1;fill:#ef8091;fill-opacity:1;fill-rule:evenodd;stroke:none;stroke-width:6.99999952;stroke-linecap:round;stroke-linejoin:bevel;stroke-miterlimit:4;stroke-dasharray:none;stroke-opacity:1;paint-order:markers stroke fill" />
    <path
       style="fill:none;stroke:#ffffff;stroke-width:2.8;stroke-linecap:butt;stroke-linejoin:miter;stroke-miterlimit:4;stroke-dasharray:none;stroke-opacity:1"
       d="M 17.411294,67.610747 24.7594,55.837078"
       id="path952"
       inkscape:connector-curvature="0" />
    <circle
       style="opacity:1;fill:#ef8091;fill-opacity:1;fill-rule:evenodd;stroke:none;stroke-width:6.99999952;stroke-linecap:round;stroke-linejoin:bevel;stroke-miterlimit:4;stroke-dasharray:none;stroke-opacity:1;paint-order:markers stroke fill"
       id="circle933"
       cx="17.387024"
       cy="67.50135"
       r="3.174983" />
    <path
       style="fill:none;stroke:#ffffff;stroke-width:2.8;stroke-linecap:butt;stroke-linejoin:miter;stroke-miterlimit:4;stroke-dasharray:none;stroke-opacity:1"
       d="M 13.403236,58.425615 24.7594,55.837078"
       id="path954"
       inkscape:connector-curvature="0" />
    <circle
       r="3.174983"
       cy="58.483219"
       cx="13.128463"
       id="circle935"
       style="opacity:1;fill:#ef8091;fill-opacity:1;fill-rule:evenodd;stroke:none;stroke-width:6.99999952;stroke-linecap:round;stroke-linejoin:bevel;stroke-miterlimit:4;stroke-dasharray:none;stroke-opacity:1;paint-order:markers stroke fill" />
    <path
       style="fill:none;stroke:#ffffff;stroke-width:2.8;stroke-linecap:butt;stroke-linejoin:miter;stroke-miterlimit:4;stroke-dasharray:none;stroke-opacity:1"
       d="M 11.232205,47.820963 24.7594,55.837078"
       id="path956"
       inkscape:connector-curvature="0" />
    <circle
       style="opacity:1;fill:#ef8091;fill-opacity:1;fill-rule:evenodd;stroke:none;stroke-width:6.99999952;stroke-linecap:round;stroke-linejoin:bevel;stroke-miterlimit:4;stroke-dasharray:none;stroke-opacity:1;paint-order:markers stroke fill"
       id="circle937"
       cx="11.207935"
       cy="47.711563"
       r="3.174983" />
    <path
       style="fill:none;stroke:#ffffff;stroke-width:2.8;stroke-linecap:butt;stroke-linejoin:miter;stroke-miterlimit:4;stroke-dasharray:none;stroke-opacity:1"
       d="M 20.858753,44.087857 24.7594,55.837078"
       id="path959"
       inkscape:connector-curvature="0"
       sodipodi:nodetypes="cc" />
    <circle
       r="3.174983"
       cy="43.87051"
       cx="20.894075"
       id="circle939"
       style="opacity:1;fill:#ef8091;fill-opacity:1;fill-rule:evenodd;stroke:none;stroke-width:6.99999952;stroke-linecap:round;stroke-linejoin:bevel;stroke-miterlimit:4;stroke-dasharray:none;stroke-opacity:1;paint-order:markers stroke fill" />
    <circle
       style="opacity:1;fill:#ef8091;fill-opacity:1;fill-rule:evenodd;stroke:none;stroke-width:6.99999952;stroke-linecap:round;stroke-linejoin:bevel;stroke-miterlimit:4;stroke-dasharray:none;stroke-opacity:1;paint-order:markers stroke fill"
       id="circle941"
       cx="32.25024"
       cy="42.617989"
       r="3.174983" />
    <circle
       style="opacity:1;fill:#ffcc4d;fill-opacity:1;fill-rule:evenodd;stroke:none;stroke-width:6.99999952;stroke-linecap:round;stroke-linejoin:bevel;stroke-miterlimit:4;stroke-dasharray:none;stroke-opacity:1;paint-order:markers stroke fill"
       id="path925"
       cx="24.651628"
       cy="56.061684"
       r="6.8490357" />
  </g>
</svg>
